<svg width="139" height="61" viewBox="0 0 139 61" fill="none" xmlns="http://www.w3.org/2000/svg">
<path d="M13.4351 7.11667C14.0458 7.82834 14.9618 9.04834 15.9796 9.76C18.0153 10.2683 20.2544 9.96334 22.1883 10.1667C23.2061 10.675 23.715 12.0983 24.8346 11.7933C27.0738 13.2167 26.972 15.3517 28.9058 16.5717C29.0076 17.385 29.0076 17.8933 29.0076 18.5033C29.5165 19.3167 30.229 19.825 30.7379 20.5367C32.0611 20.8417 32.4682 19.4183 33.2824 19.0117C33.2824 19.6217 33.7913 19.9267 33.5878 20.2317C32.57 20.8417 31.8575 21.7567 30.7379 21.655C30.0254 20.6383 29.0076 19.9267 28.2952 19.0117C28.1934 18.3 28.1934 17.69 28.1934 17.1817C26.1578 15.86 26.4631 13.9283 24.7328 12.9117C23.4097 13.0133 22.4936 14.2333 21.1705 14.03C22.0865 14.335 23.6132 13.725 24.4275 12.81C26.1578 14.2333 25.9542 16.0633 27.888 16.9783C27.7863 17.7917 27.7863 18.3 28.0916 18.605C27.888 19.0117 27.6845 18.91 27.5827 19.0117C27.4809 18.4017 27.5827 17.7917 27.4809 17.2833C25.6488 16.0633 25.8524 14.2333 24.3257 13.2167C23.6132 14.64 22.1883 14.1317 21.4758 14.7417C21.8829 14.7417 22.3919 14.7417 22.9008 14.8433C23.5114 14.4367 23.8168 14.03 24.2239 13.725C25.6488 14.8433 25.5471 16.2667 27.1756 17.08C27.4809 17.5883 27.2773 17.995 27.3791 18.3C25.6488 19.215 23.4097 18.5033 21.7812 19.0117C22.9008 18.4017 25.1399 18.605 26.7684 18.5033C27.1756 18.1983 26.972 17.7917 27.0738 17.5883C25.4453 16.47 25.2417 15.0467 24.4275 13.9283C23.6132 15.0467 22.5954 14.945 21.7812 15.1483C22.9008 15.4533 23.715 15.25 24.2239 14.335C24.631 15.7583 25.6488 16.5717 26.6667 17.385C25.0382 18.8083 23.8168 16.9783 22.2901 17.995C21.7812 17.4867 21.5776 17.1817 21.2723 16.9783C21.8829 17.5883 21.2723 18.605 21.7812 19.215C21.5776 19.6217 21.2723 19.6217 21.1705 19.52C21.374 18.7067 21.5776 17.69 20.7634 17.385C21.1705 17.8933 20.9669 18.4017 20.9669 19.0117C20.3562 19.3167 20.6616 20.13 20.0509 20.13C19.7455 19.215 21.2723 19.3167 20.5598 17.995C20.458 17.4867 20.2544 18.0967 20.0509 17.69C19.6438 18.3 19.8473 18.91 19.7455 19.4183C19.3384 19.9267 19.0331 20.435 18.6259 20.6383C19.2366 20.8417 19.8473 20.8417 20.458 20.8417C21.2723 20.2317 21.6794 19.3167 22.3919 19.1133C24.4275 19.215 26.1578 19.215 27.888 19.215C28.9058 20.0283 29.6183 20.8417 30.5343 21.655C31.145 21.8583 31.4504 21.7567 31.8575 21.7567C32.4682 21.35 32.7735 21.045 33.0789 20.6383C33.486 20.9433 33.1807 21.4517 33.486 21.655C32.57 22.7733 31.4504 22.57 30.4326 22.7733C29.8219 21.8583 28.4987 21.045 27.7863 20.0283C26.1578 19.9267 24.7328 20.0283 23.3079 19.9267C22.9008 21.5533 24.8346 19.9267 24.5293 21.2483C23.5114 21.2483 22.799 20.5367 22.9008 19.9267C22.4936 20.6383 22.9008 20.9433 23.3079 21.2483C24.3257 21.2483 25.1399 21.35 25.6488 22.0617C25.3435 22.9767 25.4453 24.4 25.6488 25.2133C25.0382 25.5183 24.7328 26.0267 24.3257 26.3317C23.8168 26.4333 23.6132 26.535 23.3079 26.535C22.4936 26.1283 23.715 25.2133 22.799 25.315C22.3919 27.145 20.5598 27.9583 19.6438 29.3817C19.542 30.195 19.4402 30.6017 19.542 31.11C19.1349 31.6183 18.6259 31.415 18.3206 31.5167C18.8295 32.2283 19.6438 31.9233 20.458 31.9233C21.374 31.415 21.0687 30.5 21.0687 29.6867C21.6794 28.975 22.5954 28.4667 22.6972 27.8567C23.5114 28.06 24.631 27.9583 25.1399 27.6533C25.3435 27.9583 25.4453 28.365 25.1399 28.365C24.3257 27.9583 23.3079 28.06 22.9008 28.4667C22.2901 28.975 21.7812 29.28 21.374 29.6867C21.8829 29.9917 22.3919 28.975 23.0025 28.67C24.0203 28.365 25.1399 28.7717 25.7506 28.1617C26.1578 28.365 26.1578 28.7717 26.056 28.8733C25.1399 28.4667 24.1221 28.7717 23.3079 28.67C22.3919 29.3817 22.1883 29.9917 21.4758 30.2967C22.2901 30.5 22.4936 29.4833 23.2061 29.0767C24.0203 29.6867 24.5293 30.195 25.1399 30.805C25.1399 31.6183 25.2417 32.33 25.1399 32.94C22.6972 32.94 20.5598 32.8383 18.5242 32.7367C17.9135 32.33 17.4046 31.8217 16.9974 31.415C16.6921 31.415 16.5903 31.415 16.4885 31.415C15.2672 31.6183 13.4351 31.2117 12.7226 31.6183C14.0458 31.415 15.6743 31.9233 16.8957 31.5167C17.0992 32.2283 17.9135 32.635 18.3206 33.245C20.6616 33.1433 22.9008 33.4483 24.9364 33.1433L25.1399 33.0417L25.2417 33.1433C25.4453 33.245 25.4453 33.55 25.0382 33.6517C22.799 33.4483 20.5598 33.55 18.4224 33.4483C17.6081 32.94 17.3028 32.2283 16.6921 32.1267C15.2672 32.1267 13.8422 31.72 12.7226 32.2283C12.4173 31.9233 12.0102 32.025 12.2137 31.6183C13.6387 30.9067 15.3689 31.3133 16.7939 31.11C16.9974 29.9917 16.8957 28.5683 16.8957 27.755C16.1832 26.84 15.7761 26.3317 15.1654 25.8233C13.8422 25.7217 13.3333 26.9417 12.5191 27.45C11.603 27.5517 10.8906 27.5517 10.1781 27.5517C9.87277 27.3483 9.6692 27.145 9.56742 27.0433C9.46564 27.3483 9.77099 27.755 10.1781 27.755C10.8906 27.8567 11.5013 28.06 11.8066 27.6533C12.3155 27.9583 12.2137 28.1617 12.112 28.365C11.3995 27.9583 10.3817 27.9583 9.97455 28.365C9.56742 27.8567 9.26208 27.45 8.95674 27.0433C9.87277 27.2467 11.0941 27.5517 12.4173 27.2467C13.4351 26.6367 13.944 25.315 14.9618 25.315C15.7761 26.0267 16.4885 26.7383 17.0992 27.3483C17.0992 28.67 17.0992 29.89 17.0992 31.11C17.7099 31.5167 17.8117 31.9233 18.2188 32.33C20.458 32.635 22.5954 32.8383 24.8346 32.635C24.9364 32.1267 24.9364 31.6183 24.9364 31.11C24.3257 30.3983 23.9186 29.9917 23.5114 29.585C22.6972 29.89 22.2901 30.9067 21.374 30.6017C21.4758 31.415 20.9669 31.72 20.5598 32.025C19.8473 32.2283 19.2366 32.2283 18.7277 32.2283C18.2188 32.025 17.9135 31.5167 17.8117 31.415C18.0153 31.11 18.6259 31.2117 19.0331 31.11C19.2366 30.5 19.2366 29.9917 19.2366 29.4833C21.374 27.8567 22.0865 25.5183 23.5114 24.2983C23.715 23.18 22.4936 23.8917 22.1883 23.5867C21.8829 22.7733 22.3919 21.8583 21.5776 21.655C21.2723 21.5533 21.0687 21.4517 20.9669 21.5533C21.8829 22.0617 21.6794 22.9767 21.7812 23.6883C22.3919 24.2983 23.1043 23.2817 23.4097 24.095C22.9008 24.6033 22.5954 23.8917 22.0865 24.1967C21.0687 25.01 20.2544 25.8233 19.8473 26.84C20.458 26.84 20.9669 26.1283 20.7634 25.62C21.4758 25.315 21.374 26.0267 21.1705 26.1283C20.5598 27.0433 19.9491 27.2467 19.1349 27.3483C19.3384 28.365 18.6259 28.5683 18.3206 29.0767C18.3206 29.6867 17.9135 30.6017 18.4224 30.6017C18.6259 29.9917 18.4224 29.4833 18.6259 29.0767C19.6438 28.2633 20.3562 27.2467 21.1705 26.535C21.1705 25.62 21.7812 25.2133 22.1883 24.705C22.3919 24.1967 22.9008 24.4 22.9008 24.6033C21.5776 26.0267 20.6616 27.9583 18.9313 29.0767C18.9313 29.7883 18.9313 30.2967 18.8295 30.7033C18.4224 30.805 18.2188 30.805 17.9135 30.805C17.8117 29.3817 17.9135 28.06 17.8117 26.84C16.9974 26.23 16.5903 25.4167 15.7761 25.2133C15.7761 24.8067 15.9796 24.6033 16.0814 24.6033C16.4885 25.5183 17.4046 25.925 17.8117 26.6367C18.7277 26.0267 19.3384 25.315 20.0509 24.705C20.1527 23.2817 18.6259 22.7733 18.117 21.7567C16.7939 21.7567 15.7761 21.7567 14.7583 21.7567C13.1298 23.18 11.603 24.705 10.0763 26.23C10.4835 27.0433 11.3995 26.6367 12.0102 26.84C13.5369 25.315 14.9618 24.095 16.285 22.7733C16.6921 22.3667 17.0992 22.57 17.4046 22.4683C18.2188 23.18 18.8295 23.5867 19.2366 24.1967C18.8295 24.8067 18.4224 25.01 18.2188 25.4167C17.4046 25.1117 17.201 24.6033 16.5903 24.2983C16.1832 24.095 15.8779 24.1967 15.6743 24.2983C15.4707 25.8233 17.4046 26.23 17.5064 27.0433C16.8957 26.23 15.1654 25.7217 15.2672 24.6033C15.7761 23.8917 16.1832 23.79 16.5903 23.9933C17.201 24.4 17.5064 24.705 17.8117 25.01C18.3206 24.705 18.7277 24.5017 18.8295 24.2983C18.4224 23.6883 18.0153 23.2817 17.6081 22.875C17.0992 22.875 16.5903 22.6717 16.285 22.9767C17.201 22.875 17.7099 24.1967 18.2188 23.8917C18.6259 23.9933 18.8295 24.2983 18.5242 24.5017C17.7099 23.8917 16.8957 23.5867 16.0814 23.485C14.7583 24.6033 13.5369 25.8233 12.3155 26.9417C11.603 27.145 11.0941 27.145 10.5852 27.145C10.1781 26.6367 9.6692 26.6367 9.6692 26.3317C11.1959 24.705 12.8244 22.9767 14.3511 21.5533C16.5903 21.35 18.5242 21.4517 20.5598 21.4517C21.2723 20.8417 21.7812 20.13 22.2901 19.7233C24.2239 19.7233 25.8524 19.7233 27.5827 19.7233C28.8041 20.435 29.5165 21.8583 30.7379 22.265C31.3486 22.3667 31.8575 22.57 32.2646 22.3667C32.8753 21.96 32.57 21.5533 33.0789 21.35C32.6717 21.4517 32.4682 21.655 32.2646 21.8583C31.6539 22.0617 31.145 22.0617 30.6361 22.0617C29.5165 21.1467 28.7023 20.2317 27.888 19.4183C25.9542 19.4183 24.2239 19.4183 22.4936 19.4183C21.6794 19.825 21.1705 20.5367 20.5598 20.9433C18.4224 21.045 16.4885 21.1467 14.5547 21.1467C12.7226 22.7733 11.0941 24.4 9.56742 26.0267C8.85495 25.7217 8.65139 25.1117 8.04071 24.9083C8.24427 25.5183 8.75317 25.8233 9.05852 26.1283C9.05852 26.535 9.05852 26.84 8.65139 26.9417C9.05852 26.0267 7.83714 25.62 7.5318 24.705C8.54961 24.5017 8.85495 25.315 9.36386 25.62C11.2977 24.095 12.9262 21.8583 14.86 20.6383C15.1654 19.7233 14.86 18.5033 15.1654 17.5883C15.2672 16.0633 13.944 15.25 14.4529 13.6233C12.9262 12.3017 11.7048 10.5733 10.2799 9.76C11.7048 10.2683 13.1298 12.0983 14.4529 13.2167C14.0458 16.0633 16.4885 13.725 15.4707 15.6567C16.0814 15.7583 16.3868 15.25 16.6921 15.6567C16.5903 16.47 16.1832 16.0633 15.7761 15.9617C15.3689 15.6567 15.0636 15.3517 14.7583 15.0467C15.2672 15.6567 15.1654 16.47 15.3689 17.2833C16.1832 15.9617 17.4046 16.47 18.3206 16.165C17.9135 15.7583 15.9796 15.0467 15.8779 14.335C16.5903 14.2333 16.5903 14.945 17.201 15.1483C17.8117 15.25 18.3206 15.3517 18.7277 15.3517C17.0992 15.3517 16.1832 13.5217 15.1654 13.8267C16.285 13.42 16.8957 14.1317 17.4046 14.7417C18.2188 14.4367 18.7277 14.945 19.1349 14.945C17.3028 14.945 16.8957 13.0133 15.3689 13.2167C13.8422 11.6917 12.0102 10.2683 10.9924 8.845C12.8244 9.455 13.944 10.98 15.2672 12.0983C16.9974 12.6067 18.3206 13.8267 19.9491 14.1317C18.3206 13.5217 17.3028 12.3017 15.7761 11.9967C14.2494 10.8783 13.2315 9.55667 12.0102 8.64167C11.8066 8.33667 12.0102 8.03167 12.112 8.03167C13.1298 9.55667 14.5547 10.5733 15.5725 11.7933C17.3028 12.2 18.5242 13.115 19.9491 13.6233C20.8651 13.6233 21.6794 12.6067 22.799 12.9117C22.6972 12.2 22.2901 11.9967 22.0865 11.59C21.374 11.3867 21.0687 11.6917 20.8651 12.0983C19.6438 11.9967 18.4224 12.4033 17.7099 11.7933C18.5242 12.2 20.7634 11.895 21.8829 11.1833C22.4936 11.7933 22.9008 12.2 23.2061 12.505C22.5954 13.725 20.9669 12.7083 20.6616 14.2333C21.9847 13.6233 23.4097 13.115 24.5293 12.3017C26.5649 13.725 26.4631 15.555 28.2952 16.6733C28.4987 17.5883 28.3969 18.1983 28.3969 18.7067C29.1094 19.52 29.8219 20.2317 30.5343 20.9433C31.0433 21.1467 31.3486 21.2483 31.8575 21.1467C32.4682 20.6383 32.9771 20.2317 33.0789 19.6217C32.3664 20.2317 31.8575 21.2483 31.0433 20.8417C30.1272 20.13 29.5165 19.52 28.9058 18.91C28.8041 18.0967 28.8041 17.4867 28.8041 16.9783C26.7684 15.4533 26.7684 13.42 24.8346 12.3017C23.6132 12.3017 23.2061 10.98 22.3919 10.5733C20.2544 10.5733 18.117 10.2683 16.1832 10.5733C15.4707 9.55667 14.2494 8.33667 13.3333 7.72667L13.1298 7.52334V7.42167H13.2315" fill="#A08069"/>
<path d="M8.85497 11.285C9.66922 12.0983 10.9924 13.8267 12.3155 14.8433C12.3155 15.9617 12.2137 16.775 13.1298 17.1817C13.5369 16.3683 12.2137 16.0633 12.7227 14.945C11.8066 14.03 11.1959 13.42 10.4835 12.7083C10.7888 12.2 10.9924 11.895 11.2977 11.6917C12.2137 12.3017 12.9262 13.5217 13.5369 13.6233C13.7405 14.03 13.5369 14.2333 13.3333 14.1317C12.9262 13.3183 11.9084 12.81 11.5013 12.0983C11.0942 12.0983 10.9924 12.2 10.8906 12.3017C12.112 13.725 13.1298 14.8433 13.2316 16.6733C13.6387 17.8933 13.5369 19.1133 13.6387 20.3333C12.112 21.7567 10.8906 23.18 9.56744 24.5017C8.95675 23.8917 8.34606 23.6883 7.53181 23.8917C8.24428 23.9933 8.85497 24.2983 9.26209 24.9083C10.8906 23.485 12.3155 22.0617 13.7405 20.74C13.8422 18.5033 13.944 16.5717 13.1298 14.945C12.6209 13.8267 11.6031 13.115 10.9924 12.6067C11.9084 12.6067 12.5191 14.03 13.5369 14.5383C13.6387 15.3517 13.4351 15.9617 14.0458 16.165C14.0458 17.7917 14.1476 19.215 14.0458 20.5367C12.5191 22.265 11.0942 23.6883 9.66922 25.2133C8.85497 24.9083 8.34606 23.79 7.53181 24.6033C7.12469 24.2983 7.22647 23.9933 7.22647 23.6883C8.1425 23.485 8.95675 23.3833 9.36387 24.1967C10.7888 22.875 12.0102 21.655 13.1298 20.435C13.3333 19.9267 13.2316 19.4183 13.2316 19.0117C12.5191 18.1983 11.8066 17.4867 11.1959 16.8767C10.7888 16.165 11.0942 15.6567 11.0942 15.25C10.5852 15.7583 10.7888 16.2667 10.687 16.6733C11.3995 17.7917 12.9262 18.4017 12.8244 19.52C10.7888 20.2317 9.771 20.0283 7.83716 19.6217C7.43003 20.3333 7.83716 21.2483 7.43003 21.7567C7.83716 22.6717 9.56744 22.7733 10.2799 22.9767C9.26209 23.2817 8.24428 22.265 7.53181 23.2817C6.81934 23.0783 6.92113 22.4683 6.71756 22.265C6.41222 21.1467 7.22647 21.655 7.43003 21.2483C6.92113 20.9433 6.71756 21.4517 6.514 21.1467C6.20866 20.3333 6.92113 20.0283 6.71756 19.3167C7.93894 18.4017 9.66922 18.8083 10.5852 19.3167C10.0763 17.8933 8.44784 18.91 7.93894 18.0967C7.22647 18.1983 7.02291 18.8083 6.61578 19.0117C6.61578 18.5033 6.0051 18.1983 6.20866 17.995C6.71756 17.8933 6.92113 17.5883 7.12469 17.2833C8.44784 17.5883 9.46566 17.7917 10.7888 17.5883C11.2977 18.1983 11.8066 18.7067 12.3155 18.8083C12.4173 19.215 12.112 19.4183 12.0102 19.3167C11.7048 18.7067 11.0942 18.4017 10.7888 17.8933C9.36387 17.995 8.34606 17.7917 7.43003 17.4867C6.81934 17.7917 6.92113 18.3 6.61578 18.4017C7.02291 18.1983 7.32825 17.7917 7.63359 17.69C8.44784 18.4017 9.36387 17.995 10.0763 18.1983C10.4835 18.5033 10.8906 18.7067 10.9924 19.1133C9.97456 19.6217 8.75319 18.605 7.32825 19.215C7.22647 19.7233 6.81934 20.2317 6.81934 20.6383C7.83716 20.9433 6.92113 19.6217 7.73538 19.52C9.66922 19.52 10.7888 20.13 12.3155 19.3167C12.4173 18.3 11.0942 17.7917 10.5852 16.8767C10.1781 15.86 10.7888 15.3517 11.0942 14.7417C12.0102 14.7417 11.2977 15.1483 11.6031 15.3517C11.6031 15.9617 11.0942 15.86 11.2977 16.47C11.9084 17.1817 12.6209 17.8933 13.2316 18.5033C12.3155 17.2833 12.3155 15.7583 11.6031 14.335C9.771 14.945 10.4835 16.47 9.56744 17.2833C8.24428 17.5883 7.83716 15.9617 6.61578 16.5717C6.71756 16.0633 6.31044 16.0633 6.31044 15.86C7.63359 15.555 7.32825 14.03 8.1425 13.725C8.34606 13.3183 8.24428 13.115 8.34606 13.0133C7.73538 13.42 7.12469 14.03 7.22647 14.64C6.81934 15.0467 6.61578 14.64 6.514 14.5383C7.22647 13.8267 7.83716 12.9117 7.93894 12.4033C8.75319 12.4033 8.75319 13.5217 8.34606 13.8267C8.65141 14.03 8.95675 14.03 9.05853 13.8267C9.56744 13.42 8.65141 13.2167 9.16031 12.81C9.56744 12.7083 9.771 12.9117 9.66922 13.115C9.771 14.64 8.04072 14.03 7.83716 14.5383C9.05853 14.64 9.97456 13.6233 10.8906 13.9283C9.771 14.4367 8.1425 14.64 7.12469 15.4533C7.83716 15.9617 8.24428 15.4533 8.75319 15.0467C9.36387 15.86 8.54962 15.7583 8.34606 15.7583C8.75319 15.6567 9.36387 15.9617 9.05853 16.47C8.34606 16.165 7.43003 15.6567 6.81934 16.165C8.04072 15.7583 8.34606 17.2833 9.26209 16.9783C9.87278 15.9617 9.771 14.8433 10.9924 14.335C10.3817 13.2167 9.46566 12.2 8.54962 11.7933" fill="#F19DAF"/>
<path d="M25.14 20.435L25.2417 20.3333C26.2595 20.0283 26.6667 21.1467 27.2774 21.4517C27.3791 23.0783 27.2774 24.5017 27.3791 25.925C28.0916 25.925 28.7023 26.0267 29.1094 25.925C28.6005 25.4167 28.2952 26.0267 27.7863 25.8233C27.2774 24.5017 27.6845 23.0783 27.4809 21.8583C27.3791 21.1467 26.8702 20.8417 26.6667 20.3333C27.1756 20.3333 27.5827 20.13 27.6845 20.5367C28.6005 21.35 29.313 22.0617 30.1272 22.875C30.9415 23.0783 31.6539 22.875 32.0611 22.7733C31.9593 23.8917 31.0433 22.875 30.229 23.2817C29.1094 22.265 28.2952 21.1467 27.2774 20.435C28.0916 21.5533 28.2952 22.265 30.0254 23.2817C29.8219 23.9933 30.6361 24.6033 29.7201 24.705C29.2112 24.1967 30.1272 23.6883 29.4148 23.2817C28.9059 22.57 28.4987 22.4683 27.888 22.1633C28.397 22.875 29.8219 23.3833 29.313 24.6033C29.6183 25.01 29.4148 25.2133 29.2112 25.1117C28.8041 24.705 29.2112 24.2983 29.0076 23.6883C28.7023 23.0783 28.2952 22.9767 27.888 22.9767C27.888 23.79 29.0076 23.2817 28.8041 24.1967C29.0076 24.6033 28.8041 24.8067 28.6005 24.705C28.4987 23.9933 28.7023 23.8917 27.888 23.6883C27.9898 24.1967 27.4809 25.2133 28.2952 25.2133C28.8041 25.4167 29.313 25.01 29.4148 25.62C30.1272 24.1967 31.9593 23.8917 32.57 22.875C32.8753 22.6717 33.0789 22.7733 33.0789 22.9767C32.57 24.705 30.5344 25.4167 29.4148 27.145C27.888 26.9417 23.2061 27.8567 26.5649 25.4167C26.4631 24.2983 26.4631 23.2817 26.4631 22.265C26.2595 21.35 25.5471 21.045 25.2417 20.5367" fill="#A08069"/>
<path d="M19.2366 5.89666C20.1527 5.79499 20.9669 5.79499 21.5776 6.30333C23.9186 8.64166 25.7506 10.37 27.9898 12.81C28.4987 12.9117 28.7023 12.9117 28.8041 12.81C28.3969 12.505 28.6005 12.0983 28.6005 11.6917C28.1934 11.7933 27.6845 11.7933 27.3791 11.6917C25.4453 9.86166 23.6132 7.52333 21.883 6.40499C21.7812 5.89666 22.2901 5.79499 22.3919 6.20166C24.1221 7.93 25.9542 9.65833 27.5827 11.3867C28.1934 11.59 28.3969 11.3867 28.4987 11.0817C28.8041 11.6917 28.6005 12.0983 29.0076 12.505C29.1094 11.7933 29.1094 11.0817 29.1094 10.37C28.7023 10.675 28.1934 11.3867 27.5827 11.1833C27.4809 10.2683 28.6005 10.1667 28.3969 9.45499C27.9898 9.75999 27.5827 10.37 27.0738 10.4717C26.5649 9.55666 27.5827 9.455 27.6845 8.845C27.1756 9.04833 26.8702 9.65833 26.1578 9.65833C25.8524 8.84499 26.6667 8.74333 26.7685 8.235C26.2595 8.33666 26.056 8.94666 25.5471 8.94666C25.0382 8.13333 25.9542 8.03166 25.6489 7.52333C25.4453 7.82833 25.0382 8.33666 24.7328 8.13333C24.3257 7.72666 24.9364 7.42166 24.7328 7.21833C24.4275 7.42166 24.2239 7.42166 23.9186 7.32C24.0204 6.50666 23.5115 6.70999 23.0025 6.70999C22.9008 6.30333 23.1043 5.99833 23.2061 5.99833C23.715 6.50666 24.631 6.40499 24.0204 7.01499C24.4275 6.91333 24.7328 6.60833 25.14 6.81166C25.7506 7.42166 24.8346 7.42166 24.7328 7.72666C25.3435 7.72666 25.5471 6.91333 26.056 7.32C26.7685 8.03166 25.5471 7.93 25.6489 8.64166C26.2595 8.33666 26.5649 7.32 27.0738 7.93C27.5827 8.64166 26.3613 8.64166 26.3613 9.35333C26.8702 9.14999 27.1756 8.74333 27.5827 8.43833C27.9898 8.43833 28.2952 8.54 28.1934 8.94666C27.7863 9.25166 27.3791 9.65833 27.0738 9.96333C27.6845 9.86166 27.9898 9.45499 28.3969 9.14999C28.7023 9.14999 28.9059 9.14999 28.9059 9.35333C28.9059 10.065 28.0916 10.1667 27.7863 10.8783C28.3969 10.675 28.8041 10.065 29.2112 9.75999C29.4148 10.98 29.4148 11.895 29.4148 12.9117C28.9059 13.0133 28.4987 13.0133 28.0916 13.0133C26.6667 10.8783 24.631 10.5733 23.1043 9.04833C22.2901 8.54 21.4758 8.74333 20.7634 8.64166C20.8651 7.42166 19.1349 7.01499 19.0331 6.09999" fill="#A08069"/>
<path d="M30.5343 26.9417L30.7379 26.7383C31.6539 27.3483 29.6183 27.8567 29.4147 28.5683C28.4987 27.8567 27.4809 28.2633 26.6667 28.06C27.2773 28.7717 28.9058 28.06 29.4147 29.0767C28.7023 30.195 27.888 28.8733 26.8702 29.3817C26.3613 29.89 25.8524 30.195 25.5471 30.6017C26.5649 32.94 25.1399 34.5667 25.5471 36.8033C25.7506 34.77 26.6667 32.7367 25.7506 30.805C26.2595 30.2967 26.5649 29.9917 26.7684 29.6867C27.5827 29.6867 28.4987 29.3817 28.7023 30.0933C27.888 30.3983 27.9898 29.585 26.972 29.9917C26.5649 30.195 26.3613 30.3983 26.1577 30.6017C26.1577 31.9233 26.6667 32.7367 26.6667 33.855C25.8524 34.6683 26.1577 36.3967 25.9542 37.3117C25.4453 37.1083 24.631 37.1083 23.6132 37.21C23.2061 37.515 22.9007 37.82 22.5954 38.0233C23.3079 37.7183 24.1221 37.21 25.2417 37.515C25.5471 37.9217 25.5471 38.3283 25.3435 38.5317C24.631 38.125 23.9186 38.735 23.6132 38.6333C23.715 37.4133 24.8346 38.8367 25.2417 37.7183C24.631 37.6167 24.2239 37.6167 23.8168 37.6167C23.2061 37.9217 23.3079 38.43 23.1043 38.6333C22.6972 38.3283 22.2901 38.6333 21.9847 38.43C22.5954 37.82 22.9007 37.3117 23.3079 36.905C24.1221 36.905 24.631 36.905 25.2417 36.905C25.2417 35.8883 25.2417 35.075 25.2417 34.16C22.9007 34.0583 20.5598 34.0583 18.2188 34.0583C17.6081 33.55 17.201 33.1433 16.7939 32.7367C15.4707 32.635 14.4529 32.635 13.4351 32.635C13.5369 32.94 15.6743 33.0417 16.4885 32.7367C16.7939 33.4483 17.6081 33.855 18.0153 34.3633C20.458 34.2617 22.799 34.5667 24.9364 34.2617C25.1399 34.465 25.1399 34.5667 25.0382 34.77C22.6972 34.6683 20.3562 34.77 18.2188 34.6683C17.4046 34.2617 16.9974 33.4483 16.285 33.3467C15.1654 33.245 14.1476 33.1433 13.2315 33.245C12.9262 33.0417 12.9262 32.8383 12.6208 32.8383C13.6387 32.025 15.2672 32.4317 16.4885 32.2283C17.201 32.8383 17.6081 33.3467 18.117 33.7533C20.6616 33.7533 23.0025 33.7533 25.2417 33.7533C25.9542 32.7367 24.9364 31.9233 25.3435 30.6017C24.8346 29.89 24.2239 29.6867 23.8168 29.3817C24.631 28.5683 24.5292 29.9917 25.2417 30.0933C25.9542 29.7883 24.0203 29.585 24.9364 28.975C25.5471 29.1783 25.2417 29.585 25.7506 29.7883C26.056 29.7883 25.0382 29.28 25.7506 28.975C26.056 29.0767 26.1577 29.1783 26.056 29.4833C26.6667 28.7717 27.9898 28.975 28.7023 29.28C28.8041 29.0767 28.7023 28.7717 28.6005 28.7717C27.6845 28.7717 27.0738 28.7717 26.4631 28.7717C26.2595 28.4667 26.2595 28.2633 26.1577 27.9583C27.2773 28.06 28.4987 27.6533 29.1094 28.2633C29.7201 27.9583 30.3308 27.5517 30.4326 27.145" fill="#A08069"/>
<path d="M14.6565 39.65L14.7583 39.5483C16.1832 39.7517 18.1171 39.7517 19.542 39.5483C19.9491 40.4633 21.0687 41.0733 21.5776 41.8867C21.5776 41.0733 22.4937 40.6667 22.9008 40.0567C22.1883 39.5483 21.883 40.6667 21.2723 40.87C20.6616 40.565 20.458 40.1583 20.0509 39.955C20.6616 39.7517 21.0687 39.65 21.3741 39.4467C21.883 39.7517 21.6794 40.0567 21.4758 40.0567C21.0687 40.1583 21.0687 39.8533 20.6616 39.955C20.7634 40.1583 20.8652 40.26 21.0687 40.4633C21.7812 39.7517 22.4937 39.5483 23.5115 39.7517C23.1043 40.3617 22.5954 40.6667 22.1883 41.0733C21.6794 42.395 23.0026 42.9033 23.3079 43.615C22.3919 43.92 22.0865 43.5133 21.883 43.1067C21.6794 43.5133 21.4758 43.8183 21.2723 43.92C20.5598 43.2083 21.3741 43.2083 21.6794 43.005C22.0865 43.1067 22.2901 43.615 22.799 43.4117C21.5776 42.2933 20.5598 40.6667 19.2367 40.0567C19.7456 40.6667 20.5598 41.48 21.2723 42.1917C21.0687 43.2083 19.9491 42.9033 19.9491 43.8183C19.2367 43.615 18.4224 43.8183 17.7099 43.7167C18.3206 43.1067 17.8117 42.7 17.9135 42.09C18.7278 42.2933 18.3206 43.005 18.2188 43.31C18.9313 43.615 19.4402 43.4117 19.8473 43.1067C19.2367 43.2083 18.9313 42.395 18.4224 42.09C17.201 42.7 15.5725 42.1917 14.2494 42.395C14.2494 43.1067 14.7583 43.1067 15.2672 43.31C16.0814 43.5133 16.6921 43.5133 17.0993 43.1067C16.6921 43.005 16.1832 43.005 15.8779 43.31C15.369 43.005 15.5725 42.7 15.7761 42.7C16.285 43.005 17.3028 42.9033 17.5064 42.5983C18.4224 43.31 17.0993 43.1067 17.3028 43.8183C16.3868 43.7167 15.6743 43.7167 14.8601 43.8183C14.4529 43.4117 14.2494 43.005 13.7405 43.005C13.7405 42.4967 13.7405 42.2933 13.8423 42.09C15.369 41.8867 16.7939 42.2933 17.9135 41.785C18.8295 41.5817 19.1349 43.005 20.0509 42.7C19.4402 42.5983 19.1349 41.785 18.5242 41.48C17.3028 42.09 15.5725 41.5817 14.2494 41.785C13.4351 40.565 17.4046 42.2933 18.2188 40.87C19.1349 41.48 19.542 41.9883 20.0509 42.395C19.9491 41.785 19.2367 41.3783 18.9313 40.87C17.5064 40.7683 16.5904 41.3783 15.2672 41.0733C15.369 40.7683 15.2672 40.4633 15.2672 40.26C15.7761 40.26 16.8957 40.6667 17.3028 40.0567C16.5904 39.955 15.9797 39.955 15.4708 39.955C14.9619 40.1583 14.6565 40.1583 14.5547 40.565C14.5547 40.4633 15.1654 40.9717 14.8601 41.2767C14.3512 41.48 14.3512 41.0733 14.1476 41.0733C14.0458 40.565 14.4529 40.26 14.5547 39.8533" fill="#A08069"/>
<path d="M19.3384 5.89668C18.6259 6.91335 21.0687 7.32001 20.5598 8.43835C21.4758 8.64168 22.2901 8.43835 22.9008 8.84501C24.631 10.4717 26.6667 10.7767 27.888 13.0133C28.4987 13.0133 28.8041 12.9117 29.2112 13.0133C29.313 11.895 29.313 10.98 29.313 10.065C28.7023 10.2683 28.3969 10.8783 27.888 11.0817C27.9898 10.2683 28.7023 9.96335 29.0076 9.55668C28.1934 8.74335 27.7862 10.065 27.2773 10.1667C27.1756 9.76001 27.6845 9.25168 27.9898 9.04835C28.1934 8.64168 27.888 8.54001 27.7862 8.43835C27.0738 8.74335 26.8702 9.45501 26.3613 9.55668C26.3613 8.64168 27.1756 8.64168 27.3791 8.13335C26.5649 7.42168 26.2595 8.43835 25.7506 8.64168C25.1399 8.03168 26.4631 8.03168 26.2595 7.52335C25.5471 7.01501 25.3435 7.82835 24.9364 8.03168C24.5292 7.32001 25.4453 7.52335 25.2417 6.91335C23.6132 7.93001 24.3257 5.69335 22.9008 6.30335C24.3257 5.89668 23.5114 8.03168 24.631 7.01501C25.1399 7.42168 24.5292 7.62501 24.7328 8.03168C25.1399 8.23501 25.4453 7.72668 25.5471 7.52335C26.1577 8.03168 25.2417 8.13335 25.4453 8.64168L25.5471 8.84501H25.6488H25.8524C26.056 8.54001 26.3613 8.23501 26.5649 7.93001C26.972 8.74335 26.056 8.74335 26.056 9.45501C26.8702 9.55668 27.0738 8.94668 27.4809 8.64168C27.888 9.45501 26.7684 9.45501 26.972 10.2683C27.6845 10.2683 27.888 9.55668 28.3969 9.25168C28.7023 10.1667 27.5827 10.2683 27.5827 10.8783C28.2952 11.0817 28.7023 10.4717 29.0076 10.1667C29.1094 11.0817 29.2112 11.895 29.2112 12.7083C28.7023 12.2 28.6005 11.7933 28.8041 11.285C28.3969 11.59 28.0916 11.6917 27.6845 11.59C25.8524 9.65835 23.9186 7.93001 22.2901 6.10001C21.5776 6.91335 20.5598 5.49001 19.6438 5.99835" fill="#A08069"/>
<path d="M18.4224 5.69335C18.5242 5.59168 18.9313 5.59168 19.0331 5.69335C19.1349 6.20168 18.8295 6.30335 18.626 6.20168C19.1349 6.91335 19.6438 7.42168 20.0509 7.82835C20.1527 8.33668 20.1527 8.64168 20.2545 8.94668C21.0687 8.94668 21.883 9.04835 22.6972 9.04835C26.056 11.7933 29.5165 13.8267 32.4682 17.2833C32.57 18.0967 31.7557 18.5033 31.3486 19.0117C30.3308 18.4017 30.3308 17.5883 30.4326 16.6733C31.145 15.9617 31.4504 17.2833 32.1629 17.2833C32.0611 18.1983 31.4504 17.4867 31.2468 17.995C30.7379 17.7917 31.0433 17.385 30.8397 17.2833C30.5344 17.8933 30.8397 18.3 31.2468 18.5033C31.654 18.1983 32.3664 17.995 32.3664 17.4867C31.8575 16.8767 31.3486 16.3683 30.9415 15.9617C30.7379 16.6733 30.1272 15.9617 30.0255 16.0633C30.3308 16.775 30.0255 17.5883 30.229 18.1983C30.5344 18.7067 30.8397 19.0117 31.0433 19.215C31.8575 18.7067 33.1807 18.1983 32.8753 17.1817C32.0611 15.7583 30.7379 14.7417 29.8219 13.6233C29.6183 13.2167 29.6183 13.0133 29.6183 12.7083C30.9415 13.6233 31.9593 14.945 33.0789 15.6567C33.5878 15.9617 32.9771 16.5717 32.8753 16.2667C32.0611 14.945 30.7379 14.1317 30.0255 13.2167C30.7379 14.335 31.9593 15.86 33.2825 16.5717C33.2825 17.08 32.9771 17.385 33.1807 17.995C32.4682 18.7067 31.9593 19.215 31.4504 19.825C30.8397 19.3167 30.3308 18.8083 29.9237 18.4017C29.8219 17.69 29.9237 16.9783 29.8219 16.3683C29.1094 15.6567 28.6005 15.1483 28.0916 14.64C27.9898 13.6233 28.6005 13.8267 28.9059 14.1317C26.5649 12.81 24.9364 10.7767 22.799 9.55668C21.883 9.35335 21.0687 9.35335 20.2545 9.35335C20.5598 7.72668 18.3206 7.11668 18.3206 5.99835" fill="#A08069"/>
<path d="M25.2418 20.3333C25.4453 20.9433 26.3614 21.2483 26.3614 22.0617C26.5649 23.2817 26.5649 24.2983 26.5649 25.4167C23.2061 27.8567 28.1934 26.7383 29.313 27.0433C30.5344 26.0267 31.2468 24.8067 32.2647 24.4C32.57 23.79 32.9771 23.2817 32.9771 22.9767C32.2647 23.9933 30.229 24.095 29.5166 25.7217C29.313 25.1117 28.7023 25.5183 28.4988 25.5183C27.3792 25.315 27.7863 24.2983 27.6845 23.79C27.9899 23.6883 28.2952 23.6883 28.6005 23.79C28.4988 24.1967 28.397 24.2983 28.4988 24.6033C28.8041 24.705 28.9059 24.6033 28.8041 24.2983V24.1967V24.095L28.7023 23.79C28.4988 23.5867 27.5827 23.5867 27.7863 22.875C28.397 22.875 28.8041 23.18 29.0077 23.5867C29.1094 24.095 29.2112 24.6033 28.9059 24.8067C29.313 25.1117 29.5166 25.01 29.4148 24.705C29.8219 23.2817 28.0916 22.9767 27.6845 22.1633C29.5166 22.1633 29.7201 24.4 29.9237 24.6033C29.313 22.3667 27.6845 21.8583 27.1756 20.435C28.2952 21.045 29.1094 22.1633 30.1273 22.9767C31.0433 22.7733 31.8575 23.5867 32.1629 23.0783C31.5522 23.0783 30.8397 23.0783 30.3308 22.9767C29.313 22.1633 28.6005 21.4517 27.8881 20.74C27.5827 20.435 27.4809 20.3333 27.1756 20.435L26.972 20.3333H26.8703V20.435C26.972 20.8417 27.4809 21.1467 27.4809 21.655C27.7863 23.0783 27.3792 24.5017 27.7863 25.62C28.397 25.5183 28.7023 25.62 29.2112 25.8233C28.7023 26.23 28.0916 26.0267 27.6845 26.1283C27.0738 24.705 27.2774 23.0783 27.1756 21.7567C26.5649 21.2483 26.2596 20.13 25.3435 20.435" fill="#A08069"/>
<path d="M8.65142 11.59C9.16033 12.2 10.4835 13.115 11.196 14.03C9.66923 14.8433 10.0764 16.165 9.56745 17.08C8.34608 17.385 8.04073 15.86 7.02292 16.47C7.02292 15.4533 8.44786 16.0633 8.85498 16.47C9.16033 15.7583 8.54964 16.165 8.34608 16.0633C8.44786 15.3517 9.16033 16.0633 8.95677 15.25C8.34608 15.555 7.73539 16.0633 6.92114 15.6567C8.04073 14.5383 9.56745 14.335 10.5853 14.2333C9.8728 13.9283 9.05855 14.64 7.93895 14.64C7.63361 13.6233 9.66923 14.8433 9.46567 13.2167C9.66923 12.9117 9.56745 12.81 9.26211 12.9117C8.95677 13.3183 9.56745 13.42 9.26211 13.6233C8.95677 14.1317 8.7532 14.1317 8.34608 14.03C8.54964 13.6233 8.7532 12.6067 8.2443 12.3017C7.83717 13.115 7.1247 13.9283 6.6158 14.4367C7.22649 14.5383 7.22649 13.42 8.04073 13.0133C8.54964 12.6067 8.34608 13.3183 8.44786 13.42C7.53183 14.1317 7.73539 15.4533 6.51402 15.6567C6.41224 16.0633 6.81936 16.0633 6.6158 16.3683L6.81936 16.47H6.92114H7.02292C8.14252 16.0633 8.34608 17.5883 9.36389 17.1817C10.2799 16.2667 9.8728 14.8433 11.3995 14.335C12.3155 14.7417 12.4173 15.555 12.2138 16.47C12.5191 16.9783 13.028 17.2833 13.2316 17.7917C13.4351 18.1983 13.4351 18.4017 13.3334 18.5033C12.5191 17.8933 11.9084 17.2833 11.2977 16.6733C11.5013 15.6567 11.7049 15.555 11.3995 14.7417C10.8906 15.25 10.2799 15.86 10.5853 16.775C11.196 17.7917 12.6209 18.3 12.6209 19.4183C10.7888 20.2317 9.66923 19.6217 7.83717 19.52C7.1247 19.825 7.93895 21.045 7.02292 20.9433C6.6158 20.3333 7.1247 19.6217 7.1247 19.0117C8.65142 18.605 9.8728 19.3167 10.7888 19.4183C10.7888 18.7067 10.4835 18.605 10.1781 18.4017C9.36389 18.0967 8.44786 18.5033 7.93895 17.8933C7.32827 17.8933 7.02292 18.3 6.71758 18.5033C6.71758 18.1983 6.71758 17.8933 7.22649 17.4867C8.34608 17.69 9.36389 17.8933 10.5853 17.69C11.5013 18.0967 11.7049 19.6217 12.3155 19.1133C11.7049 18.8083 11.2977 18.1983 10.9924 17.8933L10.7888 17.7917L10.5853 17.69C8.95677 18.3 7.63361 16.47 6.51402 17.995C6.10689 18.1983 6.71758 18.4017 6.41224 18.8083C7.02292 18.7067 7.22649 18.0967 7.63361 17.8933C8.54964 18.8083 10.1781 17.69 10.687 19.0117C9.77101 19.1133 8.14252 18.4017 6.92114 19.1133C7.02292 20.0283 6.31045 20.3333 6.51402 21.045C6.81936 21.2483 7.02292 20.8417 7.43005 21.045C7.43005 21.4517 7.1247 21.7567 6.92114 21.4517C6.81936 22.1633 6.92114 22.7733 7.22649 23.0783C8.2443 22.265 9.16033 22.9767 9.97458 23.3833C9.36389 22.9767 7.73539 22.6717 7.43005 21.8583C7.43005 21.5533 7.53183 21.4517 7.43005 21.1467C7.53183 20.5367 7.32827 20.13 7.63361 19.7233C9.77101 19.9267 10.7888 20.13 12.6209 19.52C12.8244 18.4017 11.2977 17.7917 10.7888 16.8767C10.687 16.2667 10.3817 15.555 10.9924 15.3517C11.2977 15.555 10.7888 16.165 11.0942 16.6733C11.9084 17.4867 12.6209 18.1983 13.2316 18.8083C13.4351 19.52 13.3334 19.825 13.3334 20.2317C12.0102 21.655 10.8906 22.9767 9.66923 24.1967C8.95677 23.5867 8.14252 23.5867 7.32827 23.6883C7.32827 23.8917 7.22649 24.1967 7.32827 24.4C8.34608 23.6883 8.85498 24.8067 9.36389 25.2133C10.9924 23.5867 12.5191 22.265 13.944 20.8417C13.944 19.215 14.0458 17.7917 13.944 16.3683C13.3334 15.9617 13.5369 15.3517 13.5369 14.7417C12.6209 13.9283 11.7049 12.9117 11.2977 12.3017C11.8066 13.0133 12.7227 13.9283 13.3334 14.64C14.0458 16.5717 13.944 18.5033 13.8423 20.5367C12.3155 22.0617 10.9924 23.5867 9.56745 25.01C8.85498 24.4 8.34608 24.095 7.53183 23.9933C8.04073 23.5867 8.95677 23.6883 9.26211 24.4C10.7888 23.0783 12.112 21.7567 13.4351 20.5367C13.5369 19.1133 13.4351 17.8933 13.5369 16.775C13.028 14.8433 12.0102 13.725 10.687 12.6067C10.9924 12.2 11.0942 12.0983 11.2977 11.9967C12.0102 12.7083 12.8244 13.2167 13.2316 13.9283C13.5369 14.1317 13.6387 14.03 13.5369 13.725C12.8244 13.5217 12.2138 12.4033 11.5013 11.9967C11.0942 11.895 10.8906 12.3017 10.5853 12.4033C11.196 13.3183 12.0102 14.1317 12.7227 14.8433C12.3155 16.0633 13.7405 16.47 13.3334 17.4867C12.8244 17.08 12.6209 16.8767 12.3155 16.5717C12.3155 15.9617 12.3155 15.555 12.3155 15.1483C11.196 13.725 9.56745 12.7083 9.05855 11.4883" fill="#A08069"/>
<path d="M14.3511 26.0267C13.944 26.23 14.1476 26.535 14.3511 26.7383C12.9262 27.0433 12.2137 28.67 11.1959 29.28C10.8906 29.28 10.687 29.0767 10.5852 28.8733C10.9923 28.4667 11.3995 29.1783 11.603 28.5683C11.0941 28.1617 10.8906 28.8733 10.3817 28.5683C10.5852 28.975 10.8906 29.28 11.0941 29.585C12.0102 28.7717 12.8244 27.9583 13.6387 27.2467C14.5547 27.2467 15.3689 26.9417 16.0814 27.2467C15.4707 28.06 14.4529 27.6533 13.7404 27.8567C12.8244 28.4667 12.3155 29.28 11.603 29.6867C11.8066 30.195 11.7048 30.195 12.0102 31.11C13.3333 30.3983 14.9618 31.0083 16.285 30.7033C16.4885 29.7883 16.3867 28.8733 16.3867 27.9583C16.285 27.2467 15.7761 26.84 15.1654 27.0433C16.0814 26.0267 14.2493 25.8233 15.1654 26.84C14.0458 27.2467 14.6565 26.4333 14.5547 26.1283" fill="#A08069"/>
<path d="M17.3028 6.10001L17.4046 6.20167C17.8117 6.91334 18.7278 7.52334 19.2367 8.23501C19.542 8.64167 19.542 9.25167 19.4402 9.55667C20.5598 9.45501 21.6794 9.86167 22.5954 9.45501C23.9186 11.4883 26.2596 11.59 27.4809 13.9283C27.5827 15.0467 28.9059 15.555 29.4148 16.47C29.6183 17.1817 29.6183 17.7917 29.6183 18.4017C30.1273 19.0117 30.4326 19.3167 30.8397 19.7233C31.8575 20.2317 32.6718 18.8083 32.9771 18.3C33.2825 18.3 33.5878 18.4017 33.5878 18.5033C32.57 19.0117 32.0611 20.13 31.1451 20.5367C30.7379 19.7233 29.8219 19.3167 29.313 18.5033C29.313 17.7917 29.313 17.2833 29.313 16.775C27.2774 15.1483 27.2774 12.9117 24.9364 11.6917C23.715 11.895 23.3079 10.1667 22.2901 10.065C20.2545 9.86167 18.4224 9.86167 16.5904 9.86167C15.8779 8.84501 13.1298 7.72667 14.453 6.60834C14.9619 7.52334 15.7761 8.03167 16.285 8.74334C16.8957 9.04834 17.7099 9.15001 18.0153 8.74334C18.5242 9.04834 18.5242 9.25167 18.2189 9.35334C17.7099 9.15001 16.9975 9.15001 16.6921 9.55667C16.0814 8.64167 15.1654 7.72667 14.453 7.32001C14.9619 8.03167 15.7761 8.84501 16.4886 9.55667C17.201 9.55667 17.8117 9.55667 18.4224 9.55667C18.5242 9.25167 18.5242 8.94667 18.626 8.74334C17.8117 7.82834 17.201 7.21834 16.5904 6.60834C16.5904 6.30334 16.6921 6.20167 16.7939 6.10001" fill="#A08069"/>
<path d="M19.9491 44.7333L20.1527 44.53C20.6616 45.0383 21.6794 44.4283 21.9847 45.3433C21.7812 44.4283 23.3079 45.0383 23.6132 44.53C23.5115 45.5467 23.8168 46.055 23.9186 46.97C22.799 46.2583 21.5776 46.97 20.5598 46.665C21.9847 46.7667 23.0026 47.58 24.4275 47.275C24.4275 46.1567 24.4275 46.2583 24.4275 44.835C25.14 45.8517 25.2417 46.5633 25.0382 47.4783C23.715 47.885 22.1883 47.275 20.7634 47.1733C20.2545 46.97 19.8473 46.5633 20.458 46.4617C21.2723 46.4617 21.9847 46.4617 22.6972 46.4617C22.3919 45.8517 22.0865 45.5467 21.6794 45.2417C21.0687 46.1567 20.3562 46.055 19.7456 46.2583C19.9491 47.1733 20.9669 47.58 20.8651 48.495C21.0687 48.9017 20.7634 48.9017 20.6616 49.0033C20.7634 48.0883 20.2545 47.4783 19.4402 46.97C19.2366 45.445 20.9669 46.1567 21.1705 45.14C21.0687 45.0383 20.8651 45.0383 20.5598 45.0383C19.8473 45.2417 19.542 45.75 19.2366 46.1567C18.9313 47.3767 20.6616 47.7833 20.2545 49.0033C21.6794 49.3083 22.4936 48.0883 23.715 48.3933C22.799 48.3933 22.1883 48.0883 21.5776 47.7833C21.6794 48.0883 21.4758 48.2917 21.3741 48.3933C20.6616 48.19 20.9669 47.885 21.1705 47.6817C22.3919 48.19 23.9186 47.7833 24.9364 47.9867C23.3079 48.6983 22.2901 49.0033 20.458 49.5117C19.9491 47.6817 17.4046 46.2583 20.0509 44.9367" fill="#A08069"/>
<path d="M14.6565 39.5483C14.5547 40.0567 14.3512 40.565 14.0458 40.9717C14.3512 40.9717 14.3512 41.3783 14.6565 41.175C14.8601 40.6667 14.4529 40.7683 14.3512 40.7683C14.5547 40.1583 14.9619 40.0567 15.1654 39.8533C15.9797 39.8533 16.5903 39.8533 17.201 39.8533C17.4046 40.0567 17.0993 40.1583 17.201 40.3617C16.3868 40.565 15.7761 40.26 15.5725 40.1583C15.2672 40.4633 15.5725 40.7683 15.1654 40.87C16.5903 41.2767 17.5064 40.6667 18.626 40.6667C19.2367 41.3783 20.1527 41.785 20.2545 42.395C19.542 42.09 19.1349 41.5817 18.626 41.175C13.028 41.5817 13.028 41.9883 18.9313 41.2767C19.0331 41.6833 19.4402 42.395 19.9491 42.5983L20.2545 42.7V42.8017H20.0509C19.2367 43.005 18.9313 42.1917 18.4224 41.8867C17.201 42.4967 15.4708 41.9883 14.1476 42.1917C13.944 42.4967 13.7405 42.4967 13.8423 42.8017C14.3512 42.8017 14.5547 43.4117 14.6565 43.7167C15.6743 43.615 16.3868 43.615 16.9975 43.8183C16.9975 43.005 18.2188 43.31 17.8117 42.7C17.3028 43.005 16.285 43.1067 15.9797 42.7C15.5725 42.8017 15.6743 42.9033 15.6743 43.1067C16.1832 42.9033 16.6921 42.9033 17.3028 43.005C16.7939 43.5133 16.1832 43.615 15.369 43.5133C14.7583 43.31 14.1476 43.1067 14.1476 42.395C15.4708 42.09 17.201 42.7 18.2188 41.785C18.9313 42.2933 19.2367 43.1067 20.0509 42.9033C19.542 43.4117 19.0331 43.7167 18.2188 43.5133C18.1171 43.1067 18.626 42.395 18.2188 42.09C18.1171 42.8017 18.3206 43.2083 17.7099 43.615C18.5242 43.7167 19.2367 43.5133 19.6438 43.7167C19.8473 42.7 21.0687 43.1067 21.2723 42.2933C20.7634 41.48 18.9313 40.4633 19.4402 40.0567C20.7634 41.175 21.883 42.2933 22.799 43.2083C22.3919 43.8183 22.0865 43.2083 21.883 43.005C21.4758 43.4117 20.8652 43.1067 21.0687 43.615C21.5776 43.92 21.4758 43.31 21.5776 43.1067C22.1883 43.4117 22.3919 43.8183 23.0026 43.615C22.6972 42.9033 21.6794 42.395 22.0865 41.2767C22.5954 40.7683 22.9008 40.26 23.3079 39.8533C22.5954 39.7517 21.883 39.7517 21.4758 40.565C20.9669 40.565 20.7634 40.1583 20.458 40.0567C21.0687 39.65 21.4758 40.565 21.6794 39.65C21.0687 39.7517 20.7634 39.8533 20.2545 39.7517C20.458 40.1583 20.6616 40.4633 20.9669 40.6667C21.883 40.565 22.2901 39.4467 23.1043 39.955C22.4937 40.6667 21.6794 41.175 21.883 42.09C21.0687 41.175 19.9491 40.565 19.6438 39.7517C18.9313 39.955 18.0153 39.7517 17.4046 39.8533C16.5903 39.8533 15.9797 39.8533 15.4708 39.8533C15.0636 39.7517 15.0636 39.5483 14.9619 39.65" fill="#A08069"/>
<path d="M14.2493 26.1283L14.3511 26.0267C14.86 26.0267 14.7582 26.535 14.4529 26.7383C14.5547 26.6367 15.6743 25.2133 15.2671 26.9417C15.8778 26.7383 16.3867 27.3483 16.3867 27.8567C16.5903 28.8733 16.4885 29.7883 16.4885 30.6017C15.0636 31.11 13.4351 30.5 12.2137 31.2117C11.9084 30.9067 11.603 30.7033 11.603 30.5C12.3155 29.6867 12.8244 29.1783 13.3333 28.67C14.3511 28.5683 15.0636 28.5683 15.8778 28.5683C15.9796 29.1783 15.9796 29.6867 16.285 30.0933C16.0814 30.5 15.8778 30.3983 15.7761 30.5C15.5725 29.9917 16.0814 28.7717 15.4707 28.67C14.86 29.4833 15.9796 30.0933 15.1654 30.5C14.6565 29.9917 15.5725 28.67 14.5547 28.67C14.1476 29.4833 15.1654 30.2967 14.3511 30.5L14.1476 30.3983L14.0458 30.2967V29.9917C14.2493 29.7883 14.4529 28.4667 13.8422 28.7717C13.7404 29.28 13.5369 29.7883 14.0458 29.9917C13.8422 30.3983 13.5369 30.6017 13.3333 30.2967C13.4351 29.7883 13.5369 29.4833 13.4351 28.975C13.028 29.28 12.8244 29.4833 12.6208 29.6867C12.3155 30.0933 12.2137 30.195 12.1119 30.3983C12.2137 30.6017 11.9084 30.805 12.1119 30.805C12.8244 30.5 11.9084 30.195 12.5191 29.9917C12.9262 29.7883 13.1297 30.2967 12.9262 30.5C13.944 30.5 15.0636 30.5 16.1832 30.5C16.285 29.6867 16.3867 28.7717 16.285 27.9583C15.3689 28.1617 14.4529 27.9583 13.7404 28.06C12.5191 28.5683 12.1119 30.0933 11.3995 30.195C11.9084 29.3817 12.8244 28.5683 13.4351 27.755C14.3511 27.5517 15.8778 28.06 16.0814 27.3483C15.0636 27.2467 14.4529 27.2467 13.8422 27.2467C12.8244 28.06 12.0102 28.8733 11.2977 29.6867C10.8906 29.3817 10.5852 29.1783 10.3817 28.7717C10.4834 28.365 11.0941 28.67 11.1959 28.1617C11.603 28.365 11.8066 28.67 11.5012 28.8733C11.0941 29.0767 10.9923 28.5683 10.687 28.7717C10.7888 28.975 10.9923 29.1783 10.9923 29.3817C12.2137 28.5683 12.9262 27.0433 14.0458 26.84C14.2493 26.535 13.8422 26.535 14.0458 26.23" fill="#A08069"/>
<path d="M30.5343 26.84C30.5343 27.45 29.8219 27.9583 29.4147 28.365C28.4987 27.755 27.2773 28.1617 26.4631 27.9583C26.2595 28.2633 26.2595 28.365 26.3613 28.5683C27.0738 28.67 27.888 28.5683 28.6005 28.67C28.8041 28.975 28.9058 29.0767 28.8041 29.3817C27.9898 29.0767 26.6667 28.8733 26.2595 29.585C25.9542 29.3817 26.056 29.1783 25.9542 28.975C25.1399 29.4833 26.4631 29.585 25.8524 29.89C25.2417 29.6867 25.3435 29.28 25.1399 28.975C24.4275 29.585 26.2595 29.89 25.3435 30.3983C24.5292 29.9917 24.631 28.975 24.1221 29.0767C24.4275 29.4833 24.9364 29.9917 25.2417 30.5L25.4453 30.7033V30.805C25.1399 32.025 26.2595 32.94 25.5471 33.855C23.0025 33.855 20.6616 33.855 18.3206 33.855C17.6081 33.4483 17.201 32.94 16.6921 32.5333C15.2672 32.4317 13.7404 32.2283 12.6208 32.5333C12.9262 32.7367 13.1298 33.0417 13.028 33.1433C14.1476 33.0417 15.1654 33.1433 16.0814 33.0417C16.9974 33.3467 17.4046 34.16 17.9135 34.5667C20.458 34.5667 23.2061 34.6683 25.2417 34.5667C22.799 34.6683 20.458 34.3633 18.3206 34.5667C17.6081 33.9567 16.7939 33.55 16.6921 32.94C15.5725 33.245 14.3511 32.8383 13.3333 33.0417C13.028 32.8383 13.2315 32.7367 13.1298 32.5333C14.4529 32.5333 15.4707 32.5333 16.5903 32.5333C17.201 33.0417 17.6081 33.4483 18.117 33.9567C20.5598 33.9567 22.9007 33.9567 25.1399 33.9567C25.4453 34.9733 25.3435 35.8883 25.3435 36.7017C24.7328 37.0067 24.1221 37.0067 23.6132 37.0067C23.0025 37.4133 22.5954 37.82 22.1883 38.125C23.4097 39.2433 23.4097 36.8033 25.0382 37.7183C25.2417 38.8367 23.715 37.82 23.5114 38.3283C24.0203 38.5317 24.7328 38.125 25.1399 38.6333C25.3435 38.2267 25.3435 38.0233 25.4453 37.6167H25.2417H25.0382C24.0203 37.3117 23.4097 37.82 22.799 38.125C23.0025 37.6167 23.2061 37.4133 23.4097 37.1083C24.4275 37.1083 25.5471 36.905 25.7506 37.515C26.056 36.3967 25.7506 34.6683 26.4631 33.9567C26.5649 32.7367 26.056 31.9233 25.9542 30.9067C26.3613 30.3983 26.5649 30.195 26.7684 29.89C27.3791 29.89 27.6845 29.7883 28.0916 29.89C28.1934 30.6017 26.7684 29.89 26.6667 30.805C26.6667 31.72 26.972 32.4317 26.8702 32.94C27.1756 32.1267 26.2595 31.6183 26.6667 30.805C27.0738 30.3983 27.4809 30.195 27.888 30.3983C27.3791 30.7033 26.4631 31.5167 27.1756 31.8217C27.5827 31.415 27.1756 31.415 27.1756 31.2117C28.0916 31.11 27.888 30.0933 28.4987 30.2967C28.3969 29.4833 27.5827 29.7883 27.0738 29.6867C26.5649 30.0933 26.3613 30.2967 26.056 30.5C26.7684 32.7367 25.8524 34.8717 25.7506 37.0067H25.5471L25.4453 36.7017C25.0382 34.465 26.4631 32.94 25.2417 30.805C25.7506 30.195 26.3613 29.7883 26.6667 29.28C27.888 28.7717 28.7023 29.9917 29.1094 29.28C29.4147 28.67 28.9058 28.8733 28.7023 28.7717C27.888 28.4667 26.8702 28.8733 26.3613 28.365C27.2773 28.06 28.4987 27.755 29.0076 28.4667C29.7201 27.8567 31.145 27.3483 30.8397 26.9417" fill="#A08069"/>
<path d="M18.2188 21.5533C19.3384 21.96 21.0687 23.485 20.7634 24.6033C21.0687 23.3833 19.7455 22.6717 19.1349 21.7567C19.9491 21.5533 20.3562 22.7733 20.7634 23.0783C20.7634 22.4683 20.1527 22.265 19.8473 21.7567C21.374 21.2483 21.5776 23.0783 21.6794 23.9933C20.2544 25.62 19.1349 27.0433 18.4224 28.8733C18.0153 28.1617 18.0153 27.5517 18.0153 26.9417C18.8295 26.1283 19.542 25.4167 20.2544 24.8067C20.458 23.3833 18.8295 22.7733 18.4224 21.8583" fill="#A08069"/>
<path d="M15.8779 27.755C16.9975 27.9583 16.1832 29.6867 16.4886 30.5C15.0636 30.6017 13.944 30.6017 12.8244 30.6017C12.9262 30.3983 13.028 29.7883 12.5191 29.9917C12.8244 29.4833 13.1298 29.1783 13.3333 28.8733C13.8423 29.585 13.028 30.0933 13.5369 30.3983C13.7405 29.89 13.4351 29.3817 13.6387 28.7717C13.8423 28.5683 13.944 28.5683 14.1476 28.67C14.6565 29.28 13.8423 30.195 14.3512 30.3983C14.4529 29.7883 14.3512 29.3817 14.4529 28.7717C14.6565 28.5683 14.7583 28.5683 14.9618 28.67L15.1654 28.7717L15.0636 28.975C15.369 29.4833 14.6565 29.9917 15.0636 30.3983C15.369 29.89 14.8601 29.4833 15.1654 28.8733C15.2672 28.5683 15.4708 28.67 15.5725 28.5683C16.0814 29.28 15.369 30.195 15.8779 30.3983C15.9797 29.7883 15.8779 29.28 15.9797 28.67H15.8779L15.5725 28.5683C15.4708 28.67 15.2672 28.5683 15.1654 28.67C14.7583 28.67 14.5547 28.67 14.2494 28.5683C13.944 28.67 13.7405 28.5683 13.6387 28.67C12.9262 29.28 12.4173 29.6867 12.0102 30.195C12.0102 29.1783 13.028 28.67 13.4351 27.9583C14.3512 27.9583 14.9618 27.9583 15.6743 27.9583" fill="#A08069"/>
<path d="M18.5242 5.69333C17.9135 7.015 20.7633 7.52333 19.9491 9.15C21.0687 9.25166 21.8829 9.25166 22.6972 9.25166C24.9364 10.675 26.6667 12.81 28.9058 13.9283C28.7023 14.335 28.0916 13.42 28.0916 14.4367C28.7023 15.1483 29.2112 15.6567 29.8219 16.2667C30.0254 16.9783 29.9237 17.69 30.0254 18.1983C30.4326 18.8083 30.8397 19.215 31.145 19.52C31.9593 19.215 32.4682 18.7067 32.9771 18.1983C32.8753 17.385 33.1807 16.9783 33.3842 16.775C31.9593 15.86 30.6361 14.335 29.8219 13.3183C30.8397 13.9283 31.9593 14.945 32.7735 15.9617C32.9771 16.47 33.486 15.9617 33.1807 15.86C31.8575 14.945 30.9415 13.725 29.8219 12.81C29.9237 14.5383 32.2646 15.4533 32.8753 16.9783C33.2824 18.1983 31.8575 18.8083 31.3486 19.52C30.8397 19.1133 30.4326 18.7067 30.229 18.5033C29.9237 17.5883 30.229 16.775 29.9237 16.165C30.229 15.7583 30.6361 16.5717 30.7379 15.7583C31.4504 16.3683 31.8575 16.775 32.3664 17.2833C32.4682 17.995 31.6539 18.3 31.4504 18.8083C30.8397 18.3 30.4326 17.995 30.6361 17.385C30.9415 17.995 31.5522 17.7917 32.1628 17.5883C31.4504 17.385 31.145 16.165 30.5343 16.47C30.4326 17.5883 30.4326 18.3 31.145 18.7067C31.6539 18.5033 32.4682 18.0967 32.57 17.4867C29.5165 13.9283 26.056 11.895 22.799 9.25166C21.8829 9.04833 21.0687 9.15 20.3562 9.15C20.7633 7.42166 17.5064 6.60833 19.1349 5.69333" fill="#A08069"/>
<path d="M25.5471 20.435C26.056 20.2317 26.6667 21.1467 27.0738 21.5533C27.1756 23.0783 27.1756 24.2983 27.1756 25.62C26.8702 26.1283 26.3613 25.925 26.3613 26.4333C27.0738 26.6367 26.6667 26.1283 26.972 26.0267C27.5827 26.4333 28.3969 26.0267 28.9058 26.23C29.8219 25.315 30.6361 24.705 31.3486 23.9933C31.7557 23.79 32.2646 23.8917 32.3664 23.6883C32.4682 23.79 32.57 23.9933 32.4682 24.095C31.145 24.705 30.4326 26.1283 29.4147 26.84C27.9898 26.84 26.8702 26.9417 25.6488 26.84C25.7506 26.3317 26.1577 26.0267 26.4631 25.62C26.6667 24.2983 26.4631 22.875 26.7684 21.7567C26.3613 21.5533 25.9542 21.045 25.6488 20.74" fill="#A08069"/>
<path d="M15.7761 44.53C16.285 44.835 17.4046 44.835 17.9135 44.53C17.8117 45.6483 16.4885 44.53 15.8778 45.3433L15.6743 45.445L15.7761 45.3433C17.201 45.6483 18.2188 45.2417 19.2366 44.6317C19.1348 45.6483 18.117 45.8517 18.5242 46.97C19.6437 47.58 19.542 48.8 20.1527 49.6133C21.1705 49.715 21.8829 49.715 22.1883 49.105C22.799 49.8167 21.7811 49.8167 22.0865 50.4267C21.374 50.7317 20.6616 50.1217 20.1527 50.7317C18.6259 49.3083 18.4224 47.1733 16.3867 46.4617C16.3867 45.9533 16.6921 45.75 16.9974 46.055C18.117 47.3767 19.1348 48.495 19.6437 49.9183C20.3562 50.2233 20.8651 50.2233 21.374 50.1217C22.4936 49.8167 20.7633 50.02 20.458 49.9183C19.4402 48.9017 18.8295 47.6817 18.117 46.7667C17.9135 46.4617 17.6081 46.97 17.3028 46.4617C18.0152 46.1567 18.4224 46.1567 18.9313 45.14C18.117 46.055 16.5903 45.5467 15.3689 45.75C15.2672 45.3433 15.6743 45.2417 15.6743 44.9367" fill="#A08069"/>
<path d="M13.028 7.72665H13.1298C14.1476 8.74332 15.0636 9.65832 16.0814 10.675C17.6081 10.7767 19.2366 10.37 20.1527 11.4883C20.7634 10.5733 21.5776 10.8783 22.1883 10.5733C22.5954 11.285 23.3079 11.7933 23.8168 11.9967C23.8168 12.505 23.5114 12.505 23.4097 12.4033C23.0025 11.59 22.0865 10.98 21.374 10.98C20.8651 11.0817 20.7634 11.285 20.5598 11.3867C19.2366 10.98 17.8117 10.8783 16.1832 11.0817C14.9618 10.065 13.944 8.94665 13.028 8.03165C13.5369 8.94665 14.5547 9.96332 15.369 10.7767C16.4885 11.4883 17.7099 11.285 18.117 12.4033C19.9491 13.115 21.2723 11.4883 22.3919 12.2C22.5954 12.505 22.6972 12.7083 22.5954 12.81C21.8829 12.9117 21.9847 12.4033 21.8829 12.3017C20.8651 13.2167 19.4402 12.6067 18.3206 12.81C17.7099 12.3017 17.4046 11.9967 16.9975 11.59C16.3868 11.3867 16.1832 11.6917 15.8779 11.7933C14.9618 10.2683 13.028 9.14999 12.4173 7.82832" fill="#A08069"/>
<path d="M14.5547 21.96L14.7583 21.7567C14.86 21.7567 15.0636 22.0617 14.9618 22.1633C13.6387 23.0783 12.7226 24.5017 11.603 25.4167C13.1298 24.6033 14.1476 22.7733 15.7761 22.1633C16.4885 21.96 17.0992 21.96 17.7099 21.96C20.2544 23.3833 20.2544 25.01 17.9135 26.1283C17.5063 25.62 16.8957 25.4167 16.4885 25.1117C17.3028 24.4 17.3028 25.7217 18.0153 25.8233C18.5242 25.2133 19.542 24.705 19.542 23.9933C18.9313 23.3833 18.4224 22.9767 17.8117 22.4683C17.0992 22.3667 16.4885 22.3667 15.9796 22.3667C15.0636 23.8917 13.2315 25.01 12.2137 26.4333C11.5013 26.23 11.0941 27.0433 10.687 26.535C10.9924 25.62 11.3995 26.4333 12.0102 26.1283C13.1298 25.01 14.1476 23.9933 15.1654 22.9767C14.0458 23.2817 13.028 25.4167 11.5013 25.925C12.0102 24.2983 13.6387 23.485 14.3511 22.1633" fill="#A08069"/>
<path d="M13.5369 33.4483C14.3511 33.3467 15.2672 33.4483 16.0814 33.3467C16.7939 34.0583 17.4046 34.465 17.8117 34.9733C19.1348 35.2783 20.8651 34.9733 21.7812 35.1767C20.5598 35.2783 19.1348 35.4817 17.9135 35.38C18.6259 35.8883 20.3562 35.685 21.1705 35.5833C20.3562 36.1933 18.9313 35.8883 17.9135 36.0917C18.4224 36.295 19.542 36.295 20.2544 36.1933C20.6616 36.295 20.6616 36.6 20.5598 36.6C19.542 36.295 18.5242 36.7017 17.7099 36.4983C17.5063 35.99 17.5063 35.4817 17.4046 34.9733C16.9974 34.465 16.6921 34.16 16.285 33.7533C15.3689 33.7533 14.6565 33.7533 13.944 33.7533C13.8422 33.9567 13.5369 34.0583 13.6387 34.2617C14.2494 34.0583 15.1654 34.3633 15.7761 34.16C16.3868 34.5667 16.6921 35.1767 17.0992 35.1767C17.3028 35.4817 17.3028 35.7867 16.9974 35.7867C16.4885 35.4817 16.5903 34.9733 15.9796 34.6683C15.1654 34.6683 14.2494 34.2617 13.6387 34.77C13.4351 34.2617 12.6209 33.855 13.4351 33.4483" fill="#A08069"/>
<path d="M17.201 6.10001C16.9975 6.20167 16.7939 6.30334 16.5903 6.40501C17.3028 7.21834 17.9135 7.82834 18.626 8.54001C18.626 8.94667 18.7277 9.35334 18.7277 9.65834C17.8117 9.65834 17.201 9.65834 16.5903 9.65834C15.6743 8.84501 14.8601 8.13334 14.1476 7.32001C15.1654 7.62501 16.0814 8.54001 16.4885 9.25167C17.0992 8.64167 18.3206 9.96334 18.3206 8.94667C17.7099 9.25167 16.8957 9.15001 16.5903 8.84501C15.7761 8.03167 14.8601 7.62501 14.7583 6.81167C13.4351 7.72667 15.8779 8.84501 16.285 9.76001C18.4224 9.76001 20.2545 9.76001 22.0865 9.76001C23.3079 10.065 23.715 11.7933 24.9364 11.3867C27.2774 12.9117 27.3791 15.0467 29.313 16.47C29.4148 17.2833 29.4148 17.7917 29.4148 18.4017C29.8219 19.3167 30.7379 19.6217 30.9415 20.435C31.9593 20.13 32.4682 19.0117 33.2824 18.7067C32.8753 17.8933 32.0611 20.6383 31.145 19.9267C30.4326 19.4183 30.0254 19.0117 29.6183 18.605C29.5165 17.7917 29.5165 17.1817 29.5165 16.6733C28.8041 15.555 27.4809 15.0467 27.4809 14.03C26.6667 13.0133 25.8524 12.2 25.1399 11.4883C23.9186 11.3867 23.2061 10.2683 22.6972 9.65834C21.6794 9.96334 20.5598 9.55667 19.6438 9.76001C19.3384 9.35334 19.542 8.74334 19.3384 8.33667C18.626 7.52334 17.8117 7.01501 17.4046 6.30334" fill="#A08069"/>
<path d="M20.3562 44.7333C17.7099 46.1567 19.7455 47.4783 20.3562 49.2067C22.2901 48.9017 23.2061 48.5967 24.631 48.2917C23.8168 48.0883 22.2901 48.0883 21.374 47.4783C20.9669 47.885 20.8651 48.19 21.1705 48.2917C21.4758 48.19 21.5776 47.9867 21.2723 47.885C22.1883 48.0883 22.9008 48.2917 23.8168 48.0883C22.5954 48.19 21.7812 49.41 20.6616 49.2067C20.0509 48.2917 19.9491 47.4783 19.0331 47.0717C18.8295 45.9533 19.8473 45.3433 20.3562 45.14C20.8651 45.0383 21.2723 44.835 21.4758 45.0383C20.9669 45.9533 20.0509 45.75 19.542 46.1567C19.4402 47.3767 21.2723 47.7833 20.3562 48.8C21.2723 48.8 20.6616 48.3933 20.6616 48.0883C20.458 47.3767 19.6438 47.0717 19.542 46.5633C20.2545 45.8517 21.0687 46.1567 21.374 45.2417C22.0865 45.445 22.4936 45.8517 22.799 46.2583C21.9847 46.4617 21.2723 46.4617 20.5598 46.4617C20.0509 46.665 20.3562 46.8683 20.5598 46.97C22.1883 47.1733 23.5115 47.6817 25.0382 47.58C25.1399 46.665 25.0382 45.9533 24.7328 45.2417C24.5293 46.4617 24.7328 45.8517 24.8346 47.3767C22.9008 47.6817 21.883 46.97 20.458 47.0717C21.374 46.7667 22.799 46.2583 23.5115 46.8683C23.715 46.055 23.3079 45.445 23.9186 44.835C23.2061 45.14 21.9847 44.53 22.3919 45.445C21.6794 44.53 20.6616 45.14 20.2545 44.6317" fill="#A08069"/>
<path d="M13.944 34.8717C14.5547 34.77 15.1654 34.8717 15.6743 34.77C16.3867 35.2783 16.5903 35.99 16.5903 36.3967C15.2672 36.3967 16.7939 35.4817 15.6743 35.1767C15.1654 35.075 14.6565 34.9733 14.2493 34.9733C14.2493 35.5833 13.6387 35.7867 14.0458 36.295C13.944 35.8883 13.944 35.5833 14.3511 35.4817C14.9618 35.4817 15.1654 35.1767 15.4707 35.075C16.0814 36.6 14.2493 34.8717 14.2493 36.0917C16.0814 36.8033 18.117 37.1083 20.3562 36.8033C21.0687 36.1933 21.5776 35.685 22.1883 35.075C22.9007 34.8717 23.6132 34.9733 24.1221 34.8717C24.9364 35.38 25.0381 35.99 25.2417 36.3967C23.8168 36.905 25.3435 35.4817 24.2239 35.38C23.6132 35.2783 23.1043 35.2783 22.5954 35.2783C21.6794 35.8883 21.1705 36.6 20.5598 37.1083C18.9313 37.1083 17.6081 37.1083 16.285 37.1083C15.7761 36.8033 15.4707 36.0917 14.86 36.295C14.4529 36.295 14.1476 36.6 14.0458 36.905C13.944 36.0917 13.028 35.2783 13.7404 34.9733" fill="#A08069"/>
<path d="M20.0509 14.1317C20.8652 14.1317 21.2723 15.25 21.9848 15.555C21.5776 16.47 20.9669 16.9783 20.458 17.5883C19.6438 16.9783 19.1349 16.47 18.626 15.9617C19.0331 15.25 19.4402 14.8433 19.9491 14.4367" fill="#A08069"/>
<path d="M18.3206 21.655C18.8295 22.57 20.458 23.2817 20.458 24.5017C19.6437 25.4167 18.9313 26.1283 18.3206 26.84C18.2188 27.5517 18.2188 28.1617 18.2188 28.7717C18.9313 26.9417 20.1527 25.62 21.7812 24.095C21.374 23.18 21.4758 21.4517 19.8473 21.7567C20.1527 22.3667 21.1705 22.3667 21.0687 22.9767C20.2544 22.875 20.0509 21.7567 19.1348 21.655C19.7455 22.3667 20.3562 22.9767 20.8651 23.485C20.8651 24.095 21.4758 24.1967 21.0687 24.5017C20.8651 23.5867 19.542 22.4683 18.5242 21.655" fill="#A08069"/>
<path d="M22.4937 35.685L22.3919 35.4817C26.2596 35.5833 21.7812 37.21 21.6794 38.5317C21.2723 38.735 21.0687 38.43 21.1705 38.3283C21.9847 37.9217 22.4937 36.905 23.2061 36.4983C22.1883 36.8033 21.5776 37.7183 20.7634 38.3283C19.4402 38.3283 17.8117 38.735 17.0993 38.43C18.0153 38.43 19.542 38.2267 20.458 38.2267C21.5776 37.21 22.5954 35.7867 24.0204 36.0917C23.2061 35.7867 23.0026 35.8883 22.6972 35.8883C21.7812 36.6 21.1705 37.3117 20.458 37.9217C17.9135 37.9217 16.3868 37.7183 14.4529 38.8367C14.6565 37.515 15.6743 39.04 16.0814 37.7183C17.6082 37.6167 18.9313 37.6167 20.2545 37.6167C21.0687 37.0067 21.6794 36.3967 22.1883 35.7867" fill="#A08069"/>
<path d="M20.1527 14.1317C19.7455 14.7417 19.2366 15.25 18.7277 15.7583C19.2366 16.3683 19.7455 16.9783 20.2544 17.4867C20.8651 16.9783 21.374 16.47 21.7812 15.9617C21.4758 15.25 20.8651 14.7417 20.458 14.2333" fill="#A08069"/>
<path d="M25.5471 20.5367C25.8524 21.045 26.4631 21.35 26.8702 21.5533C26.5649 22.875 26.7684 24.2983 26.6667 25.4167C26.2595 26.0267 25.9542 26.3317 25.5471 26.6367C26.8702 26.7383 27.9898 26.84 29.1094 26.7383C30.3308 25.7217 31.5521 24.5017 32.4682 23.79C32.1628 23.9933 31.8575 23.9933 31.4504 23.8917C30.5343 24.705 29.9236 25.5183 29.2112 26.23C28.3969 26.1283 27.5827 26.535 27.1756 26.0267C26.972 26.23 26.972 26.7383 26.4631 26.535C27.6845 25.62 26.7684 23.2817 27.0738 21.8583C26.6667 21.1467 26.2595 20.74 25.8524 20.5367" fill="#A08069"/>
<path d="M21.7812 6.40501C21.8829 6.20168 22.1883 6.81168 22.3919 6.30334C23.9186 8.13334 25.6488 9.76001 27.2773 11.3867C27.6845 11.6917 28.1934 11.6917 28.4987 11.59C28.7023 11.9967 28.4987 12.505 29.0076 12.7083C28.7023 12.9117 28.4987 12.9117 28.1934 12.9117C25.6488 10.4717 24.0203 8.84501 21.6794 6.60834" fill="#A08069"/>
<path d="M19.2366 6.10001C19.9491 5.99834 20.8651 5.89668 21.2723 6.40501C22.2901 7.72668 23.9186 8.43834 24.9364 9.96334C24.2239 9.65834 23.3079 9.15001 23.1043 8.43834C22.6972 8.54001 22.2901 8.54001 21.8829 8.43834C21.8829 8.13334 22.2901 8.33668 22.2901 7.82834C21.5776 7.82834 21.6794 8.84501 20.8651 8.43834C20.3562 7.62501 21.4758 7.52334 21.374 7.21834C20.7634 6.81168 21.0687 7.62501 20.7634 7.62501C20.3562 7.42168 20.2544 7.32001 20.1527 7.21834C20.0509 6.60834 20.9669 6.91334 20.6616 6.40501C20.0509 6.20168 20.3562 6.71001 19.9491 6.81168C19.6438 6.71001 19.4402 6.50668 19.3384 6.40501" fill="#A08069"/>
<path d="M9.66924 9.96332C11.3995 10.1667 12.5191 12.505 14.0458 13.5217C14.5547 15.9617 14.9619 18.4017 14.7583 20.74C14.8601 18.5033 14.1476 15.9617 13.6387 13.8267C12.6209 12.505 11.6031 11.4883 10.5853 10.4717C10.1781 10.37 10.0764 10.7767 9.66924 10.5733C10.2799 10.5733 11.0942 10.98 10.9924 11.59C10.4835 12.2 10.1781 12.505 9.77102 11.9967C9.26211 11.7933 9.46567 11.4883 9.66924 11.4883C9.97458 11.4883 10.1781 11.59 10.0764 11.895C10.3817 11.7933 10.4835 11.6917 10.687 11.59C10.3817 10.8783 9.77102 11.0817 9.36389 10.98C9.36389 10.675 9.56745 10.5733 9.46567 10.2683" fill="#A08069"/>
<path d="M23.5115 20.13C24.5293 20.0283 25.2418 21.045 25.9542 21.8583C26.056 23.0783 26.056 24.1967 26.056 25.315C25.4453 26.0267 25.0382 26.535 24.5293 27.0433C23.715 27.145 23.1043 27.0433 22.5954 27.2467C21.6794 27.9583 20.9669 28.67 20.3563 29.3817C19.8474 30.2967 20.8652 31.3133 20.0509 31.6183C19.9491 30.9067 19.9491 30.195 19.8474 29.4833C20.6616 28.365 21.6794 27.8567 22.2901 26.84C22.9008 26.7383 23.6133 26.84 24.3257 26.7383C24.9364 26.23 25.4453 25.8233 25.8524 25.315C25.8524 24.095 25.9542 23.0783 25.8524 22.1633C25.4453 21.4517 24.9364 21.045 24.5293 20.5367C24.0204 20.5367 23.8168 21.045 23.6133 20.6383L23.5115 20.5367V20.435" fill="#A08069"/>
<path d="M32.0611 24.6033C33.0789 25.315 30.229 26.4333 29.9237 27.5517C27.3792 27.6533 25.14 27.5517 23.0026 27.6533C22.1883 28.1617 21.5776 28.8733 20.9669 29.4833C20.7634 29.9917 20.7634 30.3983 21.0687 30.6017C20.8652 31.0083 20.458 31.0083 20.3563 30.9067C20.5598 30.3983 20.5598 29.9917 20.458 29.585C21.2723 28.7717 21.9848 28.06 22.6972 27.45C25.0382 27.3483 27.2774 27.2467 29.5166 27.3483C30.229 26.535 31.2468 25.7217 31.7558 25.01" fill="#A08069"/>
<path d="M24.2239 40.4633L24.3257 40.3616C25.7506 39.955 26.4631 41.175 25.9542 42.09C25.2417 42.2933 25.0382 43.31 24.4275 43.31C23.9186 42.2933 25.3435 42.09 25.0382 41.175C24.3257 40.9716 24.1221 41.8866 23.6132 42.09C23.1043 42.1916 22.9008 41.9883 23.0026 41.785C23.4097 41.2766 23.6132 40.87 24.0204 40.6666" fill="#A08069"/>
<path d="M11.5013 8.74335C12.7226 9.86168 14.2493 11.285 15.3689 12.6067C15.6743 12.81 16.0814 12.505 16.5903 12.7083C17.3028 14.2333 18.8295 13.3183 19.542 14.335C18.0153 14.8433 16.9974 13.115 15.4707 13.0133C13.944 11.6917 12.6208 10.37 11.3995 9.15001" fill="#A08069"/>
<path d="M22.6972 30.195L22.9007 30.0933C23.0025 29.9917 23.3079 30.195 23.3079 30.2967C22.3918 30.9067 21.8829 31.3133 21.4758 32.1267C21.6794 32.025 21.8829 32.025 22.0865 32.025C22.1883 31.11 23.4096 30.9067 23.4096 30.0933C23.9185 29.9917 24.0203 30.195 23.9185 30.5L23.8168 30.6017H23.715V30.805L23.4096 30.7033C23.2061 31.2117 22.4936 31.415 22.4936 31.9233C23.5114 32.33 23.0025 31.2117 23.5114 30.9067C24.631 31.3133 23.1043 31.3133 23.5114 31.9233C24.3257 32.33 23.715 30.3983 24.7328 30.805C24.9364 31.5167 24.3257 31.415 24.2239 31.5167C24.1221 31.9233 25.1399 31.9233 24.7328 32.5333C22.1883 32.5333 19.3384 32.4317 23.0025 30.195" fill="#A08069"/>
<path d="M24.2239 14.5383C24.0203 15.9617 22.2901 15.3517 22.1883 15.9617C23.0025 16.6733 23.715 15.555 24.2239 15.9617C24.7328 16.5717 25.547 16.47 25.547 17.08C25.0381 17.2833 20.6616 16.47 21.9847 17.385C23.8168 16.775 24.631 17.8933 26.2595 17.7917C25.7506 16.6733 24.2239 15.9617 24.5292 14.8433" fill="#A08069"/>
<path d="M24.2239 14.7417L24.5292 14.64C24.4275 15.7583 25.6488 16.5717 26.4631 17.4867C25.8524 17.8933 25.2417 17.7917 24.8346 17.8933L24.5292 17.69L24.4275 17.5883V17.385C24.7328 16.9783 25.3435 17.385 25.4453 16.8767C24.8346 16.6733 24.631 15.9617 24.2239 15.9617C23.5114 15.86 23.0025 16.5717 22.5954 16.3683C21.2722 14.945 23.715 15.9617 23.9185 14.8433" fill="#A08069"/>
<path d="M15.0636 45.6483C15.9796 46.97 18.0153 48.5967 18.626 50.1217C18.3206 48.6983 17.0992 47.275 15.6743 46.36C15.6743 45.9533 16.0814 45.75 16.285 45.9533C17.8117 47.3767 18.4224 49.0033 19.3384 50.4267C18.8295 50.325 18.5242 51.0367 18.2188 50.4267C17.9135 48.495 15.6743 47.0717 14.6565 45.9533" fill="#A08069"/>
<path d="M24.2239 40.3617C23.9186 40.7683 23.5114 41.175 23.1043 41.48C23.6132 42.8017 24.2239 40.6667 25.0382 41.0733C25.4453 42.09 24.1221 42.1917 24.3257 43.1067C25.0382 43.2083 25.2417 42.2933 25.8524 42.2933C26.2595 41.175 25.8524 40.0567 24.4275 40.4633" fill="#A08069"/>
<path d="M15.7761 44.6317C15.6743 44.9367 15.6743 45.3433 15.2672 45.445C16.5903 45.445 18.117 45.9533 18.9313 44.835C18.5241 45.75 18.2188 46.5633 17.4046 46.1567C17.7099 46.8683 18.0152 46.1567 18.3206 46.5633C18.8295 47.6817 19.542 48.8 20.0509 49.8167C20.8651 49.9183 21.4758 49.8167 21.9847 49.9183C21.2722 50.4267 20.458 50.325 20.0509 50.02C19.0331 48.6983 18.117 47.3767 16.7939 46.2583C16.5903 45.9533 16.4885 46.055 16.4885 46.2583C18.5241 47.1733 18.7277 49.2067 19.9491 50.4267C20.5598 50.2233 21.374 50.4267 21.7811 50.63C21.7811 49.8167 22.4936 49.8167 22.4936 49.41C21.9847 49.8167 21.1705 49.8167 20.3562 49.715C19.3384 48.9017 19.6437 47.6817 18.3206 47.1733V46.8683V46.7667H18.4224L18.3206 46.5633C18.2188 45.75 19.0331 45.5467 19.3384 44.9367C18.2188 45.445 17.0992 45.75 15.6743 45.445C16.0814 44.9367 17.201 44.835 17.8117 45.2417C17.7099 44.4283 16.5903 45.3433 15.9796 44.6317" fill="#A08069"/>
<path d="M19.4402 6.10001C19.3384 6.40501 19.6438 6.60834 19.7456 6.81167C20.1527 6.50667 20.1527 6.10001 20.6616 6.30334C20.9669 6.81167 20.3563 6.81167 20.1527 6.91334C20.2545 7.21834 20.3563 7.32001 20.458 7.42167C20.7634 7.32001 20.9669 6.71001 21.3741 7.01501C21.6794 7.62501 20.458 7.62501 20.8652 8.33667C21.7812 8.74334 21.4758 7.72667 21.9848 7.62501C22.5954 7.93001 22.0865 8.54001 21.9848 8.33667C22.2901 8.43834 22.6972 8.43834 22.9008 8.13334C23.3079 9.04834 24.2239 9.45501 24.6311 10.1667C23.8168 8.43834 22.1883 7.82834 21.5776 6.60834C20.9669 5.99834 20.2545 6.20167 19.542 6.20167" fill="#A08069"/>
<path d="M17.3028 40.1583C17.71 40.0567 18.3206 40.1583 18.7278 40.0567C19.542 40.87 20.3563 41.5817 20.967 42.1917C20.8652 42.5983 20.7634 42.8017 20.5598 42.9033C20.458 41.785 19.3385 41.3783 18.9313 40.6667C17.3028 41.48 13.5369 40.7683 17.5064 40.26" fill="#A08069"/>
<path d="M24.9364 39.5483C25.2417 39.2433 25.7506 39.8533 25.3435 40.1583C24.9364 39.955 24.631 39.955 24.2239 40.0567C23.6132 40.7683 22.5954 41.175 22.5954 41.8867C23.0025 42.7 23.4097 42.395 23.715 42.1917C24.3257 42.7 23.4097 43.1067 24.1221 43.4117C24.5292 43.4117 24.9364 43.615 25.2417 43.4117C25.4453 43.1067 25.1399 42.8017 25.5471 42.7C25.7506 42.7 26.056 42.8017 26.056 42.9033C25.3435 43.92 24.5292 43.7167 23.715 43.8183C24.3257 42.395 22.0865 43.005 22.4936 41.3783C23.3079 40.7683 23.715 39.4467 24.8346 39.7517" fill="#A08069"/>
<path d="M12.6208 7.72665C12.6208 8.94665 15.1654 10.1667 15.6743 11.4883C16.1832 11.59 16.3868 11.285 16.8957 11.4883C17.4046 11.895 17.7099 12.2 18.0153 12.505C20.0509 13.2167 21.8829 11.4883 22.5954 12.81C21.2722 11.59 19.9491 13.2167 18.3206 12.4033C17.7099 12.2 17.5063 11.6917 16.9974 11.4883C16.285 11.59 15.9796 11.1833 15.5725 11.0817C14.5547 9.96332 13.2315 8.94665 12.6208 8.03165C14.0458 8.84499 14.9618 9.96332 15.9796 10.8783C17.7099 10.8783 19.1348 10.675 20.1527 11.59L20.458 11.4883L20.5598 11.285C20.7633 11.1833 20.8651 10.98 21.0687 10.8783C22.4936 10.5733 23.1043 12.3017 23.6132 12.4033C23.3079 11.895 22.4936 11.285 22.3918 10.675C21.8829 10.7767 21.6794 10.8783 21.2722 10.7767C20.8651 10.8783 20.6616 11.285 20.458 11.3867C19.2366 10.4717 17.6081 10.8783 16.285 10.7767C15.0636 9.75999 14.1476 8.84499 13.2315 7.92999" fill="#A08069"/>
<path d="M12.5191 19.7233C14.1476 20.9433 11.3995 20.0283 10.9924 20.6383C9.97455 21.045 9.36387 20.13 8.34605 20.435C8.75318 20.6383 9.36387 20.435 9.56743 21.045C10.5852 21.4517 11.3995 20.6383 12.2137 20.435C12.8244 21.5533 11.5013 20.6383 11.2977 21.1467C9.87277 21.4517 8.95674 21.1467 8.04071 20.6383C9.46565 19.9267 10.7888 20.9433 12.3155 19.825" fill="#A08069"/>
<path d="M13.7404 33.55C12.7226 33.55 13.4351 34.16 13.5369 34.5667C14.2493 34.16 15.1654 34.5667 15.7761 34.3633C16.4885 34.8717 16.6921 35.38 16.7939 35.685C17.4046 35.075 16.285 35.075 16.0814 34.3633C15.0636 34.3633 14.1476 34.16 13.5369 34.465C13.4351 33.9567 13.8422 33.9567 13.6387 33.6517C14.6565 33.6517 15.3689 33.6517 16.1832 33.6517C16.6921 34.0583 17.0992 34.465 17.4046 34.77C17.6081 35.4817 17.6081 35.8883 17.6081 36.3967C18.5241 36.6 19.542 36.1933 20.2544 36.7017C19.9491 35.99 18.4224 36.7017 17.6081 36.1933C18.8295 35.8883 20.2544 35.8883 21.0687 36.0917C20.2544 35.7867 18.2188 36.0917 17.5063 35.5833C19.0331 35.4817 20.458 35.075 21.4758 35.5833C20.7633 35.1767 19.1348 35.2783 17.9135 35.1767C17.5063 34.5667 16.7939 34.16 16.3867 33.55C15.3689 33.55 14.6565 33.55 13.944 33.55" fill="#F19DAF"/>
<path d="M14.1476 34.9733C12.9262 35.075 14.0458 35.8883 13.7404 36.7017C14.1476 36.3967 14.4529 36.1933 14.6565 36.0917C15.4707 35.99 15.7761 36.7017 16.1832 36.905C17.6081 37.0067 18.9313 37.0067 20.2544 37.0067C21.1705 36.4983 21.6794 35.7867 22.3918 35.2783C23.1043 35.1767 23.6132 35.1767 24.1221 35.1767C25.4453 35.38 24.1221 36.6 24.9364 36.7017C24.8346 35.99 24.9364 35.4817 24.3257 35.1767C23.6132 35.075 23.1043 35.075 22.5954 35.075C21.5776 35.5833 21.1705 36.295 20.458 36.8033C18.4224 36.8033 16.1832 37.515 14.9618 35.7867C14.5547 36.0917 14.4529 35.99 14.4529 36.1933C13.944 34.6683 15.8778 36.295 15.6743 35.38C15.1654 35.2783 14.9618 35.5833 14.4529 35.38C13.944 35.685 14.1476 36.0917 14.0458 36.295C13.5369 35.7867 14.0458 35.4817 14.0458 34.9733C14.7582 34.9733 15.0636 34.8717 15.4707 34.8717C16.3867 35.38 16.285 35.8883 15.9796 36.295C16.7939 36.3967 16.285 35.99 16.285 35.685C16.285 35.2783 15.9796 35.1767 15.9796 34.9733H15.7761L15.4707 34.8717C15.1654 34.9733 14.6565 34.8717 14.2493 34.8717" fill="#F19DAF"/>
<path d="M11.3995 8.94666C12.4173 10.2683 14.0458 11.4883 15.1654 12.9117C16.9974 13.0133 17.9135 14.64 19.4402 14.4367C18.6259 13.5217 17.3028 14.2333 16.7939 12.7083C16.0814 12.6067 15.6743 12.9117 15.4707 12.9117C14.3511 11.3867 12.9262 10.2683 11.8066 8.94666" fill="#F19DAF"/>
<path d="M29.5166 10.065C30.6361 10.1667 30.4326 11.6917 30.5344 12.505C31.145 13.2167 31.4504 13.5217 31.8575 13.9283C31.8575 13.42 31.4504 13.115 31.3486 12.7083C31.145 12.2 31.654 11.9967 31.7557 12.4033C31.7557 13.42 32.6718 14.2333 32.8753 14.8433C31.9593 14.335 31.145 13.42 30.3308 12.81C30.5344 11.59 30.229 10.7767 29.313 10.4717" fill="#F19DAF"/>
<path d="M24.5292 40.565C25.3435 40.1583 25.7506 40.9717 25.6488 41.5817C25.5471 42.2933 24.9364 42.7 24.631 43.1067C24.4275 42.1917 25.6488 42.09 25.2417 41.0733C24.2239 40.4633 23.8168 42.2933 23.1043 41.785C23.6132 41.175 23.9186 40.7683 24.3257 40.4633" fill="#A08069"/>
<path d="M15.4707 6.50666C15.4707 6.30333 15.5725 6.40499 15.7761 6.40499C15.9796 7.21833 16.8957 7.52333 17.3028 7.92999C16.4885 8.33666 16.285 6.70999 15.369 7.01499C16.0814 8.03166 17.0992 8.53999 17.9135 8.43833C17.4046 9.14999 17.201 8.53999 16.8957 8.74333C16.285 7.92999 14.86 7.42166 15.0636 6.60833" fill="#A08069"/>
<path d="M22.4936 35.5833C21.8829 36.295 21.1705 37.0067 20.5598 37.7183C18.117 37.3117 15.6743 38.2267 14.3511 38.3283C16.3868 37.515 17.9135 37.82 20.2544 37.9217C21.1705 37.21 21.7812 36.4983 22.4936 35.8883C22.9008 35.685 23.3079 35.7867 23.6132 35.7867C23.8168 35.99 24.0203 35.99 24.0203 36.1933C23.6132 36.295 23.4097 36.1933 23.3079 36.295C22.9008 36.1933 22.799 36.1933 22.6972 36.1933C21.9847 37.0067 21.2723 37.515 20.6616 38.3283C19.6438 38.3283 18.117 38.6333 17.4046 38.0233C17.8117 38.5317 19.3384 38.2267 20.3562 38.43H20.6616L20.7633 38.2267C21.5776 37.6167 22.1883 36.7017 23.0025 36.1933C22.9008 37.3117 21.1705 37.9217 21.2723 38.5317C21.9847 37.6167 23.0025 36.8033 23.715 36.1933C24.3257 35.4817 23.2061 35.5833 22.799 35.685" fill="#A08069"/>
<path d="M17.9135 40.26C13.944 40.87 16.7939 41.175 18.7277 40.3617C19.3384 41.2767 20.458 41.6833 20.458 42.5983C20.6616 42.8017 20.7634 42.4967 20.9669 42.4967C20.2545 41.5817 19.542 40.87 19.0331 40.26C18.4224 40.1583 18.0153 40.1583 17.6081 40.1583" fill="#A08069"/>
<path d="M9.66921 10.065C9.56743 10.37 9.66921 10.675 9.26208 10.7767C9.87277 10.98 10.4835 10.7767 10.687 11.3867C10.0763 13.0133 9.87277 10.675 9.46565 11.895C10.0763 12.3017 10.3817 12.2 10.687 11.6917C10.9924 10.98 10.0763 10.675 9.66921 10.8783C9.87277 10.5733 10.1781 10.37 10.3817 10.2683C11.7048 11.4883 12.7226 12.505 13.7405 13.5217C14.1476 15.9617 14.9618 18.3 14.2494 20.74C14.7583 18.3 14.4529 15.9617 13.8422 13.8267C12.8244 12.505 11.7048 11.3867 10.687 10.37C10.1781 10.2683 10.1781 10.065 9.87277 10.1667" fill="#A08069"/>
<path d="M26.8702 30.195C29.4148 29.9917 26.8702 31.2117 27.4809 31.72C27.0738 31.9233 26.7684 31.72 26.7684 31.6183C26.972 30.9067 27.3791 30.7033 27.7863 30.7033C27.3791 30.3983 26.972 30.5 26.7684 30.805C26.4631 31.72 27.1756 31.9233 27.1756 32.5333C27.3791 32.8383 27.0738 33.0417 26.972 32.94C27.1756 32.2283 26.2595 31.8217 26.3613 30.9067C26.6667 30.6017 26.7684 30.5 26.972 30.3983" fill="#A08069"/>
<path d="M14.7583 46.4617C15.7761 47.0717 16.5903 48.495 17.7099 49.0033C17.4046 49.3083 17.4046 49.5117 17.3028 49.5117C16.7939 48.495 15.6743 47.885 15.1654 47.0717C14.9618 47.6817 15.6743 47.9867 16.0814 48.19C15.9797 48.5967 15.8779 48.6983 15.6743 48.5967C15.369 47.885 14.6565 47.58 14.7583 46.7667" fill="#A08069"/>
<path d="M23.2061 29.9917C19.8473 32.4317 21.7811 32.4317 24.7328 32.33C24.8346 31.6183 23.9186 32.33 24.0203 31.72C24.1221 31.2117 24.8346 31.5167 24.631 31.0083C24.1221 30.805 24.2239 31.3133 24.0203 31.5167C24.0203 31.8217 24.0203 31.9233 24.0203 32.025C23.715 32.1267 23.6132 32.1267 23.5114 32.2283C23.0025 31.2117 24.0203 31.5167 23.9186 31.0083C23.1043 31.11 23.6132 32.4317 22.5954 32.1267C22.1883 31.11 24.3257 30.7033 23.715 30.0933C23.4096 31.0083 22.1883 31.2117 22.3918 32.025C21.8829 32.1267 21.6794 32.1267 21.374 32.1267C21.5776 31.2117 23.0025 30.805 23.1043 30.0933" fill="#A08069"/>
<path d="M31.9593 24.8067C31.5522 25.62 30.3308 26.535 29.7201 27.3483C27.2774 27.45 25.0382 27.3483 22.9008 27.45C21.9847 28.1617 21.374 28.7717 20.7634 29.4833C20.6616 29.9917 20.6616 30.3983 20.3562 30.6017C20.2545 29.7883 21.6794 28.4667 22.799 27.5517C25.1399 27.5517 27.3791 27.45 29.6183 27.5517C30.5344 26.4333 31.9593 25.5183 32.3664 24.8067" fill="#A08069"/>
<path d="M21.4758 16.47C21.9847 17.08 23.3079 17.2833 23.9186 16.5717C24.4275 16.775 24.1222 17.1817 24.3257 17.2833C23.5115 17.08 23.2061 18.0967 22.2901 17.69C21.883 17.385 21.5776 17.08 21.2723 16.775" fill="#A08069"/>
<path d="M16.8957 6.60832C17.9135 6.40499 18.4224 7.82832 19.2367 8.23499C19.2367 8.84499 19.2367 9.25166 19.2367 9.55666C18.9313 8.64166 18.2188 7.62499 17.0993 6.91332" fill="#A08069"/>
<path d="M14.86 45.8517C15.2672 46.8683 18.2188 48.3933 18.117 50.2233C18.6259 50.8333 18.8295 50.2233 19.1349 50.4267C18.3206 48.9017 17.6081 47.3767 16.0814 46.2583C15.9796 45.9533 15.7761 46.055 15.7761 46.2583C16.6921 46.8683 17.4046 47.885 18.2188 48.495C18.117 49.105 18.8295 49.8167 18.6259 50.1217C18.0153 48.3933 15.9796 47.3767 15.1654 45.9533" fill="#A08069"/>
<path d="M23.715 20.2317C23.5115 20.2317 23.6133 20.3333 23.6133 20.5367C23.9186 20.9433 24.0204 20.3333 24.2239 20.3333C24.9364 21.045 25.5471 21.4517 25.9542 21.96C26.056 23.0783 25.9542 24.095 26.056 25.01C25.5471 25.8233 24.9364 26.23 24.5293 26.84C23.6133 26.9417 23.0026 26.9417 22.4937 26.6367C21.7812 27.8567 20.8652 28.4667 20.1527 29.28C19.9491 30.195 20.0509 30.805 19.8474 31.3133C20.5598 31.2117 19.7456 30.195 20.1527 29.585C20.8652 28.5683 21.6794 27.9583 22.3919 27.2467C23.1043 26.9417 23.715 27.0433 24.2239 26.9417C24.9364 26.535 25.4453 26.0267 25.8524 25.62L26.056 25.4167V25.315L25.9542 25.01C26.056 24.095 26.056 23.18 26.056 22.265V22.0617L25.9542 21.7567C25.3435 21.35 25.0382 20.74 24.5293 20.435C24.0204 20.5367 24.0204 20.13 23.9186 20.13" fill="#A08069"/>
<path d="M7.73536 20.5367C8.44783 21.4517 10.4835 21.8583 11.7048 21.4517C11.0941 22.1633 10.2799 21.7567 9.46564 21.96C8.95674 21.1467 7.73536 21.8583 7.5318 20.9433" fill="#A08069"/>
<path d="M25.14 39.7517C24.0204 39.5483 23.4097 40.4633 22.6972 41.2767L22.5954 41.48V41.6833C22.4937 41.9883 22.4937 42.4967 23.0026 42.5983C24.0204 42.5983 23.4097 43.31 23.5115 43.7167C24.5293 43.615 25.4453 43.7167 25.9542 42.9033C25.3435 42.9033 25.3435 44.0217 24.1222 43.5133C23.715 43.2083 23.715 42.8017 24.0204 42.5983C23.5115 42.1917 23.4097 42.5983 23.2061 42.5983C22.6972 42.1917 22.3919 41.9883 22.5954 41.5817C23.2061 39.955 25.0382 39.955 25.4453 39.8533" fill="#A08069"/>
<path d="M24.0204 16.165L24.1222 16.0633C26.056 17.5883 23.2061 16.0633 22.4937 17.08C21.9848 16.6733 21.883 16.5717 21.7812 16.47C22.2901 16.5717 23.2061 16.5717 23.715 16.0633" fill="#A08069"/>
<path d="M18.8295 16.3683C19.8473 17.995 16.6921 17.08 16.285 18.1983C16.3868 17.69 16.3868 17.2833 16.7939 17.1817C17.5063 16.8767 18.2188 17.1817 18.6259 16.8767" fill="#A08069"/>
<path d="M14.5547 36.8033L14.6565 36.7017C15.2672 36.6 15.6743 37.0067 16.1832 37.1083C15.4707 38.43 15.6743 36.3967 14.6565 37.0067C14.3511 37.21 14.2493 37.3117 14.3511 37.515C14.6565 37.1083 15.4707 36.8033 15.4707 37.515C15.0636 38.0233 14.7582 37.21 14.4529 37.82C13.944 37.515 13.8422 37.1083 14.3511 36.905" fill="#A08069"/>
<path d="M24.7328 40.565C24.1221 40.565 23.8168 41.175 23.3079 41.48C23.8168 41.785 24.3257 40.4633 25.3435 40.9717C25.6488 41.9883 24.7328 42.1917 24.4275 42.8017C24.9364 42.5983 25.4453 42.2933 25.4453 41.6833C25.6488 41.3783 25.547 41.2767 25.4453 41.175C25.547 40.565 25.1399 40.565 24.9364 40.4633" fill="#A08069"/>
<path d="M12.7226 19.9267C10.9924 20.74 9.66921 20.435 8.04071 20.13C8.54962 21.1467 9.26208 20.6383 9.56743 21.2483C10.2799 21.2483 10.5852 21.1467 10.9924 21.1467C11.5013 20.435 12.4173 21.4517 12.5191 20.6383C11.3995 20.74 10.5852 21.5533 9.77099 21.1467C9.36387 20.435 8.44784 20.9433 8.14249 20.435C9.36387 20.0283 9.97455 20.9433 10.687 20.6383C11.3995 19.6217 13.2316 21.045 12.9262 19.9267" fill="#A08069"/>
<path d="M29.5165 10.2683C29.8219 10.7767 30.8397 11.3867 30.3308 12.6067C31.145 13.42 32.0611 14.2333 32.4682 14.945C32.3664 14.1317 31.7557 13.3183 31.6539 12.6067C31.5522 12.0983 31.145 12.3017 31.3486 12.6067C31.6539 13.2167 31.9593 13.5217 32.0611 14.03C31.4504 13.6233 31.0433 13.2167 30.6361 12.81C30.4326 11.6917 30.4326 10.7767 29.9237 10.1667" fill="#A08069"/>
<path d="M8.34608 21.4517C9.05855 22.3667 10.2799 22.3667 10.8906 22.265C9.8728 22.6717 8.65142 22.3667 8.14252 22.0617" fill="#A08069"/>
<path d="M16.8957 6.60834C17.8117 7.52334 19.2367 8.33667 18.9313 9.76C19.2367 9.15 19.1349 8.845 19.2367 8.54C18.4224 7.82834 17.9135 6.81167 17.201 6.60834" fill="#A08069"/>
<path d="M15.4708 6.405C14.453 7.11667 16.4886 7.72667 16.5904 8.43833C17.201 8.43833 17.3028 8.94667 17.7099 8.74333C16.9975 8.74333 16.0815 7.93 15.4708 7.015C16.0815 6.71 16.6921 7.72667 16.8957 8.235C16.9975 7.52333 15.9797 7.21833 15.8779 6.50667" fill="#A08069"/>
<path d="M14.86 46.5633C14.6565 47.3767 15.2672 47.7833 15.5725 48.2917C15.7761 48.495 15.9796 48.5967 16.0814 48.495C15.4707 48.19 14.9618 47.58 14.9618 47.0717C15.7761 47.7833 16.8957 48.495 17.201 49.41C16.8957 48.5967 15.7761 47.58 15.0636 46.7667" fill="#A08069"/>
<path d="M24.0203 16.165C23.4097 16.165 22.5954 16.9783 21.8829 16.165C22.4936 16.8767 25.6488 16.6733 24.3257 16.47" fill="#A08069"/>
<path d="M18.8295 16.5717C18.5242 17.385 17.6082 17.08 16.9975 17.1817C16.3868 17.385 16.4886 17.69 16.3868 17.995C16.8957 16.775 18.626 18.1983 19.1349 16.6733" fill="#A08069"/>
<path d="M7.5318 20.8417C8.24427 21.655 10.2799 21.7567 11.3995 21.96C10.5852 21.8583 8.54961 21.7567 8.04071 20.74" fill="#A08069"/>
<path d="M14.6565 36.7017C13.5369 37.3117 14.3512 38.0233 15.0636 37.515C15.5725 36.3967 14.2494 38.0233 14.2494 37.4133C14.4529 36.8033 14.8601 36.8033 15.2672 36.905C15.7761 37.1083 15.4707 37.7183 16.0814 37.515C16.0814 36.905 15.5725 37.21 15.4707 36.8033C15.0636 36.7017 14.9618 36.7017 14.8601 36.8033" fill="#A08069"/>
<path d="M22.6972 45.5467C22.9008 45.6483 23.8168 46.36 23.715 46.665C23.1043 46.4617 22.799 46.1567 22.3918 45.75" fill="#A08069"/>
<path d="M6.71753 21.7567C7.22644 21.655 7.53178 22.3667 7.9389 22.57C7.53178 23.0783 6.92109 22.3667 6.81931 22.0617" fill="#A08069"/>
<path d="M8.24426 21.7567C8.34604 22.3667 9.87276 22.3667 10.5852 22.7733C10.2799 22.3667 9.16029 22.875 8.65139 21.5533" fill="#A08069"/>
<path d="M22.4937 45.0383C23.2061 44.7333 23.4097 45.14 23.6132 45.6483C23.2061 45.9533 22.9008 45.2417 22.4937 45.3433" fill="#A08069"/>
<path d="M12.2137 30.0933C12.4173 29.9917 12.8244 30.805 12.3155 30.9067C12.0102 30.805 11.7048 30.5 11.9084 30.2967" fill="#A08069"/>
<path d="M30.6361 16.5717C31.0433 16.47 31.2468 17.1817 31.654 17.2833C31.2468 17.2833 30.6361 17.385 30.5344 16.775" fill="#A08069"/>
<path d="M22.6972 45.5467C22.2901 45.9533 23.3079 46.36 23.4097 46.665C23.5115 46.2583 23.2061 46.055 23.0026 45.75" fill="#A08069"/>
<path d="M43.3026 35H40.4901L45.6108 20.4545H48.8636L53.9915 35H51.179L47.294 23.4375H47.1804L43.3026 35ZM43.3949 29.2969H51.0653V31.4134H43.3949V29.2969ZM55.9073 35V20.4545H61.3619C62.4793 20.4545 63.4168 20.6629 64.1744 21.0795C64.9367 21.4962 65.512 22.0691 65.9002 22.7983C66.2932 23.5227 66.4897 24.3466 66.4897 25.2699C66.4897 26.2027 66.2932 27.0312 65.9002 27.7557C65.5072 28.4801 64.9272 29.0507 64.1602 29.4673C63.3931 29.8793 62.4485 30.0852 61.3263 30.0852H57.7113V27.919H60.9712C61.6246 27.919 62.1597 27.8054 62.5763 27.5781C62.993 27.3509 63.3008 27.0384 63.4996 26.6406C63.7032 26.2429 63.805 25.786 63.805 25.2699C63.805 24.7538 63.7032 24.2992 63.4996 23.9062C63.3008 23.5133 62.9906 23.2079 62.5692 22.9901C62.1526 22.7675 61.6152 22.6562 60.957 22.6562H58.5423V35H55.9073ZM91.2979 35V20.4545H93.9329V32.7912H100.339V35H91.2979ZM102.512 35V24.0909H105.083V35H102.512ZM103.805 22.5426C103.398 22.5426 103.047 22.4077 102.754 22.1378C102.46 21.8632 102.314 21.5341 102.314 21.1506C102.314 20.7623 102.46 20.4332 102.754 20.1634C103.047 19.8887 103.398 19.7514 103.805 19.7514C104.217 19.7514 104.567 19.8887 104.856 20.1634C105.15 20.4332 105.297 20.7623 105.297 21.1506C105.297 21.5341 105.15 21.8632 104.856 22.1378C104.567 22.4077 104.217 22.5426 103.805 22.5426ZM112.472 39.3182C111.548 39.3182 110.755 39.1927 110.092 38.9418C109.429 38.6955 108.897 38.3641 108.494 37.9474C108.092 37.5308 107.812 37.0691 107.656 36.5625L109.972 36.0014C110.076 36.2145 110.227 36.4252 110.426 36.6335C110.625 36.8466 110.893 37.0218 111.229 37.1591C111.57 37.3011 111.998 37.3722 112.514 37.3722C113.243 37.3722 113.847 37.1946 114.325 36.8395C114.804 36.4891 115.043 35.9115 115.043 35.1065V33.0398H114.915C114.782 33.3049 114.588 33.5772 114.332 33.8565C114.081 34.1359 113.748 34.3703 113.331 34.5597C112.919 34.7491 112.401 34.8438 111.776 34.8438C110.938 34.8438 110.178 34.6473 109.496 34.2543C108.819 33.8565 108.279 33.2647 107.876 32.4787C107.479 31.688 107.28 30.6984 107.28 29.5099C107.28 28.312 107.479 27.3011 107.876 26.4773C108.279 25.6487 108.821 25.0213 109.503 24.5952C110.185 24.1643 110.945 23.9489 111.783 23.9489C112.422 23.9489 112.947 24.0578 113.359 24.2756C113.776 24.4886 114.107 24.7467 114.354 25.0497C114.6 25.348 114.787 25.6297 114.915 25.8949H115.057V24.0909H117.592V35.1776C117.592 36.1103 117.37 36.8821 116.925 37.4929C116.48 38.1037 115.871 38.5606 115.099 38.8636C114.328 39.1667 113.452 39.3182 112.472 39.3182ZM112.493 32.8267C113.037 32.8267 113.501 32.6941 113.885 32.429C114.268 32.1638 114.56 31.7827 114.759 31.2855C114.957 30.7884 115.057 30.1918 115.057 29.4957C115.057 28.8092 114.957 28.2079 114.759 27.6918C114.564 27.1757 114.276 26.7756 113.892 26.4915C113.513 26.2027 113.047 26.0582 112.493 26.0582C111.92 26.0582 111.442 26.2074 111.058 26.5057C110.675 26.804 110.386 27.2135 110.192 27.7344C109.998 28.2505 109.901 28.8376 109.901 29.4957C109.901 30.1634 109.998 30.7481 110.192 31.25C110.391 31.7472 110.682 32.1354 111.065 32.4148C111.454 32.6894 111.929 32.8267 112.493 32.8267ZM122.798 28.608V35H120.227V20.4545H122.741V25.9446H122.869C123.125 25.3291 123.52 24.8437 124.055 24.4886C124.595 24.1288 125.282 23.9489 126.115 23.9489C126.873 23.9489 127.533 24.1075 128.097 24.4247C128.66 24.742 129.096 25.206 129.403 25.8168C129.716 26.4276 129.872 27.1733 129.872 28.054V35H127.301V28.4517C127.301 27.7178 127.112 27.1473 126.733 26.7401C126.359 26.3281 125.833 26.1222 125.156 26.1222C124.702 26.1222 124.295 26.2216 123.935 26.4205C123.58 26.6146 123.3 26.8963 123.097 27.2656C122.898 27.6349 122.798 28.0824 122.798 28.608ZM137.94 24.0909V26.0795H131.669V24.0909H137.94ZM133.217 21.4773H135.788V31.7188C135.788 32.0644 135.84 32.3295 135.945 32.5142C136.054 32.6941 136.196 32.8172 136.371 32.8835C136.546 32.9498 136.74 32.983 136.953 32.983C137.114 32.983 137.261 32.9711 137.393 32.9474C137.531 32.9238 137.635 32.9025 137.706 32.8835L138.139 34.8935C138.002 34.9408 137.805 34.9929 137.55 35.0497C137.299 35.1065 136.991 35.1397 136.626 35.1491C135.982 35.1681 135.402 35.071 134.886 34.858C134.37 34.6402 133.961 34.304 133.658 33.8494C133.359 33.3949 133.213 32.8267 133.217 32.1449V21.4773Z" fill="black"/>
<path d="M74.5526 20.4545V35H71.9176V23.0185H71.8324L68.4304 25.1918V22.777L72.0455 20.4545H74.5526ZM83.4162 35.1989C82.3603 35.1989 81.4228 35.0213 80.6037 34.6662C79.7893 34.3111 79.1501 33.8258 78.6861 33.2102C78.2268 32.59 77.9995 31.8868 78.0043 31.1009C77.9995 30.4901 78.1321 29.929 78.402 29.4176C78.6719 28.9062 79.0365 28.4801 79.4957 28.1392C79.9598 27.7936 80.4759 27.5734 81.044 27.4787V27.3793C80.2959 27.2135 79.6899 26.8324 79.2259 26.2358C78.7666 25.6345 78.5393 24.9408 78.544 24.1548C78.5393 23.4067 78.7476 22.7391 79.169 22.152C79.5904 21.5649 80.1681 21.1032 80.902 20.767C81.6359 20.4261 82.474 20.2557 83.4162 20.2557C84.349 20.2557 85.1799 20.4261 85.9091 20.767C86.643 21.1032 87.2206 21.5649 87.642 22.152C88.0682 22.7391 88.2812 23.4067 88.2812 24.1548C88.2812 24.9408 88.0469 25.6345 87.5781 26.2358C87.1141 26.8324 86.5152 27.2135 85.7812 27.3793V27.4787C86.3494 27.5734 86.8608 27.7936 87.3153 28.1392C87.7746 28.4801 88.1392 28.9062 88.4091 29.4176C88.6837 29.929 88.821 30.4901 88.821 31.1009C88.821 31.8868 88.589 32.59 88.125 33.2102C87.661 33.8258 87.0218 34.3111 86.2074 34.6662C85.3977 35.0213 84.4673 35.1989 83.4162 35.1989ZM83.4162 33.1676C83.9607 33.1676 84.4342 33.0753 84.8366 32.8906C85.2391 32.7012 85.5516 32.4361 85.7741 32.0952C85.9967 31.7543 86.1103 31.3613 86.1151 30.9162C86.1103 30.4522 85.9896 30.0426 85.7528 29.6875C85.5208 29.3277 85.2012 29.0459 84.794 28.8423C84.3916 28.6387 83.9323 28.5369 83.4162 28.5369C82.8954 28.5369 82.4313 28.6387 82.0241 28.8423C81.617 29.0459 81.295 29.3277 81.0582 29.6875C80.8262 30.0426 80.7126 30.4522 80.7173 30.9162C80.7126 31.3613 80.8215 31.7543 81.044 32.0952C81.2666 32.4313 81.5791 32.6941 81.9815 32.8835C82.3887 33.0729 82.867 33.1676 83.4162 33.1676ZM83.4162 26.5412C83.8613 26.5412 84.2543 26.4512 84.5952 26.2713C84.9408 26.0914 85.2131 25.8404 85.4119 25.5185C85.6108 25.1965 85.7126 24.8248 85.7173 24.4034C85.7126 23.9867 85.6132 23.6222 85.419 23.3097C85.2249 22.9924 84.955 22.7486 84.6094 22.5781C84.2637 22.4029 83.866 22.3153 83.4162 22.3153C82.9569 22.3153 82.5521 22.4029 82.2017 22.5781C81.8561 22.7486 81.5862 22.9924 81.392 23.3097C81.2027 23.6222 81.1103 23.9867 81.1151 24.4034C81.1103 24.8248 81.205 25.1965 81.3991 25.5185C81.598 25.8357 81.8703 26.0866 82.2159 26.2713C82.5663 26.4512 82.9664 26.5412 83.4162 26.5412Z" fill="#A08069"/>
</svg>
