<svg  width="393" height="600" xmlns="http://www.w3.org/2000/svg" ><path  d="
 M 132 70 C 138 77, 147, 89, 157, 96
 C 177 101, 199, 98, 218, 100
 C 228 105, 233, 119, 244, 116
 C 266 130, 265, 151, 284, 163
 C 285 171, 285, 176, 285, 182
 C 290 190, 297, 195, 302, 202
 C 315 205, 319, 191, 327, 187
 C 327 193, 332, 196, 330, 199
 C 320 205, 313, 214, 302, 213
 C 295 203, 285, 196, 278, 187
 C 277 180, 277, 174, 277, 169
 C 257 156, 260, 137, 243, 127
 C 230 128, 221, 140, 208, 138
 C 217 141, 232, 135, 240, 126
 C 257 140, 255, 158, 274, 167
 C 273 175, 273, 180, 276, 183
 C 274 187, 272, 186, 271, 187
 C 270 181, 271, 175, 270, 170
 C 252 158, 254, 140, 239, 130
 C 232 144, 218, 139, 211, 145
 C 215 145, 220, 145, 225, 146
 C 231 142, 234, 138, 238, 135
 C 252 146, 251, 160, 267, 168
 C 270 173, 268, 177, 269, 180
 C 252 189, 230, 182, 214, 187
 C 225 181, 247, 183, 263, 182
 C 267 179, 265, 175, 266, 173
 C 250 162, 248, 148, 240, 137
 C 232 148, 222, 147, 214, 149
 C 225 152, 233, 150, 238, 141
 C 242 155, 252, 163, 262, 171
 C 246 185, 234, 167, 219, 177
 C 214 172, 212, 169, 209, 167
 C 215 173, 209, 183, 214, 189
 C 212 193, 209, 193, 208, 192
 C 210 184, 212, 174, 204, 171
 C 208 176, 206, 181, 206, 187
 C 200 190, 203, 198, 197, 198
 C 194 189, 209, 190, 202, 177
 C 201 172, 199, 178, 197, 174
 C 193 180, 195, 186, 194, 191
 C 190 196, 187, 201, 183, 203
 C 189 205, 195, 205, 201, 205
 C 209 199, 213, 190, 220, 188
 C 240 189, 257, 189, 274, 189
 C 284 197, 291, 205, 300, 213
 C 306 215, 309, 214, 313, 214
 C 319 210, 322, 207, 325, 203
 C 329 206, 326, 211, 329, 213
 C 320 224, 309, 222, 299, 224
 C 293 215, 280, 207, 273, 197
 C 257 196, 243, 197, 229, 196
 C 225 212, 244, 196, 241, 209
 C 231 209, 224, 202, 225, 196
 C 221 203, 225, 206, 229, 209
 C 239 209, 247, 210, 252, 217
 C 249 226, 250, 240, 252, 248
 C 246 251, 243, 256, 239, 259
 C 234 260, 232, 261, 229, 261
 C 221 257, 233, 248, 224, 249
 C 220 267, 202, 275, 193, 289
 C 192 297, 191, 301, 192, 306
 C 188 311, 183, 309, 180, 310
 C 185 317, 193, 314, 201, 314
 C 210 309, 207, 300, 207, 292
 C 213 285, 222, 280, 223, 274
 C 231 276, 242, 275, 247, 272
 C 249 275, 250, 279, 247, 279
 C 239 275, 229, 276, 225, 280
 C 219 285, 214, 288, 210, 292
 C 215 295, 220, 285, 226, 282
 C 236 279, 247, 283, 253, 277
 C 257 279, 257, 283, 256, 284
 C 247 280, 237, 283, 229, 282
 C 220 289, 218, 295, 211, 298
 C 219 300, 221, 290, 228, 286
 C 236 292, 241, 297, 247, 303
 C 247 311, 248, 318, 247, 324
 C 223 324, 202, 323, 182, 322
 C 176 318, 171, 313, 167, 309
 C 164 309, 163, 309, 162, 309
 C 150 311, 132, 307, 125, 311
 C 138 309, 154, 314, 166, 310
 C 168 317, 176, 321, 180, 327
 C 203 326, 225, 329, 245, 326
 L 247 325
 L 248 326 C 250 327, 250, 330, 246, 331
 C 224 329, 202, 330, 181, 329
 C 173 324, 170, 317, 164, 316
 C 150 316, 136, 312, 125, 317
 C 122 314, 118, 315, 120, 311
 C 134 304, 151, 308, 165, 306
 C 167 295, 166, 281, 166, 273
 C 159 264, 155, 259, 149, 254
 C 136 253, 131, 265, 123, 270
 C 114 271, 107, 271, 100, 271
 C 97 269, 95, 267, 94, 266
 C 93 269, 96, 273, 100, 273
 C 107 274, 113, 276, 116, 272
 C 121 275, 120, 277, 119, 279
 C 112 275, 102, 275, 98, 279
 C 94 274, 91, 270, 88, 266
 C 97 268, 109, 271, 122, 268
 C 132 262, 137, 249, 147, 249
 C 155 256, 162, 263, 168, 269
 C 168 282, 168, 294, 168, 306
 C 174 310, 175, 314, 179, 318
 C 201 321, 222, 323, 244, 321
 C 245 316, 245, 311, 245, 306
 C 239 299, 235, 295, 231, 291
 C 223 294, 219, 304, 210, 301
 C 211 309, 206, 312, 202, 315
 C 195 317, 189, 317, 184, 317
 C 179 315, 176, 310, 175, 309
 C 177 306, 183, 307, 187, 306
 C 189 300, 189, 295, 189, 290
 C 210 274, 217, 251, 231, 239
 C 233 228, 221, 235, 218, 232
 C 215 224, 220, 215, 212, 213
 C 209 212, 207, 211, 206, 212
 C 215 217, 213, 226, 214, 233
 C 220 239, 227, 229, 230, 237
 C 225 242, 222, 235, 217, 238
 C 207 246, 199, 254, 195, 264
 C 201 264, 206, 257, 204, 252
 C 211 249, 210, 256, 208, 257
 C 202 266, 196, 268, 188, 269
 C 190 279, 183, 281, 180, 286
 C 180 292, 176, 301, 181, 301
 C 183 295, 181, 290, 183, 286
 C 193 278, 200, 268, 208, 261
 C 208 252, 214, 248, 218, 243
 C 220 238, 225, 240, 225, 242
 C 212 256, 203, 275, 186, 286
 C 186 293, 186, 298, 185, 302
 C 181 303, 179, 303, 176, 303
 C 175 289, 176, 276, 175, 264
 C 167 258, 163, 250, 155, 248
 C 155 244, 157, 242, 158, 242
 C 162 251, 171, 255, 175, 262
 C 184 256, 190, 249, 197, 243
 C 198 229, 183, 224, 178, 214
 C 165 214, 155, 214, 145, 214
 C 129 228, 114, 243, 99, 258
 C 103 266, 112, 262, 118, 264
 C 133 249, 147, 237, 160, 224
 C 164 220, 168, 222, 171, 221
 C 179 228, 185, 232, 189, 238
 C 185 244, 181, 246, 179, 250
 C 171 247, 169, 242, 163, 239
 C 159 237, 156, 238, 154, 239
 C 152 254, 171, 258, 172, 266
 C 166 258, 149, 253, 150, 242
 C 155 235, 159, 234, 163, 236
 C 169 240, 172, 243, 175, 246
 C 180 243, 184, 241, 185, 239
 C 181 233, 177, 229, 173, 225
 C 168 225, 163, 223, 160, 226
 C 169 225, 174, 238, 179, 235
 C 183 236, 185, 239, 182, 241
 C 174 235, 166, 232, 158, 231
 C 145 242, 133, 254, 121, 265
 C 114 267, 109, 267, 104, 267
 C 100 262, 95, 262, 95, 259
 C 110 243, 126, 226, 141, 212
 C 163 210, 182, 211, 202, 211
 C 209 205, 214, 198, 219, 194
 C 238 194, 254, 194, 271, 194
 C 283 201, 290, 215, 302, 219
 C 308 220, 313, 222, 317, 220
 C 323 216, 320, 212, 325, 210
 C 321 211, 319, 213, 317, 215
 C 311 217, 306, 217, 301, 217
 C 290 208, 282, 199, 274, 191
 C 255 191, 238, 191, 221, 191
 C 213 195, 208, 202, 202, 206
 C 181 207, 162, 208, 143, 208
 C 125 224, 109, 240, 94, 256
 C 87 253, 85, 247, 79, 245
 C 81 251, 86, 254, 89, 257
 C 89 261, 89, 264, 85, 265
 C 89 256, 77, 252, 74, 243
 C 84 241, 87, 249, 92, 252
 C 111 237, 127, 215, 146, 203
 C 149 194, 146, 182, 149, 173
 C 150 158, 137, 150, 142, 134
 C 127 121, 115, 104, 101, 96
 C 115 101, 129, 119, 142, 130
 C 138 158, 162, 135, 152, 154
 C 158 155, 161, 150, 164, 154
 C 163 162, 159, 158, 155, 157
 C 151 154, 148, 151, 145, 148
 C 150 154, 149, 162, 151, 170
 C 159 157, 171, 162, 180, 159
 C 176 155, 157, 148, 156, 141
 C 163 140, 163, 147, 169, 149
 C 175 150, 180, 151, 184, 151
 C 168 151, 159, 133, 149, 136
 C 160 132, 166, 139, 171, 145
 C 179 142, 184, 147, 188, 147
 C 170 147, 166, 128, 151, 130
 C 136 115, 118, 101, 108, 87
 C 126 93, 137, 108, 150, 119
 C 167 124, 180, 136, 196, 139
 C 180 133, 170, 121, 155, 118
 C 140 107, 130, 94, 118, 85
 C 116 82, 118, 79, 119, 79
 C 129 94, 143, 104, 153, 116
 C 170 120, 182, 129, 196, 134
 C 205 134, 213, 124, 224, 127
 C 223 120, 219, 118, 217, 114
 C 210 112, 207, 115, 205, 119
 C 193 118, 181, 122, 174, 116
 C 182 120, 204, 117, 215, 110
 C 221 116, 225, 120, 228, 123
 C 222 135, 206, 125, 203, 140
 C 216 134, 230, 129, 241, 121
 C 261 135, 260, 153, 278, 164
 C 280 173, 279, 179, 279, 184
 C 286 192, 293, 199, 300, 206
 C 305 208, 308, 209, 313, 208
 C 319 203, 324, 199, 325, 193
 C 318 199, 313, 209, 305, 205
 C 296 198, 290, 192, 284, 186
 C 283 178, 283, 172, 283, 167
 C 263 152, 263, 132, 244, 121
 C 232 121, 228, 108, 220, 104
 C 199 104, 178, 101, 159, 104
 C 152 94, 140, 82, 131, 76
 L 129 74 L 129 73 L 130 73" fill="rgb(160,128,105)" />
<path  d="
 M 130 72 C 133 79, 153, 91, 158, 102
 C 178 100, 199, 103, 218, 101
 C 228 107, 232, 120, 242, 119
 C 264 132, 264, 152, 283, 164
 C 284 172, 284, 178, 284, 184
 C 290 191, 297, 198, 303, 204
 C 313 208, 319, 197, 326, 192
 C 325 199, 319, 204, 314, 208
 C 308 210, 305, 209, 302, 207
 C 292 199, 286, 193, 279, 186
 C 278 179, 279, 173, 278, 166
 C 259 154, 261, 135, 243, 125
 C 230 130, 216, 135, 205, 140
 C 201 138, 206, 135, 207, 133
 C 214 126, 223, 133, 226, 125
 C 224 120, 221, 117, 217, 113
 C 205 116, 183, 123, 176, 112
 C 182 121, 194, 117, 202, 119
 C 207 114, 210, 111, 215, 113
 C 219 116, 222, 119, 224, 121
 C 217 129, 205, 131, 198, 139
 C 182 130, 170, 121, 156, 116
 C 143 105, 129, 94, 121, 82
 C 124 91, 142, 104, 152, 117
 C 158 119, 161, 118, 165, 119
 C 172 134, 189, 124, 195, 138
 C 181 138, 167, 125, 152, 121
 C 137 109, 126, 94, 113, 85
 C 121 101, 136, 115, 149, 128
 C 166 128, 171, 145, 189, 142
 C 185 150, 179, 142, 174, 147
 C 166 140, 160, 133, 152, 133
 C 157 134, 166, 139, 171, 147
 C 177 147, 181, 145, 183, 149
 C 181 154, 175, 150, 171, 152
 C 164 148, 162, 142, 159, 140
 C 159 148, 178, 153, 182, 155
 C 172 164, 159, 157, 154, 172
 C 147 164, 150, 154, 142, 149
 C 150 152, 158, 161, 164, 156
 C 159 152, 158, 156, 156, 156
 C 148 152, 153, 149, 155, 147
 C 151 144, 149, 146, 150, 149
 C 141 145, 145, 138, 143, 132
 C 129 118, 115, 104, 104, 92
 C 116 104, 128, 121, 142, 132
 C 138 150, 151, 158, 149, 172
 C 147 182, 150, 194, 148, 203
 C 127 215, 112, 238, 93, 253
 C 87 250, 84, 242, 76, 244
 C 77 252, 91, 256, 83, 262
 C 89 263, 87, 261, 88, 260
 C 85 254, 80, 251, 78, 247
 C 84 245, 87, 252, 91, 254
 C 109 239, 125, 223, 141, 208
 C 162 206, 181, 207, 201, 207
 C 208 201, 213, 194, 218, 190
 C 238 190, 255, 190, 272, 190
 C 282 198, 290, 207, 299, 214
 C 305 216, 309, 216, 314, 216
 C 319 214, 321, 210, 325, 208
 C 321 212, 323, 217, 318, 219
 C 313 223, 308, 221, 304, 222
 C 290 216, 283, 202, 273, 195
 C 254 195, 238, 195, 222, 195
 C 214 199, 209, 206, 203, 210
 C 182 211, 163, 212, 144, 212
 C 127 227, 111, 243, 98, 257
 C 96 261, 100, 262, 101, 265
 C 109 266, 114, 266, 120, 266
 C 133 253, 145, 241, 156, 229
 C 166 231, 174, 234, 180, 242
 C 178 238, 169, 230, 160, 229
 C 162 222, 167, 224, 171, 223
 C 178 229, 181, 232, 185, 236
 C 185 242, 180, 244, 178, 248
 C 172 244, 169, 241, 165, 237
 L 164 237
 L 161 237 C 158 234, 155, 237, 153, 240
 C 150 253, 167, 257, 168, 267
 C 167 259, 152, 253, 152, 242
 C 156 237, 158, 236, 162, 237
 C 169 241, 171, 246, 177, 249
 C 181 245, 187, 242, 188, 238
 C 182 232, 178, 228, 173, 223
 C 168 223, 164, 221, 161, 223
 C 146 237, 134, 251, 121, 264
 C 111 264, 102, 267, 98, 259
 C 114 243, 128, 227, 142, 214
 C 155 213, 165, 213, 176, 213
 C 184 223, 199, 229, 199, 240
 C 191 250, 185, 256, 178, 263
 C 168 258, 161, 244, 157, 244
 C 164 250, 168, 258, 174, 263
 C 177 276, 176, 289, 177, 301
 C 180 303, 182, 303, 183, 302
 C 185 297, 185, 293, 185, 289
 C 202 275, 211, 256, 221, 243
 C 224 240, 221, 240, 220, 241
 C 215 248, 209, 252, 211, 260
 C 201 268, 194, 278, 186, 285
 C 183 290, 184, 296, 183, 300
 C 174 302, 179, 293, 177, 289
 C 181 281, 189, 279, 186, 271
 C 194 265, 202, 268, 205, 258
 C 209 257, 210, 250, 207, 251
 C 208 258, 199, 266, 194, 266
 C 198 254, 207, 246, 216, 238
 C 222 235, 224, 239, 227, 239
 C 225 231, 219, 241, 215, 234
 C 212 226, 214, 217, 205, 214
 C 206 210, 209, 211, 210, 210
 C 221 214, 216, 223, 218, 229
 C 223 232, 226, 231, 230, 231
 C 232 234, 232, 235, 233, 237
 C 218 252, 211, 273, 190, 287
 C 190 295, 190, 300, 190, 306
 C 184 308, 179, 308, 174, 307
 C 179 319, 192, 314, 200, 316
 C 207 311, 210, 307, 208, 301
 C 219 303, 223, 293, 229, 289
 C 235 294, 240, 299, 244, 303
 C 246 311, 246, 316, 246, 322
 C 222 324, 201, 322, 180, 320
 C 174 315, 172, 311, 169, 309
 L 168 307
 L 168 305 C 167 294, 168, 283, 168, 273
 L 168 271
 L 166 268 C 161 263, 155, 257, 149, 251
 C 137 250, 132, 263, 123, 268
 C 110 270, 97, 271, 91, 262
 C 91 270, 97, 273, 95, 278
 C 102 274, 112, 274, 116, 279
 C 119 269, 103, 281, 98, 273
 C 94 270, 89, 267, 91, 264
 C 95 266, 97, 268, 99, 270
 C 107 270, 114, 270, 121, 270
 C 131 264, 136, 252, 146, 251
 C 155 258, 160, 264, 167, 271
 C 167 281, 168, 295, 167, 305
 C 166 308, 164, 307, 163, 308
 C 150 307, 139, 308, 129, 308
 L 127 308
 L 125 309 C 123 310, 119, 309, 121, 313
 C 131 313, 148, 313, 161, 314
 C 170 316, 174, 323, 179, 327
 L 181 329
 L 183 328 C 203 329, 224, 328, 245, 329
 C 248 330, 250, 327, 247, 326
 C 227 331, 204, 327, 183, 329
 C 177 322, 168, 318, 167, 312
 C 154 316, 137, 309, 125, 314
 C 126 311, 125, 309, 126, 308
 C 139 308, 150, 309, 161, 309
 C 170 307, 174, 317, 180, 320
 C 202 322, 223, 323, 244, 322
 L 246 324
 L 246 321 C 247 316, 247, 310, 247, 305
 C 241 298, 236, 293, 231, 288
 C 222 291, 219, 302, 209, 299
 C 217 295, 220, 288, 227, 283
 C 237 279, 252, 286, 256, 281
 C 247 284, 237, 280, 229, 282
 C 220 285, 215, 298, 208, 295
 C 214 288, 218, 284, 223, 280
 C 230 270, 246, 280, 249, 276
 C 242 276, 231, 277, 225, 273
 C 222 281, 212, 286, 208, 292
 C 208 295, 208, 296, 208, 297
 C 210 306, 206, 309, 202, 313
 C 193 315, 184, 318, 178, 311
 C 182 308, 186, 308, 189, 308
 C 190 301, 191, 297, 190, 290
 C 202 275, 219, 267, 221, 249
 C 232 247, 226, 256, 226, 258
 C 239 264, 243, 253, 250, 249
 C 249 240, 248, 226, 252, 218
 C 246 211, 238, 211, 230, 212
 C 224 207, 219, 202, 222, 196
 C 226 200, 227, 209, 236, 207
 C 247 199, 222, 212, 228, 196
 C 243 195, 257, 196, 270, 195
 C 280 206, 293, 214, 298, 224
 L 299 223 L 301 224 L 302 223
 L 303 221 C 313 224, 320, 220, 326, 215
 C 326 211, 326, 207, 328, 205
 C 322 208, 319, 211, 315, 214
 C 310 216, 305, 215, 301, 215
 C 291 206, 284, 198, 276, 191
 L 274 190
 L 272 190 C 255 190, 239, 190, 223, 190
 L 221 190
 L 218 189 C 213 193, 208, 200, 202, 204
 C 195 206, 189, 206, 184, 206
 C 193 198, 194, 187, 194, 174
 C 199 176, 202, 171, 203, 176
 C 209 188, 197, 191, 195, 195
 C 202 197, 200, 190, 205, 189
 C 206 181, 206, 176, 202, 172
 C 217 174, 205, 188, 211, 192
 C 209 183, 213, 173, 206, 168
 C 212 168, 214, 171, 217, 173
 C 234 166, 245, 182, 261, 174
 C 253 163, 240, 156, 242, 143
 C 235 144, 233, 148, 229, 150
 C 223 151, 218, 152, 214, 152
 C 216 145, 221, 147, 224, 146
 C 230 145, 233, 140, 237, 138
 C 245 151, 262, 163, 268, 179
 C 250 185, 227, 183, 213, 183
 C 231 182, 251, 187, 267, 183
 C 267 177, 269, 173, 267, 170
 C 251 160, 250, 147, 240, 135
 C 234 139, 231, 143, 227, 146
 C 219 145, 214, 149, 211, 148
 C 217 137, 232, 145, 236, 129
 C 254 139, 253, 158, 271, 167
 C 274 175, 266, 185, 273, 186
 C 272 180, 272, 175, 273, 169
 C 254 158, 256, 141, 243, 130
 C 232 136, 216, 144, 206, 144
 C 220 138, 230, 128, 241, 123
 C 261 137, 258, 156, 278, 166
 C 278 174, 278, 179, 278, 184
 L 278 186
 L 279 187 C 285 196, 296, 202, 301, 211
 C 313 213, 320, 204, 327, 198
 C 329 195, 327, 193, 328, 189
 C 319 193, 315, 206, 304, 203
 C 297 197, 291, 191, 285, 185
 C 283 178, 284, 172, 283, 167
 C 264 152, 266, 131, 245, 119
 C 233 120, 228, 106, 220, 102
 C 199 99, 177, 102, 158, 99
 C 150 89, 138, 82, 134, 73" fill="#f19daf" />
<path  d="
 M 87 111 C 95 119, 108, 136, 121, 146
 C 121 157, 120, 165, 129, 169
 C 133 161, 120, 158, 125, 147
 C 116 138, 110, 132, 103, 125
 C 106 120, 108, 117, 111, 115
 C 120 121, 127, 133, 133, 134
 C 135 138, 133, 140, 131, 139
 C 127 131, 117, 126, 113, 119
 C 109 119, 108, 120, 107, 121
 C 119 135, 129, 146, 130, 164
 C 134 176, 133, 188, 134, 200
 C 119 214, 107, 228, 94, 241
 C 88 235, 82, 233, 74, 235
 C 81 236, 87, 239, 91, 245
 C 107 231, 121, 217, 135, 204
 C 136 182, 137, 163, 129, 147
 C 124 136, 114, 129, 108, 124
 C 117 124, 123, 138, 133, 143
 C 134 151, 132, 157, 138, 159
 C 138 175, 139, 189, 138, 202
 C 123 219, 109, 233, 95, 248
 C 87 245, 82, 234, 74, 242
 C 70 239, 71, 236, 71, 233
 C 80 231, 88, 230, 92, 238
 C 106 225, 118, 213, 129, 201
 C 131 196, 130, 191, 130, 187
 C 123 179, 116, 172, 110, 166
 C 106 159, 109, 154, 109, 150
 C 104 155, 106, 160, 105, 164
 C 112 175, 127, 181, 126, 192
 C 106 199, 96, 197, 77, 193
 C 73 200, 77, 209, 73, 214
 C 77 223, 94, 224, 101, 226
 C 91 229, 81, 219, 74, 229
 C 67 227, 68, 221, 66, 219
 C 63 208, 71, 213, 73, 209
 C 68 206, 66, 211, 64, 208
 C 61 200, 68, 197, 66, 190
 C 78 181, 95, 185, 104, 190
 C 99 176, 83, 186, 78, 178
 C 71 179, 69, 185, 65, 187
 C 65 182, 59, 179, 61, 177
 C 66 176, 68, 173, 70, 170
 C 83 173, 93, 175, 106, 173
 C 111 179, 116, 184, 121, 185
 C 122 189, 119, 191, 118, 190
 C 115 184, 109, 181, 106, 176
 C 92 177, 82, 175, 73, 172
 C 67 175, 68, 180, 65, 181
 C 69 179, 72, 175, 75, 174
 C 83 181, 92, 177, 99, 179
 C 103 182, 107, 184, 108, 188
 C 98 193, 86, 183, 72, 189
 C 71 194, 67, 199, 67, 203
 C 77 206, 68, 193, 76, 192
 C 95 192, 106, 198, 121, 190
 C 122 180, 109, 175, 104, 166
 C 100 156, 106, 151, 109, 145
 C 118 145, 111, 149, 114, 151
 C 114 157, 109, 156, 111, 162
 C 117 169, 124, 176, 130, 182
 C 121 170, 121, 155, 114, 141
 C 96 147, 103, 162, 94, 170
 C 81 173, 77, 157, 65, 163
 C 66 158, 62, 158, 62, 156
 C 75 153, 72, 138, 80, 135
 C 82 131, 81, 129, 82, 128
 C 76 132, 70, 138, 71, 144
 C 67 148, 65, 144, 64, 143
 C 71 136, 77, 127, 78, 122
 C 86 122, 86, 133, 82, 136
 C 85 138, 88, 138, 89, 136
 C 94 132, 85, 130, 90, 126
 C 94 125, 96, 127, 95, 129
 C 96 144, 79, 138, 77, 143
 C 89 144, 98, 134, 107, 137
 C 96 142, 80, 144, 70, 152
 C 77 157, 81, 152, 86, 148
 C 92 156, 84, 155, 82, 155
 C 86 154, 92, 157, 89, 162
 C 82 159, 73, 154, 67, 159
 C 79 155, 82, 170, 91, 167
 C 97 157, 96, 146, 108, 141
 C 102 130, 93, 120, 84, 116" fill="#f19daf" />
<path  d="
 M 247 201
 L 248 200 C 258 197, 262, 208, 268, 211
 C 269 227, 268, 241, 269, 255
 C 276 255, 282, 256, 286, 255
 C 281 250, 278, 256, 273, 254
 C 268 241, 272, 227, 270, 215
 C 269 208, 264, 205, 262, 200
 C 267 200, 271, 198, 272, 202
 C 281 210, 288, 217, 296, 225
 C 304 227, 311, 225, 315, 224
 C 314 235, 305, 225, 297, 229
 C 286 219, 278, 208, 268, 201
 C 276 212, 278, 219, 295, 229
 C 293 236, 301, 242, 292, 243
 C 287 238, 296, 233, 289, 229
 C 284 222, 280, 221, 274, 218
 C 279 225, 293, 230, 288, 242
 C 291 246, 289, 248, 287, 247
 C 283 243, 287, 239, 285, 233
 C 282 227, 278, 226, 274, 226
 C 274 234, 285, 229, 283, 238
 C 285 242, 283, 244, 281, 243
 C 280 236, 282, 235, 274, 233
 C 275 238, 270, 248, 278, 248
 C 283 250, 288, 246, 289, 252
 C 296 238, 314, 235, 320, 225
 C 323 223, 325, 224, 325, 226
 C 320 243, 300, 250, 289, 267
 C 274 265, 228, 274, 261, 250
 C 260 239, 260, 229, 260, 219
 C 258 210, 251, 207, 248, 202" fill="rgb(160,128,105)" />
<path  d="
 M 189 58 C 198 57, 206, 57, 212, 62
 C 235 85, 253, 102, 275, 126
 C 280 127, 282, 127, 283, 126
 C 279 123, 281, 119, 281, 115
 C 277 116, 272, 116, 269, 115
 C 250 97, 232, 74, 215, 63
 C 214 58, 219, 57, 220, 61
 C 237 78, 255, 95, 271, 112
 C 277 114, 279, 112, 280, 109
 C 283 115, 281, 119, 285, 123
 C 286 116, 286, 109, 286, 102
 C 282 105, 277, 112, 271, 110
 C 270 101, 281, 100, 279, 93
 C 275 96, 271, 102, 266, 103
 C 261 94, 271, 93, 272, 87
 C 267 89, 264, 95, 257, 95
 C 254 87, 262, 86, 263, 81
 C 258 82, 256, 88, 251, 88
 C 246 80, 255, 79, 252, 74
 C 250 77, 246, 82, 243, 80
 C 239 76, 245, 73, 243, 71
 C 240 73, 238, 73, 235, 72
 C 236 64, 231, 66, 226, 66
 C 225 62, 227, 59, 228, 59
 C 233 64, 242, 63, 236, 69
 C 240 68, 243, 65, 247, 67
 C 253 73, 244, 73, 243, 76
 C 249 76, 251, 68, 256, 72
 C 263 79, 251, 78, 252, 85
 C 258 82, 261, 72, 266, 78
 C 271 85, 259, 85, 259, 92
 C 264 90, 267, 86, 271, 83
 C 275 83, 278, 84, 277, 88
 C 273 91, 269, 95, 266, 98
 C 272 97, 275, 93, 279, 90
 C 282 90, 284, 90, 284, 92
 C 284 99, 276, 100, 273, 107
 C 279 105, 283, 99, 287, 96
 C 289 108, 289, 117, 289, 127
 C 284 128, 280, 128, 276, 128
 C 262 107, 242, 104, 227, 89
 C 219 84, 211, 86, 204, 85
 C 205 73, 188, 69, 187, 60" fill="rgb(160,128,105)" />
<path  d="
 M 300 265
 L 302 263 C 311 269, 291, 274, 289, 281
 C 280 274, 270, 278, 262, 276
 C 268 283, 284, 276, 289, 286
 C 282 297, 274, 284, 264, 289
 C 259 294, 254, 297, 251, 301
 C 261 324, 247, 340, 251, 362
 C 253 342, 262, 322, 253, 303
 C 258 298, 261, 295, 263, 292
 C 271 292, 280, 289, 282, 296
 C 274 299, 275, 291, 265, 295
 C 261 297, 259, 299, 257, 301
 C 257 314, 262, 322, 262, 333
 C 254 341, 257, 358, 255, 367
 C 250 365, 242, 365, 232, 366
 C 228 369, 225, 372, 222, 374
 C 229 371, 237, 366, 248, 369
 C 251 373, 251, 377, 249, 379
 C 242 375, 235, 381, 232, 380
 C 233 368, 244, 382, 248, 371
 C 242 370, 238, 370, 234, 370
 C 228 373, 229, 378, 227, 380
 C 223 377, 219, 380, 216, 378
 C 222 372, 225, 367, 229, 363
 C 237 363, 242, 363, 248, 363
 C 248 353, 248, 345, 248, 336
 C 225 335, 202, 335, 179, 335
 C 173 330, 169, 326, 165, 322
 C 152 321, 142, 321, 132, 321
 C 133 324, 154, 325, 162, 322
 C 165 329, 173, 333, 177, 338
 C 201 337, 224, 340, 245, 337
 C 247 339, 247, 340, 246, 342
 C 223 341, 200, 342, 179, 341
 C 171 337, 167, 329, 160, 328
 C 149 327, 139, 326, 130, 327
 C 127 325, 127, 323, 124, 323
 C 134 315, 150, 319, 162, 317
 C 169 323, 173, 328, 178, 332
 C 203 332, 226, 332, 248, 332
 C 255 322, 245, 314, 249, 301
 C 244 294, 238, 292, 234, 289
 C 242 281, 241, 295, 248, 296
 C 255 293, 236, 291, 245, 285
 C 251 287, 248, 291, 253, 293
 C 256 293, 246, 288, 253, 285
 C 256 286, 257, 287, 256, 290
 C 262 283, 275, 285, 282, 288
 C 283 286, 282, 283, 281, 283
 C 272 283, 266, 283, 260, 283
 C 258 280, 258, 278, 257, 275
 C 268 276, 280, 272, 286, 278
 C 292 275, 298, 271, 299, 267" fill="rgb(160,128,105)" />
<path  d="
 M 144 390
 L 145 389 C 159 391, 178, 391, 192, 389
 C 196 398, 207, 404, 212, 412
 C 212 404, 221, 400, 225, 394
 C 218 389, 215, 400, 209, 402
 C 203 399, 201, 395, 197, 393
 C 203 391, 207, 390, 210, 388
 C 215 391, 213, 394, 211, 394
 C 207 395, 207, 392, 203, 393
 C 204 395, 205, 396, 207, 398
 C 214 391, 221, 389, 231, 391
 C 227 397, 222, 400, 218, 404
 C 213 417, 226, 422, 229, 429
 C 220 432, 217, 428, 215, 424
 C 213 428, 211, 431, 209, 432
 C 202 425, 210, 425, 213, 423
 C 217 424, 219, 429, 224, 427
 C 212 416, 202, 400, 189, 394
 C 194 400, 202, 408, 209, 415
 C 207 425, 196, 422, 196, 431
 C 189 429, 181, 431, 174, 430
 C 180 424, 175, 420, 176, 414
 C 184 416, 180, 423, 179, 426
 C 186 429, 191, 427, 195, 424
 C 189 425, 186, 417, 181, 414
 C 169 420, 153, 415, 140, 417
 C 140 424, 145, 424, 150, 426
 C 158 428, 164, 428, 168, 424
 C 164 423, 159, 423, 156, 426
 C 151 423, 153, 420, 155, 420
 C 160 423, 170, 422, 172, 419
 C 181 426, 168, 424, 170, 431
 C 161 430, 154, 430, 146, 431
 C 142 427, 140, 423, 135, 423
 C 135 418, 135, 416, 136, 414
 C 151 412, 165, 416, 176, 411
 C 185 409, 188, 423, 197, 420
 C 191 419, 188, 411, 182, 408
 C 170 414, 153, 409, 140, 411
 C 132 399, 171, 416, 179, 402
 C 188 408, 192, 413, 197, 417
 C 196 411, 189, 407, 186, 402
 C 172 401, 163, 407, 150, 404
 C 151 401, 150, 398, 150, 396
 C 155 396, 166, 400, 170, 394
 C 163 393, 157, 393, 152, 393
 C 147 395, 144, 395, 143, 399
 C 143 398, 149, 403, 146, 406
 C 141 408, 141, 404, 139, 404
 C 138 399, 142, 396, 143, 392" fill="rgb(160,128,105)" />
<path  d="
 M 190 58 C 183 68, 207, 72, 202, 83
 C 211 85, 219, 83, 225, 87
 C 242 103, 262, 106, 274, 128
 C 280 128, 283, 127, 287, 128
 C 288 117, 288, 108, 288, 99
 C 282 101, 279, 107, 274, 109
 C 275 101, 282, 98, 285, 94
 C 277 86, 273, 99, 268, 100
 C 267 96, 272, 91, 275, 89
 C 277 85, 274, 84, 273, 83
 C 266 86, 264, 93, 259, 94
 C 259 85, 267, 85, 269, 80
 C 261 73, 258, 83, 253, 85
 C 247 79, 260, 79, 258, 74
 C 251 69, 249, 77, 245, 79
 C 241 72, 250, 74, 248, 68
 C 232 78, 239, 56, 225, 62
 C 239 58, 231, 79, 242, 69
 C 247 73, 241, 75, 243, 79
 C 247 81, 250, 76, 251, 74
 C 257 79, 248, 80, 250, 85
 L 251 87 L 252 87
 L 254 87 C 256 84, 259, 81, 261, 78
 C 265 86, 256, 86, 256, 93
 C 264 94, 266, 88, 270, 85
 C 274 93, 263, 93, 265, 101
 C 272 101, 274, 94, 279, 91
 C 282 100, 271, 101, 271, 107
 C 278 109, 282, 103, 285, 100
 C 286 109, 287, 117, 287, 125
 C 282 120, 281, 116, 283, 111
 C 279 114, 276, 115, 272, 114
 C 254 95, 235, 78, 219, 60
 C 212 68, 202, 54, 193, 59" fill="rgb(160,128,105)" />
<path  d="
 M 181 56 C 182 55, 186, 55, 187, 56
 C 188 61, 185, 62, 183, 61
 C 188 68, 193, 73, 197, 77
 C 198 82, 198, 85, 199, 88
 C 207 88, 215, 89, 223, 89
 C 256 116, 290, 136, 319, 170
 C 320 178, 312, 182, 308, 187
 C 298 181, 298, 173, 299, 164
 C 306 157, 309, 170, 316, 170
 C 315 179, 309, 172, 307, 177
 C 302 175, 305, 171, 303, 170
 C 300 176, 303, 180, 307, 182
 C 311 179, 318, 177, 318, 172
 C 313 166, 308, 161, 304, 157
 C 302 164, 296, 157, 295, 158
 C 298 165, 295, 173, 297, 179
 C 300 184, 303, 187, 305, 189
 C 313 184, 326, 179, 323, 169
 C 315 155, 302, 145, 293, 134
 C 291 130, 291, 128, 291, 125
 C 304 134, 314, 147, 325, 154
 C 330 157, 324, 163, 323, 160
 C 315 147, 302, 139, 295, 130
 C 302 141, 314, 156, 327, 163
 C 327 168, 324, 171, 326, 177
 C 319 184, 314, 189, 309, 195
 C 303 190, 298, 185, 294, 181
 C 293 174, 294, 167, 293, 161
 C 286 154, 281, 149, 276, 144
 C 275 134, 281, 136, 284, 139
 C 261 126, 245, 106, 224, 94
 C 215 92, 207, 92, 199, 92
 C 202 76, 180, 70, 180, 59" fill="rgb(160,128,105)" />
<path  d="
 M 248 200 C 250 206, 259, 209, 259, 217
 C 261 229, 261, 239, 261, 250
 C 228 274, 277, 263, 288, 266
 C 300 256, 307, 244, 317, 240
 C 320 234, 324, 229, 324, 226
 C 317 236, 297, 237, 290, 253
 C 288 247, 282, 251, 280, 251
 C 269 249, 273, 239, 272, 234
 C 275 233, 278, 233, 281, 234
 C 280 238, 279, 239, 280, 242
 C 283 243, 284, 242, 283, 239
 L 283 238 L 283 237
 L 282 234 C 280 232, 271, 232, 273, 225
 C 279 225, 283, 228, 285, 232
 C 286 237, 287, 242, 284, 244
 C 288 247, 290, 246, 289, 243
 C 293 229, 276, 226, 272, 218
 C 290 218, 292, 240, 294, 242
 C 288 220, 272, 215, 267, 201
 C 278 207, 286, 218, 296, 226
 C 305 224, 313, 232, 316, 227
 C 310 227, 303, 227, 298, 226
 C 288 218, 281, 211, 274, 204
 C 271 201, 270, 200, 267, 201
 L 265 200 L 264 200 L 264 201
 L 264 201 C 265 205, 270, 208, 270, 213
 C 273 227, 269, 241, 273, 252
 C 279 251, 282, 252, 287, 254
 C 282 258, 276, 256, 272, 257
 C 266 243, 268, 227, 267, 214
 C 261 209, 258, 198, 249, 201" fill="rgb(160,128,105)" />
<path  d="
 M 85 114 C 90 120, 103, 129, 110, 138
 C 95 146, 99, 159, 94, 168
 C 82 171, 79, 156, 69, 162
 C 69 152, 83, 158, 87, 162
 C 90 155, 84, 159, 82, 158
 C 83 151, 90, 158, 88, 150
 C 82 153, 76, 158, 68, 154
 C 79 143, 94, 141, 104, 140
 C 97 137, 89, 144, 78, 144
 C 75 134, 95, 146, 93, 130
 C 95 127, 94, 126, 91, 127
 C 88 131, 94, 132, 91, 134
 C 88 139, 86, 139, 82, 138
 C 84 134, 86, 124, 81, 121
 C 77 129, 70, 137, 65, 142
 C 71 143, 71, 132, 79, 128
 C 84 124, 82, 131, 83, 132
 C 74 139, 76, 152, 64, 154
 C 63 158, 67, 158, 65, 161
 L 67 162 L 68 162
 L 69 162 C 80 158, 82, 173, 92, 169
 C 101 160, 97, 146, 112, 141
 C 121 145, 122, 153, 120, 162
 C 123 167, 128, 170, 130, 175
 C 132 179, 132, 181, 131, 182
 C 123 176, 117, 170, 111, 164
 C 113 154, 115, 153, 112, 145
 C 107 150, 101, 156, 104, 165
 C 110 175, 124, 180, 124, 191
 C 106 199, 95, 193, 77, 192
 C 70 195, 78, 207, 69, 206
 C 65 200, 70, 193, 70, 187
 C 85 183, 97, 190, 106, 191
 C 106 184, 103, 183, 100, 181
 C 92 178, 83, 182, 78, 176
 C 72 176, 69, 180, 66, 182
 C 66 179, 66, 176, 71, 172
 C 82 174, 92, 176, 104, 174
 C 113 178, 115, 193, 121, 188
 C 115 185, 111, 179, 108, 176
 L 106 175
 L 104 174 C 88 180, 75, 162, 64, 177
 C 60 179, 66, 181, 63, 185
 C 69 184, 71, 178, 75, 176
 C 84 185, 100, 174, 105, 187
 C 96 188, 80, 181, 68, 188
 C 69 197, 62, 200, 64, 207
 C 67 209, 69, 205, 73, 207
 C 73 211, 70, 214, 68, 211
 C 67 218, 68, 224, 71, 227
 C 81 219, 90, 226, 98, 230
 C 92 226, 76, 223, 73, 215
 C 73 212, 74, 211, 73, 208
 C 74 202, 72, 198, 75, 194
 C 96 196, 106, 198, 124, 192
 C 126 181, 111, 175, 106, 166
 C 105 160, 102, 153, 108, 151
 C 111 153, 106, 159, 109, 164
 C 117 172, 124, 179, 130, 185
 C 132 192, 131, 195, 131, 199
 C 118 213, 107, 226, 95, 238
 C 88 232, 80, 232, 72, 233
 C 72 235, 71, 238, 72, 240
 C 82 233, 87, 244, 92, 248
 C 108 232, 123, 219, 137, 205
 C 137 189, 138, 175, 137, 161
 C 131 157, 133, 151, 133, 145
 C 124 137, 115, 127, 111, 121
 C 116 128, 125, 137, 131, 144
 C 138 163, 137, 182, 136, 202
 C 121 217, 108, 232, 94, 246
 C 87 240, 82, 237, 74, 236
 C 79 232, 88, 233, 91, 240
 C 106 227, 119, 214, 132, 202
 C 133 188, 132, 176, 133, 165
 C 128 146, 118, 135, 105, 124
 C 108 120, 109, 119, 111, 118
 C 118 125, 126, 130, 130, 137
 C 133 139, 134, 138, 133, 135
 C 126 133, 120, 122, 113, 118
 C 109 117, 107, 121, 104, 122
 C 110 131, 118, 139, 125, 146
 C 121 158, 135, 162, 131, 172
 C 126 168, 124, 166, 121, 163
 C 121 157, 121, 153, 121, 149
 C 110 135, 94, 125, 89, 113" fill="rgb(160,128,105)" />
<path  d="
 M 141 256 C 137 258, 139, 261, 141, 263
 C 127 266, 120, 282, 110, 288
 C 107 288, 105, 286, 104, 284
 C 108 280, 112, 287, 114, 281
 C 109 277, 107, 284, 102, 281
 C 104 285, 107, 288, 109, 291
 C 118 283, 126, 275, 134, 268
 C 143 268, 151, 265, 158, 268
 C 152 276, 142, 272, 135, 274
 C 126 280, 121, 288, 114, 292
 C 116 297, 115, 297, 118, 306
 C 131 299, 147, 305, 160, 302
 C 162 293, 161, 284, 161, 275
 C 160 268, 155, 264, 149, 266
 C 158 256, 140, 254, 149, 264
 C 138 268, 144, 260, 143, 257" fill="rgb(160,128,105)" />
<path  d="
 M 181 159 C 185 157, 185, 165, 181, 165
 C 171 165, 163, 167, 158, 173
 C 156 177, 159, 178, 156, 182
 C 162 178, 169, 169, 180, 173
 C 190 186, 171, 193, 172, 199
 C 187 192, 178, 173, 189, 166
 C 188 172, 186, 180, 188, 189
 C 185 195, 178, 193, 178, 197
 C 190 196, 187, 180, 190, 171
 C 196 173, 191, 183, 194, 189
 C 188 196, 184, 200, 180, 205
 C 172 206, 166, 206, 161, 206
 C 165 197, 176, 191, 179, 182
 C 179 178, 178, 177, 175, 178
 C 173 182, 177, 181, 177, 185
 C 171 191, 167, 195, 163, 200
 C 160 191, 175, 186, 170, 176
 C 175 187, 156, 191, 160, 202
 C 157 207, 153, 205, 151, 206
 C 149 196, 148, 187, 148, 178
 C 154 172, 159, 167, 163, 162
 C 170 162, 175, 162, 179, 161" fill="rgb(160,128,105)" />
<path  d="
 M 167 59 M 168 57 M 170 60
 L 171 61 C 175 68, 184, 74, 189, 81
 C 192 85, 192, 91, 191, 94
 C 202 93, 213, 97, 222, 93
 C 235 113, 258, 114, 270, 137
 C 271 148, 284, 153, 289, 162
 C 291 169, 291, 175, 291, 181
 C 296 187, 299, 190, 303, 194
 C 313 199, 321, 185, 324, 180
 C 327 180, 330, 181, 330, 182
 C 320 187, 315, 198, 306, 202
 C 302 194, 293, 190, 288, 182
 C 288 175, 288, 170, 288, 165
 C 268 149, 268, 127, 245, 115
 C 233 117, 229, 100, 219, 99
 C 199 97, 181, 97, 163, 97
 C 156 87, 129, 76, 142, 65
 C 147 74, 155, 79, 160, 86
 C 166 89, 174, 90, 177, 86
 C 182 89, 182, 91, 179, 92
 C 174 90, 167, 90, 164, 94
 C 158 85, 149, 76, 142, 72
 C 147 79, 155, 87, 162, 94
 C 169 94, 175, 94, 181, 94
 C 182 91, 182, 88, 183, 86
 C 175 77, 169, 71, 163, 65
 C 163 62, 164, 61, 165, 60" fill="rgb(160,128,105)" />
<path  d="
 M 196 440
 L 198 438 C 203 443, 213, 437, 216, 446
 C 214 437, 229, 443, 232, 438
 C 231 448, 234, 453, 235, 462
 C 224 455, 212, 462, 202, 459
 C 216 460, 226, 468, 240, 465
 C 240 454, 240, 455, 240, 441
 C 247 451, 248, 458, 246, 467
 C 233 471, 218, 465, 204, 464
 C 199 462, 195, 458, 201, 457
 C 209 457, 216, 457, 223, 457
 C 220 451, 217, 448, 213, 445
 C 207 454, 200, 453, 194, 455
 C 196 464, 206, 468, 205, 477
 C 207 481, 204, 481, 203, 482
 C 204 473, 199, 467, 191, 462
 C 189 447, 206, 454, 208, 444
 C 207 443, 205, 443, 202, 443
 C 195 445, 192, 450, 189, 454
 C 186 466, 203, 470, 199, 482
 C 213 485, 221, 473, 233, 476
 C 224 476, 218, 473, 212, 470
 C 213 473, 211, 475, 210, 476
 C 203 474, 206, 471, 208, 469
 C 220 474, 235, 470, 245, 472
 C 229 479, 219, 482, 201, 487
 C 196 469, 171, 455, 197, 442" fill="rgb(160,128,105)" />
<path  d="
 M 144 389 C 143 394, 141, 399, 138, 403
 C 141 403, 141, 407, 144, 405
 C 146 400, 142, 401, 141, 401
 C 143 395, 147, 394, 149, 392
 C 157 392, 163, 392, 169, 392
 C 171 394, 168, 395, 169, 397
 C 161 399, 155, 396, 153, 395
 C 150 398, 153, 401, 149, 402
 C 163 406, 172, 400, 183, 400
 C 189 407, 198, 411, 199, 417
 C 192 414, 188, 409, 183, 405
 C 128 409, 128, 413, 186, 406
 C 187 410, 191, 417, 196, 419
 L 199 420 L 199 421
 L 197 421 C 189 423, 186, 415, 181, 412
 C 169 418, 152, 413, 139, 415
 C 137 418, 135, 418, 136, 421
 C 141 421, 143, 427, 144, 430
 C 154 429, 161, 429, 167, 431
 C 167 423, 179, 426, 175, 420
 C 170 423, 160, 424, 157, 420
 C 153 421, 154, 422, 154, 424
 C 159 422, 164, 422, 170, 423
 C 165 428, 159, 429, 151, 428
 C 145 426, 139, 424, 139, 417
 C 152 414, 169, 420, 179, 411
 C 186 416, 189, 424, 197, 422
 C 192 427, 187, 430, 179, 428
 C 178 424, 183, 417, 179, 414
 C 178 421, 180, 425, 174, 429
 C 182 430, 189, 428, 193, 430
 C 195 420, 207, 424, 209, 416
 C 204 408, 186, 398, 191, 394
 C 204 405, 215, 416, 224, 425
 C 220 431, 217, 425, 215, 423
 C 211 427, 205, 424, 207, 429
 C 212 432, 211, 426, 212, 424
 C 218 427, 220, 431, 226, 429
 C 223 422, 213, 417, 217, 406
 C 222 401, 225, 396, 229, 392
 C 222 391, 215, 391, 211, 399
 C 206 399, 204, 395, 201, 394
 C 207 390, 211, 399, 213, 390
 C 207 391, 204, 392, 199, 391
 C 201 395, 203, 398, 206, 400
 C 215 399, 219, 388, 227, 393
 C 221 400, 213, 405, 215, 414
 C 207 405, 196, 399, 193, 391
 C 186 393, 177, 391, 171, 392
 C 163 392, 157, 392, 152, 392
 C 148 391, 148, 389, 147, 390" fill="rgb(160,128,105)" />
<path  d="
 M 140 257
 L 141 256 C 146 256, 145, 261, 142, 263
 C 143 262, 154, 248, 150, 265
 C 156 263, 161, 269, 161, 274
 C 163 284, 162, 293, 162, 301
 C 148 306, 132, 300, 120, 307
 C 117 304, 114, 302, 114, 300
 C 121 292, 126, 287, 131, 282
 C 141 281, 148, 281, 156, 281
 C 157 287, 157, 292, 160, 296
 C 158 300, 156, 299, 155, 300
 C 153 295, 158, 283, 152, 282
 C 146 290, 157, 296, 149, 300
 C 144 295, 153, 282, 143, 282
 C 139 290, 149, 298, 141, 300
 L 139 299 L 138 298
 L 138 295 C 140 293, 142, 280, 136, 283
 C 135 288, 133, 293, 138, 295
 C 136 299, 133, 301, 131, 298
 C 132 293, 133, 290, 132, 285
 C 128 288, 126, 290, 124, 292
 C 121 296, 120, 297, 119, 299
 C 120 301, 117, 303, 119, 303
 C 126 300, 117, 297, 123, 295
 C 127 293, 129, 298, 127, 300
 C 137 300, 148, 300, 159, 300
 C 160 292, 161, 283, 160, 275
 C 151 277, 142, 275, 135, 276
 C 123 281, 119, 296, 112, 297
 C 117 289, 126, 281, 132, 273
 C 141 271, 156, 276, 158, 269
 C 148 268, 142, 268, 136, 268
 C 126 276, 118, 284, 111, 292
 C 107 289, 104, 287, 102, 283
 C 103 279, 109, 282, 110, 277
 C 114 279, 116, 282, 113, 284
 C 109 286, 108, 281, 105, 283
 C 106 285, 108, 287, 108, 289
 C 120 281, 127, 266, 138, 264
 C 140 261, 136, 261, 138, 258" fill="rgb(160,128,105)" />
<path  d="
 M 300 264 C 300 270, 293, 275, 289, 279
 C 280 273, 268, 277, 260, 275
 C 258 278, 258, 279, 259, 281
 C 266 282, 274, 281, 281, 282
 C 283 285, 284, 286, 283, 289
 C 275 286, 262, 284, 258, 291
 C 255 289, 256, 287, 255, 285
 C 247 290, 260, 291, 254, 294
 C 248 292, 249, 288, 247, 285
 C 240 291, 258, 294, 249, 299
 C 241 295, 242, 285, 237, 286
 C 240 290, 245, 295, 248, 300
 L 250 302
 L 250 303 C 247 315, 258, 324, 251, 333
 C 226 333, 203, 333, 180, 333
 C 173 329, 169, 324, 164, 320
 C 150 319, 135, 317, 124, 320
 C 127 322, 129, 325, 128, 326
 C 139 325, 149, 326, 158, 325
 C 167 328, 171, 336, 176, 340
 C 201 340, 228, 341, 248, 340
 C 224 341, 201, 338, 180, 340
 C 173 334, 165, 330, 164, 324
 C 153 327, 141, 323, 131, 325
 C 128 323, 130, 322, 129, 320
 C 142 320, 152, 320, 163, 320
 C 169 325, 173, 329, 178, 334
 C 202 334, 225, 334, 247, 334
 C 250 344, 249, 353, 249, 361
 C 243 364, 237, 364, 232, 364
 C 226 368, 222, 372, 218, 375
 C 230 386, 230, 362, 246, 371
 C 248 382, 233, 372, 231, 377
 C 236 379, 243, 375, 247, 380
 C 249 376, 249, 374, 250, 370
 L 248 370
 L 246 370 C 236 367, 230, 372, 224, 375
 C 226 370, 228, 368, 230, 365
 C 240 365, 251, 363, 253, 369
 C 256 358, 253, 341, 260, 334
 C 261 322, 256, 314, 255, 304
 C 259 299, 261, 297, 263, 294
 C 269 294, 272, 293, 276, 294
 C 277 301, 263, 294, 262, 303
 C 262 312, 265, 319, 264, 324
 C 267 316, 258, 311, 262, 303
 C 266 299, 270, 297, 274, 299
 C 269 302, 260, 310, 267, 313
 C 271 309, 267, 309, 267, 307
 C 276 306, 274, 296, 280, 298
 C 279 290, 271, 293, 266, 292
 C 261 296, 259, 298, 256, 300
 C 263 322, 254, 343, 253, 364
 L 251 364
 L 250 361 C 246 339, 260, 324, 248, 303
 C 253 297, 259, 293, 262, 288
 C 274 283, 282, 295, 286, 288
 C 289 282, 284, 284, 282, 283
 C 274 280, 264, 284, 259, 279
 C 268 276, 280, 273, 285, 280
 C 292 274, 306, 269, 303, 265" fill="rgb(160,128,105)" />
<path  d="
 M 179 212 C 190 216, 207, 231, 204, 242
 C 207 230, 194, 223, 188, 214
 C 196 212, 200, 224, 204, 227
 C 204 221, 198, 219, 195, 214
 C 210 209, 212, 227, 213, 236
 C 199 252, 188, 266, 181, 284
 C 177 277, 177, 271, 177, 265
 C 185 257, 192, 250, 199, 244
 C 201 230, 185, 224, 181, 215" fill="rgb(160,128,105)" />
<path  d="
 M 156 273 C 167 275, 159, 292, 162, 300
 C 148 301, 137, 301, 126, 301
 C 127 299, 128, 293, 123, 295
 C 126 290, 129, 287, 131, 284
 C 136 291, 128, 296, 133, 299
 C 135 294, 132, 289, 134, 283
 C 136 281, 137, 281, 139, 282
 C 144 288, 136, 297, 141, 299
 C 142 293, 141, 289, 142, 283
 C 144 281, 145, 281, 147, 282
 L 149 283
 L 148 285 C 151 290, 144, 295, 148, 299
 C 151 294, 146, 290, 149, 284
 C 150 281, 152, 282, 153, 281
 C 158 288, 151, 297, 156, 299
 C 157 293, 156, 288, 157, 282
 L 156 282
 L 153 281 C 152 282, 150, 281, 149, 282
 C 145 282, 143, 282, 140, 281
 C 137 282, 135, 281, 134, 282
 C 127 288, 122, 292, 118, 297
 C 118 287, 128, 282, 132, 275
 C 141 275, 147, 275, 154, 275" fill="rgb(160,128,105)" />
<path  d="
 M 183 160 C 179 165, 171, 161, 166, 163
 C 159 168, 155, 172, 151, 177
 C 149 187, 149, 195, 149, 203
 C 153 204, 156, 206, 158, 204
 C 156 191, 173, 186, 165, 176
 C 170 177, 173, 178, 173, 179
 C 173 189, 161, 191, 161, 198
 C 167 195, 170, 190, 174, 186
 C 176 182, 172, 182, 174, 178
 C 178 176, 180, 177, 180, 180
 C 177 190, 166, 196, 161, 204
 C 166 205, 172, 205, 178, 205
 C 184 200, 187, 195, 191, 191
 C 194 153, 191, 187, 183, 200
 C 179 199, 177, 199, 178, 196
 C 181 193, 184, 194, 185, 190
 C 187 182, 184, 174, 191, 170
 C 187 168, 187, 171, 184, 172
 C 187 186, 178, 193, 175, 200
 C 168 192, 189, 188, 180, 175
 C 177 173, 173, 173, 169, 173
 C 163 177, 162, 182, 159, 185
 C 154 180, 159, 177, 154, 175
 C 162 162, 176, 168, 184, 162" fill="rgb(160,128,105)" />
<path  d="
 M 182 56 C 176 69, 204, 74, 196, 90
 C 207 91, 215, 91, 223, 91
 C 245 105, 262, 126, 284, 137
 C 282 141, 276, 132, 276, 142
 C 282 149, 287, 154, 293, 160
 C 295 167, 294, 174, 295, 179
 C 299 185, 303, 189, 306, 192
 C 314 189, 319, 184, 324, 179
 C 323 171, 326, 167, 328, 165
 C 314 156, 301, 141, 293, 131
 C 303 137, 314, 147, 322, 157
 C 324 162, 329, 157, 326, 156
 C 313 147, 304, 135, 293, 126
 C 294 143, 317, 152, 323, 167
 C 327 179, 313, 185, 308, 192
 C 303 188, 299, 184, 297, 182
 C 294 173, 297, 165, 294, 159
 C 297 155, 301, 163, 302, 155
 C 309 161, 313, 165, 318, 170
 C 319 177, 311, 180, 309, 185
 C 303 180, 299, 177, 301, 171
 C 304 177, 310, 175, 316, 173
 C 309 171, 306, 159, 300, 162
 C 299 173, 299, 180, 306, 184
 C 311 182, 319, 178, 320, 172
 C 290 137, 256, 117, 224, 91
 C 215 89, 207, 90, 200, 90
 C 204 73, 172, 65, 188, 56" fill="rgb(160,128,105)" />
<path  d="
 M 251 201 C 256 199, 262, 208, 266, 212
 C 267 227, 267, 239, 267, 252
 C 264 257, 259, 255, 259, 260
 C 266 262, 262, 257, 265, 256
 C 271 260, 279, 256, 284, 258
 C 293 249, 301, 243, 308, 236
 C 312 234, 317, 235, 318, 233
 C 319 234, 320, 236, 319, 237
 C 306 243, 299, 257, 289, 264
 C 275 264, 264, 265, 252, 264
 C 253 259, 257, 256, 260, 252
 C 262 239, 260, 225, 263, 214
 C 259 212, 255, 207, 252, 204" fill="rgb(160,128,105)" />
<path  d="
 M 155 438 C 160 441, 171, 441, 176, 438
 C 175 449, 162, 438, 156, 446
 L 154 447
 L 155 446 C 169 449, 179, 445, 189, 439
 C 188 449, 178, 451, 182, 462
 C 193 468, 192, 480, 198, 488
 C 208 489, 215, 489, 218, 483
 C 224 490, 214, 490, 217, 496
 C 210 499, 203, 493, 198, 499
 C 183 485, 181, 464, 161, 457
 C 161 452, 164, 450, 167, 453
 C 178 466, 188, 477, 193, 491
 C 200 494, 205, 494, 210, 493
 C 221 490, 204, 492, 201, 491
 C 191 481, 185, 469, 178, 460
 C 176 457, 173, 462, 170, 457
 C 177 454, 181, 454, 186, 444
 C 178 453, 163, 448, 151, 450
 C 150 446, 154, 445, 154, 442" fill="rgb(160,128,105)" />
<path  d="
 M 126 77 M 126 75 M 128 76
 L 129 76 C 139 86, 148, 95, 158, 105
 C 173 106, 189, 102, 198, 113
 C 204 104, 212, 107, 218, 104
 C 222 111, 229, 116, 234, 118
 C 234 123, 231, 123, 230, 122
 C 226 114, 217, 108, 210, 108
 C 205 109, 204, 111, 202, 112
 C 189 108, 175, 107, 159, 109
 C 147 99, 137, 88, 128, 79
 C 133 88, 143, 98, 151, 106
 C 162 113, 174, 111, 178, 122
 C 196 129, 209, 113, 220, 120
 C 222 123, 223, 125, 222, 126
 C 215 127, 216, 122, 215, 121
 C 205 130, 191, 124, 180, 126
 C 174 121, 171, 118, 167, 114
 C 161 112, 159, 115, 156, 116
 C 147 101, 128, 90, 122, 77" fill="rgb(160,128,105)" />
<path  d="
 M 143 216
 L 145 214 C 146 214, 148, 217, 147, 218
 C 134 227, 125, 241, 114, 250
 C 129 242, 139, 224, 155, 218
 C 162 216, 168, 216, 174, 216
 C 199 230, 199, 246, 176, 257
 C 172 252, 166, 250, 162, 247
 C 170 240, 170, 253, 177, 254
 C 182 248, 192, 243, 192, 236
 C 186 230, 181, 226, 175, 221
 C 168 220, 162, 220, 157, 220
 C 148 235, 130, 246, 120, 260
 C 113 258, 109, 266, 105, 261
 C 108 252, 112, 260, 118, 257
 C 129 246, 139, 236, 149, 226
 C 138 229, 128, 250, 113, 255
 C 118 239, 134, 231, 141, 218" fill="rgb(160,128,105)" />
<path  d="
 M 133 329 C 141 328, 150, 329, 158, 328
 C 165 335, 171, 339, 175, 344
 C 188 347, 205, 344, 214, 346
 C 202 347, 188, 349, 176, 348
 C 183 353, 200, 351, 208, 350
 C 200 356, 186, 353, 176, 355
 C 181 357, 192, 357, 199, 356
 C 203 357, 203, 360, 202, 360
 C 192 357, 182, 361, 174, 359
 C 172 354, 172, 349, 171, 344
 C 167 339, 164, 336, 160, 332
 C 151 332, 144, 332, 137, 332
 C 136 334, 133, 335, 134, 337
 C 140 335, 149, 338, 155, 336
 C 161 340, 164, 346, 168, 346
 C 170 349, 170, 352, 167, 352
 C 162 349, 163, 344, 157, 341
 C 149 341, 140, 337, 134, 342
 C 132 337, 124, 333, 132, 329" fill="rgb(160,128,105)" />
<path  d="
 M 169 60 C 167 61, 165, 62, 163, 63
 C 170 71, 176, 77, 183, 84
 C 183 88, 184, 92, 184, 95
 C 175 95, 169, 95, 163, 95
 C 154 87, 146, 80, 139, 72
 C 149 75, 158, 84, 162, 91
 C 168 85, 180, 98, 180, 88
 C 174 91, 166, 90, 163, 87
 C 155 79, 146, 75, 145, 67
 C 132 76, 156, 87, 160, 96
 C 181 96, 199, 96, 217, 96
 C 229 99, 233, 116, 245, 112
 C 268 127, 269, 148, 288, 162
 C 289 170, 289, 175, 289, 181
 C 293 190, 302, 193, 304, 201
 C 314 198, 319, 187, 327, 184
 C 323 176, 315, 203, 306, 196
 C 299 191, 295, 187, 291, 183
 C 290 175, 290, 169, 290, 164
 C 283 153, 270, 148, 270, 138
 C 262 128, 254, 120, 247, 113
 C 235 112, 228, 101, 223, 95
 C 213 98, 202, 94, 193, 96
 C 190 92, 192, 86, 190, 82
 C 183 74, 175, 69, 171, 62" fill="rgb(160,128,105)" />
<path  d="
 M 219 197 C 223 197, 220, 209, 228, 211
 C 234 213, 238, 213, 243, 213
 C 248 215, 247, 218, 248, 221
 C 249 229, 249, 236, 249, 243
 C 246 250, 244, 255, 238, 258
 C 233 258, 229, 260, 226, 258
 C 233 252, 240, 255, 243, 247
 C 244 237, 244, 229, 244, 220
 C 238 217, 232, 218, 227, 215
 C 229 222, 236, 216, 242, 219
 C 244 229, 244, 237, 244, 245
 C 239 250, 237, 254, 231, 252
 C 229 246, 237, 248, 239, 246
 C 239 239, 240, 233, 240, 227
 C 235 224, 229, 225, 225, 224
 C 228 211, 214, 210, 217, 199" fill="rgb(160,128,105)" />
<path  d="
 M 200 440 C 174 454, 194, 467, 200, 484
 C 219 481, 228, 478, 242, 475
 C 234 473, 219, 473, 210, 467
 C 206 471, 205, 474, 208, 475
 C 211 474, 212, 472, 209, 471
 C 218 473, 225, 475, 234, 473
 C 222 474, 214, 486, 203, 484
 C 197 475, 196, 467, 187, 463
 C 185 452, 195, 446, 200, 444
 C 205 443, 209, 441, 211, 443
 C 206 452, 197, 450, 192, 454
 C 191 466, 209, 470, 200, 480
 C 209 480, 203, 476, 203, 473
 C 201 466, 193, 463, 192, 458
 C 199 451, 207, 454, 210, 445
 C 217 447, 221, 451, 224, 455
 C 216 457, 209, 457, 202, 457
 C 197 459, 200, 461, 202, 462
 C 218 464, 231, 469, 246, 468
 C 247 459, 246, 452, 243, 445
 C 241 457, 243, 451, 244, 466
 C 225 469, 215, 462, 201, 463
 C 210 460, 224, 455, 231, 461
 C 233 453, 229, 447, 235, 441
 C 228 444, 216, 438, 220, 447
 C 213 438, 203, 444, 199, 439" fill="rgb(160,128,105)" />
<path  d="
 M 137 343 C 143 342, 149, 343, 154, 342
 C 161 347, 163, 354, 163, 358
 C 150 358, 165, 349, 154, 346
 C 149 345, 144, 344, 140, 344
 C 140 350, 134, 352, 138, 357
 C 137 353, 137, 350, 141, 349
 C 147 349, 149, 346, 152, 345
 C 158 360, 140, 343, 140, 355
 C 158 362, 178, 365, 200, 362
 C 207 356, 212, 351, 218, 345
 C 225 343, 232, 344, 237, 343
 C 245 348, 246, 354, 248, 358
 C 234 363, 249, 349, 238, 348
 C 232 347, 227, 347, 222, 347
 C 213 353, 208, 360, 202, 365
 C 186 365, 173, 365, 160, 365
 C 155 362, 152, 355, 146, 357
 C 142 357, 139, 360, 138, 363
 C 137 355, 128, 347, 135, 344" fill="rgb(160,128,105)" />
<path  d="
 M 197 139 C 205 139, 209, 150, 216, 153
 C 212 162, 206, 167, 201, 173
 C 193 167, 188, 162, 183, 157
 C 187 150, 191, 146, 196, 142" fill="rgb(160,128,105)" />
<path  d="
 M 180 213 C 185 222, 201, 229, 201, 241
 C 193 250, 186, 257, 180, 264
 C 179 271, 179, 277, 179, 283
 C 186 265, 198, 252, 214, 237
 C 210 228, 211, 211, 195, 214
 C 198 220, 208, 220, 207, 226
 C 199 225, 197, 214, 188, 213
 C 194 220, 200, 226, 205, 231
 C 205 237, 211, 238, 207, 241
 C 205 232, 192, 221, 182, 213" fill="rgb(160,128,105)" />
<path  d="
 M 221 351
 L 220 349 C 258 350, 214, 366, 213, 379
 C 209 381, 207, 378, 208, 377
 C 216 373, 221, 363, 228, 359
 C 218 362, 212, 371, 204, 377
 C 191 377, 175, 381, 168, 378
 C 177 378, 192, 376, 201, 376
 C 212 366, 222, 352, 236, 355
 C 228 352, 226, 353, 223, 353
 C 214 360, 208, 367, 201, 373
 C 176 373, 161, 371, 142, 382
 C 144 369, 154, 384, 158, 371
 C 173 370, 186, 370, 199, 370
 C 207 364, 213, 358, 218, 352" fill="rgb(160,128,105)" />
<path  d="
 M 198 139 C 194 145, 189, 150, 184, 155
 C 189 161, 194, 167, 199, 172
 C 205 167, 210, 162, 214, 157
 C 211 150, 205, 145, 201, 140" fill="rgb(160,128,105)" />
<path  d="
 M 251 202 C 254 207, 260, 210, 264, 212
 C 261 225, 263, 239, 262, 250
 C 258 256, 255, 259, 251, 262
 C 264 263, 275, 264, 286, 263
 C 298 253, 310, 241, 319, 234
 C 316 236, 313, 236, 309, 235
 C 300 243, 294, 251, 287, 258
 C 279 257, 271, 261, 267, 256
 C 265 258, 265, 263, 260, 261
 C 272 252, 263, 229, 266, 215
 C 262 208, 258, 204, 254, 202" fill="rgb(160,128,105)" />
<path  d="
 M 214 63 C 215 61, 218, 67, 220, 62
 C 235 80, 252, 96, 268, 112
 C 272 115, 277, 115, 280, 114
 C 282 118, 280, 123, 285, 125
 C 282 127, 280, 127, 277, 127
 C 252 103, 236, 87, 213, 65" fill="rgb(160,128,105)" />
<path  d="
 M 189 60 C 196 59, 205, 58, 209, 63
 C 219 76, 235, 83, 245, 98
 C 238 95, 229, 90, 227, 83
 C 223 84, 219, 84, 215, 83
 C 215 80, 219, 82, 219, 77
 C 212 77, 213, 87, 205, 83
 C 200 75, 211, 74, 210, 71
 C 204 67, 207, 75, 204, 75
 C 200 73, 199, 72, 198, 71
 C 197 65, 206, 68, 203, 63
 C 197 61, 200, 66, 196, 67
 C 193 66, 191, 64, 190, 63" fill="rgb(160,128,105)" />
<path  d="
 M 95 98 C 112 100, 123, 123, 138, 133
 C 143 157, 147, 181, 145, 204
 C 146 182, 139, 157, 134, 136
 C 124 123, 114, 113, 104, 103
 C 100 102, 99, 106, 95, 104
 C 101 104, 109, 108, 108, 114
 C 103 120, 100, 123, 96, 118
 C 91 116, 93, 113, 95, 113
 C 98 113, 100, 114, 99, 117
 C 102 116, 103, 115, 105, 114
 C 102 107, 96, 109, 92, 108
 C 92 105, 94, 104, 93, 101" fill="rgb(160,128,105)" />
<path  d="
 M 231 198 C 241 197, 248, 207, 255, 215
 C 256 227, 256, 238, 256, 249
 C 250 256, 246, 261, 241, 266
 C 233 267, 227, 266, 222, 268
 C 213 275, 206, 282, 200, 289
 C 195 298, 205, 308, 197, 311
 C 196 304, 196, 297, 195, 290
 C 203 279, 213, 274, 219, 264
 C 225 263, 232, 264, 239, 263
 C 245 258, 250, 254, 254, 249
 C 254 237, 255, 227, 254, 218
 C 250 211, 245, 207, 241, 202
 C 236 202, 234, 207, 232, 203
 L 231 202 L 231 201" fill="rgb(160,128,105)" />
<path  d="
 M 315 242 C 325 249, 297, 260, 294, 271
 C 269 272, 247, 271, 226, 272
 C 218 277, 212, 284, 206, 290
 C 204 295, 204, 299, 207, 301
 C 205 305, 201, 305, 200, 304
 C 202 299, 202, 295, 201, 291
 C 209 283, 216, 276, 223, 270
 C 246 269, 268, 268, 290, 269
 C 297 261, 307, 253, 312, 246" fill="rgb(160,128,105)" />
<path  d="
 M 238 398
 L 239 397 C 253 393, 260, 405, 255, 414
 C 248 416, 246, 426, 240, 426
 C 235 416, 249, 414, 246, 405
 C 239 403, 237, 412, 232, 414
 C 227 415, 225, 413, 226, 411
 C 230 406, 232, 402, 236, 400" fill="rgb(160,128,105)" />
<path  d="
 M 113 86 C 125 97, 140, 111, 151, 124
 C 154 126, 158, 123, 163, 125
 C 170 140, 185, 131, 192, 141
 C 177 146, 167, 129, 152, 128
 C 137 115, 124, 102, 112, 90" fill="rgb(160,128,105)" />
<path  d="
 M 223 297
 L 225 296 C 226 295, 229, 297, 229, 298
 C 220 304, 215, 308, 211, 316
 C 213 315, 215, 315, 217, 315
 C 218 306, 230, 304, 230, 296
 C 235 295, 236, 297, 235, 300
 L 234 301 L 233 301 L 233 303
 L 230 302 C 228 307, 221, 309, 221, 314
 C 231 318, 226, 307, 231, 304
 C 242 308, 227, 308, 231, 314
 C 239 318, 233, 299, 243, 303
 C 245 310, 239, 309, 238, 310
 C 237 314, 247, 314, 243, 320
 C 218 320, 190, 319, 226, 297" fill="rgb(160,128,105)" />
<path  d="
 M 238 143 C 236 157, 219, 151, 218, 157
 C 226 164, 233, 153, 238, 157
 C 243 163, 251, 162, 251, 168
 C 246 170, 203, 162, 216, 171
 C 234 165, 242, 176, 258, 175
 C 253 164, 238, 157, 241, 146" fill="rgb(160,128,105)" />
<path  d="
 M 238 145
 L 241 144 C 240 155, 252, 163, 260, 172
 C 254 176, 248, 175, 244, 176
 L 241 174 L 240 173 L 240 173
 L 240 171 C 243 167, 249, 171, 250, 166
 C 244 164, 242, 157, 238, 157
 C 231 156, 226, 163, 222, 161
 C 209 147, 233, 157, 235, 146" fill="rgb(160,128,105)" />
<path  d="
 M 220 197 C 212 205, 223, 209, 225, 215
 C 225 219, 224, 221, 225, 223
 C 230 225, 237, 222, 240, 225
 C 241 233, 240, 239, 242, 244
 C 238 248, 232, 248, 230, 250
 C 236 253, 239, 250, 241, 246
 C 243 237, 243, 229, 243, 221
 C 235 217, 228, 225, 224, 218
 C 231 216, 239, 216, 245, 218
 C 245 229, 245, 237, 245, 245
 C 241 254, 235, 255, 228, 255
 C 230 257, 234, 258, 237, 258
 C 244 255, 245, 249, 247, 245
 C 248 236, 248, 229, 248, 222
 C 245 219, 248, 216, 244, 215
 C 238 214, 234, 214, 230, 214
 C 224 208, 219, 205, 221, 198" fill="rgb(160,128,105)" />
<path  d="
 M 148 449 C 157 462, 177, 478, 183, 493
 C 180 479, 168, 465, 154, 456
 C 154 452, 158, 450, 160, 452
 C 175 466, 181, 482, 190, 496
 C 185 495, 182, 502, 179, 496
 C 176 477, 154, 463, 144, 452" fill="rgb(160,128,105)" />
<path  d="
 M 238 397 C 235 401, 231, 405, 227, 408
 C 232 421, 238, 400, 246, 404
 C 250 414, 237, 415, 239, 424
 C 246 425, 248, 416, 254, 416
 C 258 405, 254, 394, 240, 398" fill="rgb(160,128,105)" />
<path  d="
 M 155 439 C 154 442, 154, 446, 150, 447
 C 163 447, 178, 452, 186, 441
 C 182 450, 179, 458, 171, 454
 C 174 461, 177, 454, 180, 458
 C 185 469, 192, 480, 197, 490
 C 205 491, 211, 490, 216, 491
 C 209 496, 201, 495, 197, 492
 C 187 479, 178, 466, 165, 455
 C 163 452, 162, 453, 162, 455
 C 182 464, 184, 484, 196, 496
 C 202 494, 210, 496, 214, 498
 C 214 490, 221, 490, 221, 486
 C 216 490, 208, 490, 200, 489
 C 190 481, 193, 469, 180, 464
 L 180 461 L 180 460 L 181 460
 L 180 458 C 179 450, 187, 448, 190, 442
 C 179 447, 168, 450, 154, 447
 C 158 442, 169, 441, 175, 445
 C 174 437, 163, 446, 157, 439" fill="rgb(160,128,105)" />
<path  d="
 M 191 60 C 190 63, 193, 65, 194, 67
 C 198 64, 198, 60, 203, 62
 C 206 67, 200, 67, 198, 68
 C 199 71, 200, 72, 201, 73
 C 204 72, 206, 66, 210, 69
 C 213 75, 201, 75, 205, 82
 C 214 86, 211, 76, 216, 75
 C 222 78, 217, 84, 216, 82
 C 219 83, 223, 83, 225, 80
 C 229 89, 238, 93, 242, 100
 C 234 83, 218, 77, 212, 65
 C 206 59, 199, 61, 192, 61" fill="rgb(160,128,105)" />
<path  d="
 M 170 395 C 174 394, 180, 395, 184, 394
 C 192 402, 200, 409, 206, 415
 C 205 419, 204, 421, 202, 422
 C 201 411, 190, 407, 186, 400
 C 170 408, 133, 401, 172, 396" fill="rgb(160,128,105)" />
<path  d="
 M 245 389 C 248 386, 253, 392, 249, 395
 C 245 393, 242, 393, 238, 394
 C 232 401, 222, 405, 222, 412
 C 226 420, 230, 417, 233, 415
 C 239 420, 230, 424, 237, 427
 C 241 427, 245, 429, 248, 427
 C 250 424, 247, 421, 251, 420
 C 253 420, 256, 421, 256, 422
 C 249 432, 241, 430, 233, 431
 C 239 417, 217, 423, 221, 407
 C 229 401, 233, 388, 244, 391" fill="rgb(160,128,105)" />
<path  d="
 M 214 201 C 215 208, 228, 214, 223, 225
 C 229 226, 234, 224, 238, 226
 C 239 235, 238, 242, 235, 247
 C 224 243, 238, 238, 233, 231
 C 229 231, 224, 230, 220, 230
 C 219 225, 219, 221, 219, 217
 C 215 212, 213, 208, 208, 210
 C 209 206, 210, 205, 211, 204" fill="rgb(160,128,105)" />
<path  d="
 M 124 76 C 124 88, 149, 100, 154, 113
 C 159 114, 161, 111, 166, 113
 C 171 117, 174, 120, 177, 123
 C 197 130, 215, 113, 222, 126
 C 209 114, 196, 130, 180, 122
 C 174 120, 172, 115, 167, 113
 C 160 114, 157, 110, 153, 109
 C 143 98, 130, 88, 124, 79
 C 138 87, 147, 98, 157, 107
 C 174 107, 188, 105, 198, 114
 L 201 113
 L 202 111 C 204 110, 205, 108, 207, 107
 C 221 104, 227, 121, 232, 122
 C 229 117, 221, 111, 220, 105
 C 215 106, 213, 107, 209, 106
 C 205 107, 203, 111, 201, 112
 C 189 103, 173, 107, 160, 106
 C 148 96, 139, 87, 130, 78" fill="rgb(160,128,105)" />
<path  d="
 M 123 194 C 139 206, 112, 197, 108, 203
 C 98 207, 92, 198, 82, 201
 C 86 203, 92, 201, 94, 207
 C 104 211, 112, 203, 120, 201
 C 126 212, 113, 203, 111, 208
 C 97 211, 88, 208, 79, 203
 C 93 196, 106, 206, 121, 195" fill="rgb(160,128,105)" />
<path  d="
 M 143 215 C 137 230, 119, 239, 112, 252
 C 128 248, 139, 225, 152, 222
 C 140 237, 130, 247, 119, 257
 C 113 261, 109, 253, 105, 258
 C 110 263, 113, 257, 118, 260
 C 130 245, 148, 235, 155, 220
 C 162 219, 168, 219, 174, 219
 C 182 225, 187, 230, 191, 235
 C 193 243, 183, 248, 179, 255
 C 171 254, 169, 244, 165, 244
 C 167 249, 172, 252, 175, 257
 C 198 246, 197, 231, 175, 219
 C 168 217, 162, 217, 156, 217
 C 139 225, 129, 243, 116, 253
 C 122 239, 139, 225, 148, 216" fill="rgb(160,128,105)" />
<path  d="
 M 135 330 C 125 330, 132, 336, 133, 340
 C 140 336, 149, 340, 155, 338
 C 162 343, 164, 348, 165, 351
 C 171 345, 160, 345, 158, 338
 C 148 338, 139, 336, 133, 339
 C 132 334, 136, 334, 134, 331
 C 144 331, 151, 331, 159, 331
 C 164 335, 168, 339, 171, 342
 C 173 349, 173, 353, 173, 358
 C 182 360, 192, 356, 199, 361
 C 196 354, 181, 361, 173, 356
 C 185 353, 199, 353, 207, 355
 C 199 352, 179, 355, 172, 350
 C 187 349, 201, 345, 211, 350
 C 204 346, 188, 347, 176, 346
 C 172 340, 165, 336, 161, 330
 C 151 330, 144, 330, 137, 330" fill="#f19daf" />
<path  d="
 M 139 344 C 127 345, 138, 353, 135, 361
 C 139 358, 142, 356, 144, 355
 C 152 354, 155, 361, 159, 363
 C 173 364, 186, 364, 199, 364
 C 208 359, 213, 352, 220, 347
 C 227 346, 232, 346, 237, 346
 C 250 348, 237, 360, 245, 361
 C 244 354, 245, 349, 239, 346
 C 232 345, 227, 345, 222, 345
 C 212 350, 208, 357, 201, 362
 C 181 362, 159, 369, 147, 352
 C 143 355, 142, 354, 142, 356
 C 137 341, 156, 357, 154, 348
 C 149 347, 147, 350, 142, 348
 C 137 351, 139, 355, 138, 357
 C 133 352, 138, 349, 138, 344
 C 145 344, 148, 343, 152, 343
 C 161 348, 160, 353, 157, 357
 C 165 358, 160, 354, 160, 351
 C 160 347, 157, 346, 157, 344
 L 155 344
 L 152 343 C 149 344, 144, 343, 140, 343" fill="#f19daf" />
<path  d="
 M 112 88 C 122 101, 138, 113, 149, 127
 C 167 128, 176, 144, 191, 142
 C 183 133, 170, 140, 165, 125
 C 158 124, 154, 127, 152, 127
 C 141 112, 127, 101, 116, 88" fill="#f19daf" />
<path  d="
 M 290 99 C 301 100, 299, 115, 300, 123
 C 306 130, 309, 133, 313, 137
 C 313 132, 309, 129, 308, 125
 C 306 120, 311, 118, 312, 122
 C 312 132, 321, 140, 323, 146
 C 314 141, 306, 132, 298, 126
 C 300 114, 297, 106, 288, 103" fill="#f19daf" />
<path  d="
 M 241 399 C 249 395, 253, 403, 252, 409
 C 251 416, 245, 420, 242, 424
 C 240 415, 252, 414, 248, 404
 C 238 398, 234, 416, 227, 411
 C 232 405, 235, 401, 239, 398" fill="rgb(160,128,105)" />
<path  d="
 M 152 64 C 152 62, 153, 63, 155, 63
 C 157 71, 166, 74, 170, 78
 C 162 82, 160, 66, 151, 69
 C 158 79, 168, 84, 176, 83
 C 171 90, 169, 84, 166, 86
 C 160 78, 146, 73, 148, 65" fill="rgb(160,128,105)" />
<path  d="
 M 221 350 C 215 357, 208, 364, 202, 371
 C 178 367, 154, 376, 141, 377
 C 161 369, 176, 372, 199, 373
 C 208 366, 214, 359, 221, 353
 C 225 351, 229, 352, 232, 352
 C 234 354, 236, 354, 236, 356
 C 232 357, 230, 356, 229, 357
 C 225 356, 224, 356, 223, 356
 C 216 364, 209, 369, 203, 377
 C 193 377, 178, 380, 171, 374
 C 175 379, 190, 376, 200, 378
 L 203 378
 L 204 376 C 212 370, 218, 361, 226, 356
 C 225 367, 208, 373, 209, 379
 C 216 370, 226, 362, 233, 356
 C 239 349, 228, 350, 224, 351" fill="rgb(160,128,105)" />
<path  d="
 M 176 396 C 137 402, 165, 405, 184, 397
 C 190 406, 201, 410, 201, 419
 C 203 421, 204, 418, 206, 418
 C 199 409, 192, 402, 187, 396
 C 181 395, 177, 395, 173, 395" fill="rgb(160,128,105)" />
<path  d="
 M 95 99 C 94 102, 95, 105, 91, 106
 C 97 108, 103, 106, 105, 112
 C 99 128, 97, 105, 93, 117
 C 99 121, 102, 120, 105, 115
 C 108 108, 99, 105, 95, 107
 C 97 104, 100, 102, 102, 101
 C 115 113, 125, 123, 135, 133
 C 139 157, 147, 180, 140, 204
 C 145 180, 142, 157, 136, 136
 C 126 123, 115, 112, 105, 102
 C 100 101, 100, 99, 97, 100" fill="rgb(160,128,105)" />
<path  d="
 M 214 202 C 213 204, 211, 206, 210, 208
 C 214 207, 216, 212, 219, 214
 C 220 221, 219, 224, 219, 228
 C 225 230, 229, 230, 234, 230
 C 239 238, 226, 242, 232, 247
 C 237 241, 238, 235, 237, 228
 C 232 227, 228, 227, 224, 227
 C 226 215, 218, 211, 214, 205" fill="rgb(160,128,105)" />
<path  d="
 M 264 297 C 289 295, 264, 307, 270, 312
 C 266 314, 263, 312, 263, 311
 C 265 304, 269, 302, 273, 302
 C 269 299, 265, 300, 263, 303
 C 260 312, 267, 314, 267, 320
 C 269 323, 266, 325, 265, 324
 C 267 317, 258, 313, 259, 304
 C 262 301, 263, 300, 265, 299" fill="rgb(160,128,105)" />
<path  d="
 M 145 457 C 155 463, 163, 477, 174, 482
 C 171 485, 171, 487, 170, 487
 C 165 477, 154, 471, 149, 463
 C 147 469, 154, 472, 158, 474
 C 157 478, 156, 479, 154, 478
 C 151 471, 144, 468, 145, 460" fill="rgb(160,128,105)" />
<path  d="
 M 228 295 C 195 319, 214, 319, 243, 318
 C 244 311, 235, 318, 236, 312
 C 237 307, 244, 310, 242, 305
 C 237 303, 238, 308, 236, 310
 C 236 313, 236, 314, 236, 315
 C 233 316, 232, 316, 231, 317
 C 226 307, 236, 310, 235, 305
 C 227 306, 232, 319, 222, 316
 C 218 306, 239, 302, 233, 296
 C 230 305, 218, 307, 220, 315
 C 215 316, 213, 316, 210, 316
 C 212 307, 226, 303, 227, 296" fill="rgb(160,128,105)" />
<path  d="
 M 314 244 C 310 252, 298, 261, 292, 269
 C 268 270, 246, 269, 225, 270
 C 216 277, 210, 283, 204, 290
 C 203 295, 203, 299, 200, 301
 C 199 293, 213, 280, 224, 271
 C 247 271, 269, 270, 291, 271
 C 300 260, 314, 251, 318, 244" fill="rgb(160,128,105)" />
<path  d="
 M 211 162 C 216 168, 229, 170, 235, 163
 C 240 165, 237, 169, 239, 170
 C 231 168, 228, 178, 219, 174
 C 215 171, 212, 168, 209, 165" fill="rgb(160,128,105)" />
<path  d="
 M 166 65 C 176 63, 181, 77, 189, 81
 C 189 87, 189, 91, 189, 94
 C 186 85, 179, 75, 168, 68" fill="rgb(160,128,105)" />
<path  d="
 M 146 451 C 150 461, 179, 476, 178, 494
 C 183 500, 185, 494, 188, 496
 C 180 481, 173, 466, 158, 455
 C 157 452, 155, 453, 155, 455
 C 164 461, 171, 471, 179, 477
 C 178 483, 185, 490, 183, 493
 C 177 476, 157, 466, 149, 452" fill="rgb(160,128,105)" />
<path  d="
 M 233 199 C 231 199, 232, 200, 232, 202
 C 235 206, 236, 200, 238, 200
 C 245 207, 251, 211, 255, 216
 C 256 227, 255, 237, 256, 246
 C 251 254, 245, 258, 241, 264
 C 232 265, 226, 265, 221, 262
 C 214 274, 205, 280, 198, 288
 C 196 297, 197, 303, 195, 308
 C 202 307, 194, 297, 198, 291
 C 205 281, 213, 275, 220, 268
 C 227 265, 233, 266, 238, 265
 C 245 261, 250, 256, 254, 252
 L 256 250 L 256 249
 L 255 246 C 256 237, 256, 228, 256, 219
 L 256 217
 L 255 214 C 249 210, 246, 204, 241, 201
 C 236 202, 236, 198, 235, 198" fill="rgb(160,128,105)" />
<path  d="
 M 76 202 C 83 211, 103, 215, 115, 211
 C 109 218, 101, 214, 93, 216
 C 88 208, 76, 215, 74, 206" fill="rgb(160,128,105)" />
<path  d="
 M 247 391 C 236 389, 230, 398, 223, 406
 L 222 408
 L 222 410 C 221 413, 221, 418, 226, 419
 C 236 419, 230, 426, 231, 430
 C 241 429, 250, 430, 255, 422
 C 249 422, 249, 433, 237, 428
 C 233 425, 233, 421, 236, 419
 C 231 415, 230, 419, 228, 419
 C 223 415, 220, 413, 222, 409
 C 228 393, 246, 393, 250, 392" fill="rgb(160,128,105)" />
<path  d="
 M 236 159
 L 237 158 C 256 173, 228, 158, 221, 168
 C 216 164, 215, 163, 214, 162
 C 219 163, 228, 163, 233, 158" fill="rgb(160,128,105)" />
<path  d="
 M 185 161 C 195 177, 164, 168, 160, 179
 C 161 174, 161, 170, 165, 169
 C 172 166, 179, 169, 183, 166" fill="rgb(160,128,105)" />
<path  d="
 M 143 362
 L 144 361 C 150 360, 154, 364, 159, 365
 C 152 378, 154, 358, 144, 364
 C 141 366, 140, 367, 141, 369
 C 144 365, 152, 362, 152, 369
 C 148 374, 145, 366, 142, 372
 C 137 369, 136, 365, 141, 363" fill="rgb(160,128,105)" />
<path  d="
 M 243 399 C 237 399, 234, 405, 229, 408
 C 234 411, 239, 398, 249, 403
 C 252 413, 243, 415, 240, 421
 C 245 419, 250, 416, 250, 410
 C 252 407, 251, 406, 250, 405
 C 251 399, 247, 399, 245, 398" fill="rgb(160,128,105)" />
<path  d="
 M 125 196 C 108 204, 95, 201, 79, 198
 C 84 208, 91, 203, 94, 209
 C 101 209, 104, 208, 108, 208
 C 113 201, 122, 211, 123, 203
 C 112 204, 104, 212, 96, 208
 C 92 201, 83, 206, 80, 201
 C 92 197, 98, 206, 105, 203
 C 112 193, 130, 207, 127, 196" fill="rgb(160,128,105)" />
<path  d="
 M 290 101 C 293 106, 303, 112, 298, 124
 C 306 132, 315, 140, 319, 147
 C 318 139, 312, 131, 311, 124
 C 310 119, 306, 121, 308, 124
 C 311 130, 314, 133, 315, 138
 C 309 134, 305, 130, 301, 126
 C 299 115, 299, 106, 294, 100" fill="rgb(160,128,105)" />
<path  d="
 M 82 211 C 89 220, 101, 220, 107, 219
 C 97 223, 85, 220, 80, 217" fill="rgb(160,128,105)" />
<path  d="
 M 166 65 C 175 74, 189, 82, 186, 96
 C 189 90, 188, 87, 189, 84
 C 181 77, 176, 67, 169, 65" fill="rgb(160,128,105)" />
<path  d="
 M 152 63 C 142 70, 162, 76, 163, 83
 C 169 83, 170, 88, 174, 86
 C 167 86, 158, 78, 152, 69
 C 158 66, 164, 76, 166, 81
 C 167 74, 157, 71, 156, 64" fill="rgb(160,128,105)" />
<path  d="
 M 146 458 C 144 466, 150, 470, 153, 475
 C 155 477, 157, 478, 158, 477
 C 152 474, 147, 468, 147, 463
 C 155 470, 166, 477, 169, 486
 C 166 478, 155, 468, 148, 460" fill="rgb(160,128,105)" />
<path  d="
 M 236 159 C 230 159, 222, 167, 215, 159
 C 221 166, 252, 164, 239, 162" fill="rgb(160,128,105)" />
<path  d="
 M 185 163 C 182 171, 173, 168, 167, 169
 C 161 171, 162, 174, 161, 177
 C 166 165, 183, 179, 188, 164" fill="rgb(160,128,105)" />
<path  d="
 M 74 205 C 81 213, 101, 214, 112, 216
 C 104 215, 84, 214, 79, 204" fill="rgb(160,128,105)" />
<path  d="
 M 144 361 C 133 367, 141, 374, 148, 369
 C 153 358, 140, 374, 140, 368
 C 142 362, 146, 362, 150, 363
 C 155 365, 152, 371, 158, 369
 C 158 363, 153, 366, 152, 362
 C 148 361, 147, 361, 146, 362" fill="rgb(160,128,105)" />
<path  d="
 M 223 448 C 225 449, 234, 456, 233, 459
 C 227 457, 224, 454, 220, 450" fill="rgb(160,128,105)" />
<path  d="
 M 66 214 C 71 213, 74, 220, 78, 222
 C 74 227, 68, 220, 67, 217" fill="rgb(160,128,105)" />
<path  d="
 M 81 214 C 82 220, 97, 220, 104, 224
 C 101 220, 90, 225, 85, 212" fill="rgb(160,128,105)" />
<path  d="
 M 221 443 C 228 440, 230, 444, 232, 449
 C 228 452, 225, 445, 221, 446" fill="rgb(160,128,105)" />
<path  d="
 M 120 296 C 122 295, 126, 303, 121, 304
 C 118 303, 115, 300, 117, 298" fill="rgb(160,128,105)" />
<path  d="
 M 301 163 C 305 162, 307, 169, 311, 170
 C 307 170, 301, 171, 300, 165" fill="rgb(160,128,105)" />
<path  d="
 M 223 448 C 219 452, 229, 456, 230, 459
 C 231 455, 228, 453, 226, 450" fill="rgb(160,128,105)" />
 
 </svg>