<svg width="109" height="29" viewBox="0 0 109 29" fill="none" xmlns="http://www.w3.org/2000/svg">
<g filter="url(#filter0_d_1_116)">
<path d="M7.77131 16H4.47585L9.49716 1.45455H13.4602L18.4744 16H15.179L11.5355 4.77841H11.4219L7.77131 16ZM7.56534 10.2827H15.3494V12.6832H7.56534V10.2827ZM20.2251 16V1.45455H25.9638C27.067 1.45455 28.0069 1.66525 28.7834 2.08665C29.5599 2.50331 30.1518 3.08333 30.5589 3.8267C30.9709 4.56534 31.1768 5.41761 31.1768 6.38352C31.1768 7.34943 30.9685 8.2017 30.5518 8.94034C30.1352 9.67898 29.5315 10.2543 28.7408 10.6662C27.9548 11.0781 27.0031 11.2841 25.8857 11.2841H22.228V8.8196H25.3885C25.9804 8.8196 26.468 8.7178 26.8516 8.5142C27.2398 8.30587 27.5286 8.01941 27.718 7.65483C27.9122 7.28551 28.0092 6.86174 28.0092 6.38352C28.0092 5.90057 27.9122 5.47917 27.718 5.11932C27.5286 4.75473 27.2398 4.47301 26.8516 4.27415C26.4633 4.07055 25.9709 3.96875 25.3743 3.96875H23.3004V16H20.2251ZM56.1822 16V1.45455H59.2575V13.4645H65.4933V16H56.1822ZM67.473 16V5.09091H70.4986V16H67.473ZM68.9929 3.68466C68.5431 3.68466 68.1572 3.53551 67.8352 3.23722C67.518 2.93419 67.3594 2.57197 67.3594 2.15057C67.3594 1.7339 67.518 1.37642 67.8352 1.07812C68.1572 0.775094 68.5431 0.623579 68.9929 0.623579C69.4427 0.623579 69.8262 0.775094 70.1435 1.07812C70.4654 1.37642 70.6264 1.7339 70.6264 2.15057C70.6264 2.57197 70.4654 2.93419 70.1435 3.23722C69.8262 3.53551 69.4427 3.68466 68.9929 3.68466ZM77.837 20.3182C76.8569 20.3182 76.0165 20.1832 75.3157 19.9134C74.6197 19.6482 74.0657 19.286 73.6538 18.8267C73.2418 18.3674 72.9743 17.8513 72.8512 17.2784L75.6495 16.902C75.7347 17.1198 75.8697 17.3234 76.0543 17.5128C76.239 17.7022 76.4828 17.8537 76.7859 17.9673C77.0936 18.0857 77.4677 18.1449 77.908 18.1449C78.5662 18.1449 79.1083 17.9839 79.5344 17.6619C79.9653 17.3447 80.1808 16.812 80.1808 16.0639V14.0682H80.0529C79.9203 14.3712 79.7215 14.6577 79.4563 14.9276C79.1912 15.1974 78.8503 15.4176 78.4336 15.5881C78.0169 15.7585 77.5198 15.8438 76.9421 15.8438C76.123 15.8438 75.3772 15.6544 74.7049 15.2756C74.0373 14.892 73.5046 14.3073 73.1069 13.5213C72.7139 12.7306 72.5174 11.7315 72.5174 10.5241C72.5174 9.28835 72.7186 8.25616 73.1211 7.42756C73.5236 6.59896 74.0586 5.97869 74.7262 5.56676C75.3986 5.15483 76.1348 4.94886 76.935 4.94886C77.5458 4.94886 78.0572 5.05303 78.4691 5.26136C78.881 5.46496 79.2125 5.72064 79.4634 6.02841C79.7191 6.33144 79.9156 6.62973 80.0529 6.9233H80.1665V5.09091H83.1708V16.1065C83.1708 17.0346 82.9435 17.8111 82.489 18.4361C82.0344 19.0611 81.4047 19.5298 80.5998 19.8423C79.7996 20.1596 78.8787 20.3182 77.837 20.3182ZM77.9009 13.571C78.3886 13.571 78.8005 13.4503 79.1367 13.2088C79.4776 12.9626 79.738 12.6122 79.918 12.1577C80.1026 11.6984 80.195 11.1491 80.195 10.5099C80.195 9.87074 80.105 9.31676 79.9251 8.84801C79.7451 8.37453 79.4847 8.00758 79.1438 7.74716C78.8029 7.48674 78.3886 7.35653 77.9009 7.35653C77.4038 7.35653 76.9847 7.49148 76.6438 7.76136C76.3029 8.02651 76.0449 8.39583 75.8697 8.86932C75.6945 9.3428 75.6069 9.88968 75.6069 10.5099C75.6069 11.1397 75.6945 11.6842 75.8697 12.1435C76.0496 12.598 76.3076 12.9508 76.6438 13.2017C76.9847 13.4479 77.4038 13.571 77.9009 13.571ZM88.604 9.69318V16H85.5785V1.45455H88.5188V7.01562H88.6467C88.8929 6.37169 89.2906 5.86742 89.8398 5.50284C90.3891 5.13352 91.078 4.94886 91.9066 4.94886C92.6642 4.94886 93.3247 5.11458 93.8881 5.44602C94.4563 5.77273 94.8967 6.24384 95.2092 6.85938C95.5264 7.47017 95.6826 8.2017 95.6779 9.05398V16H92.6523V9.59375C92.6571 8.9214 92.4866 8.3982 92.141 8.02415C91.8001 7.65009 91.3219 7.46307 90.7063 7.46307C90.2944 7.46307 89.9298 7.55066 89.6126 7.72585C89.3001 7.90104 89.0539 8.15672 88.8739 8.4929C88.6987 8.82434 88.6088 9.22443 88.604 9.69318ZM103.862 5.09091V7.36364H97.2919V5.09091H103.862ZM98.7834 2.47727H101.809V12.6477C101.809 12.9271 101.852 13.1449 101.937 13.3011C102.022 13.4527 102.14 13.5592 102.292 13.6207C102.448 13.6823 102.628 13.7131 102.832 13.7131C102.974 13.7131 103.116 13.7012 103.258 13.6776C103.4 13.6491 103.509 13.6278 103.585 13.6136L104.06 15.8651C103.909 15.9124 103.696 15.9669 103.421 16.0284C103.147 16.0947 102.813 16.1349 102.42 16.1491C101.691 16.1776 101.051 16.0805 100.502 15.858C99.9576 15.6354 99.5339 15.2898 99.2308 14.821C98.9278 14.3523 98.7786 13.7604 98.7834 13.0455V2.47727Z" fill="black"/>
<path d="M39.4173 1.45455V16H36.342V4.37358H36.2567L32.9258 6.46165V3.73438L36.5266 1.45455H39.4173ZM48.3004 16.1989C47.2067 16.1989 46.2337 16.0213 45.3814 15.6662C44.5339 15.3063 43.8686 14.8163 43.3857 14.196C42.9027 13.5758 42.6612 12.8726 42.6612 12.0866C42.6612 11.4806 42.7985 10.9242 43.0732 10.4176C43.3525 9.90625 43.7313 9.48248 44.2095 9.14631C44.6877 8.8054 45.2228 8.58759 45.8146 8.4929V8.39347C45.0381 8.23722 44.4084 7.8608 43.9254 7.2642C43.4425 6.66288 43.201 5.96449 43.201 5.16903C43.201 4.41619 43.4212 3.74621 43.8615 3.15909C44.3018 2.56723 44.9055 2.10322 45.6726 1.76705C46.4444 1.42614 47.3203 1.25568 48.3004 1.25568C49.2805 1.25568 50.1541 1.42614 50.9212 1.76705C51.6929 2.10795 52.299 2.57434 52.7393 3.16619C53.1797 3.75331 53.4022 4.42093 53.407 5.16903C53.4022 5.96922 53.156 6.66761 52.6683 7.2642C52.1806 7.8608 51.5556 8.23722 50.7933 8.39347V8.4929C51.3757 8.58759 51.9036 8.8054 52.3771 9.14631C52.8554 9.48248 53.2341 9.90625 53.5135 10.4176C53.7976 10.9242 53.942 11.4806 53.9467 12.0866C53.942 12.8726 53.6982 13.5758 53.2152 14.196C52.7322 14.8163 52.0646 15.3063 51.2124 15.6662C50.3648 16.0213 49.3942 16.1989 48.3004 16.1989ZM48.3004 13.9403C48.7881 13.9403 49.2143 13.8527 49.5788 13.6776C49.9434 13.4976 50.2275 13.2514 50.4311 12.9389C50.6394 12.6217 50.7436 12.2571 50.7436 11.8452C50.7436 11.4238 50.6371 11.0521 50.424 10.7301C50.2109 10.4034 49.9221 10.1477 49.5575 9.96307C49.1929 9.77367 48.7739 9.67898 48.3004 9.67898C47.8317 9.67898 47.4126 9.77367 47.0433 9.96307C46.674 10.1477 46.3828 10.4034 46.1697 10.7301C45.9614 11.0521 45.8572 11.4238 45.8572 11.8452C45.8572 12.2571 45.959 12.6217 46.1626 12.9389C46.3662 13.2514 46.6527 13.4976 47.022 13.6776C47.3913 13.8527 47.8175 13.9403 48.3004 13.9403ZM48.3004 7.44176C48.7076 7.44176 49.0698 7.3589 49.3871 7.19318C49.7043 7.02746 49.9529 6.79782 50.1328 6.50426C50.3127 6.2107 50.4027 5.87216 50.4027 5.48864C50.4027 5.10985 50.3127 4.77841 50.1328 4.49432C49.9529 4.20549 49.7067 3.98059 49.3942 3.8196C49.0817 3.65388 48.7171 3.57102 48.3004 3.57102C47.8885 3.57102 47.5239 3.65388 47.2067 3.8196C46.8894 3.98059 46.6409 4.20549 46.4609 4.49432C46.2857 4.77841 46.1982 5.10985 46.1982 5.48864C46.1982 5.87216 46.2881 6.2107 46.468 6.50426C46.648 6.79782 46.8965 7.02746 47.2138 7.19318C47.531 7.3589 47.8932 7.44176 48.3004 7.44176Z" fill="#EF4444"/>
</g>
<defs>
<filter id="filter0_d_1_116" x="0.47583" y="0.623566" width="107.585" height="27.6946" filterUnits="userSpaceOnUse" color-interpolation-filters="sRGB">
<feFlood flood-opacity="0" result="BackgroundImageFix"/>
<feColorMatrix in="SourceAlpha" type="matrix" values="0 0 0 0 0 0 0 0 0 0 0 0 0 0 0 0 0 0 127 0" result="hardAlpha"/>
<feOffset dy="4"/>
<feGaussianBlur stdDeviation="2"/>
<feComposite in2="hardAlpha" operator="out"/>
<feColorMatrix type="matrix" values="0 0 0 0 0 0 0 0 0 0 0 0 0 0 0 0 0 0 0.25 0"/>
<feBlend mode="normal" in2="BackgroundImageFix" result="effect1_dropShadow_1_116"/>
<feBlend mode="normal" in="SourceGraphic" in2="effect1_dropShadow_1_116" result="shape"/>
</filter>
</defs>
</svg>
